M48
; DRILL file {KiCad 7.0.10} date Monday, April 29, 2024 at 10:24:39 PM
; FORMAT={-:-/ absolute / metric / decimal}
; #@! TF.CreationDate,2024-04-29T22:24:39+02:00
; #@! TF.GenerationSoftware,Kicad,Pcbnew,7.0.10
; #@! TF.FileFunction,Plated,1,2,PTH
FMAT,2
METRIC
; #@! TA.AperFunction,Plated,PTH,ViaDrill
T1C0.400
; #@! TA.AperFunction,Plated,PTH,ComponentDrill
T2C0.600
; #@! TA.AperFunction,Plated,PTH,ComponentDrill
T3C1.000
%
G90
G05
T1
X37.567Y-52.971
X39.117Y-51.2
X39.467Y-56.5
X41.317Y-38.55
X44.067Y-60.1
X44.767Y-36.8
X47.767Y-61.2
X48.768Y-51.501
X50.95Y-36.0
X53.667Y-60.3
X54.477Y-36.973
X57.217Y-58.4
X59.131Y-40.525
X59.767Y-45.85
X60.717Y-53.75
X60.967Y-44.35
T3
X46.7Y-44.4
X49.24Y-44.4
X51.78Y-44.4
T2
G00X45.392Y-46.63
M15
G01X44.692Y-46.63
M16
G05
G00X45.392Y-50.67
M15
G01X44.692Y-50.67
M16
G05
G00X53.842Y-50.67
M15
G01X53.142Y-50.67
M16
G05
G00X53.867Y-46.63
M15
G01X53.167Y-46.63
M16
G05
M30
