%TF.GenerationSoftware,KiCad,Pcbnew,7.0.10*%
%TF.CreationDate,2024-04-29T22:12:33+02:00*%
%TF.ProjectId,GhostControllerLED,47686f73-7443-46f6-9e74-726f6c6c6572,rev?*%
%TF.SameCoordinates,Original*%
%TF.FileFunction,Copper,L2,Bot*%
%TF.FilePolarity,Positive*%
%FSLAX46Y46*%
G04 Gerber Fmt 4.6, Leading zero omitted, Abs format (unit mm)*
G04 Created by KiCad (PCBNEW 7.0.10) date 2024-04-29 22:12:33*
%MOMM*%
%LPD*%
G01*
G04 APERTURE LIST*
G04 Aperture macros list*
%AMRoundRect*
0 Rectangle with rounded corners*
0 $1 Rounding radius*
0 $2 $3 $4 $5 $6 $7 $8 $9 X,Y pos of 4 corners*
0 Add a 4 corners polygon primitive as box body*
4,1,4,$2,$3,$4,$5,$6,$7,$8,$9,$2,$3,0*
0 Add four circle primitives for the rounded corners*
1,1,$1+$1,$2,$3*
1,1,$1+$1,$4,$5*
1,1,$1+$1,$6,$7*
1,1,$1+$1,$8,$9*
0 Add four rect primitives between the rounded corners*
20,1,$1+$1,$2,$3,$4,$5,0*
20,1,$1+$1,$4,$5,$6,$7,0*
20,1,$1+$1,$6,$7,$8,$9,0*
20,1,$1+$1,$8,$9,$2,$3,0*%
G04 Aperture macros list end*
%TA.AperFunction,ComponentPad*%
%ADD10R,1.700000X1.700000*%
%TD*%
%TA.AperFunction,ComponentPad*%
%ADD11O,1.700000X1.700000*%
%TD*%
%TA.AperFunction,ComponentPad*%
%ADD12RoundRect,0.500000X0.425000X0.000000X-0.425000X0.000000X-0.425000X0.000000X0.425000X0.000000X0*%
%TD*%
%TA.AperFunction,SMDPad,CuDef*%
%ADD13R,0.550000X1.600000*%
%TD*%
%TA.AperFunction,ViaPad*%
%ADD14C,0.800000*%
%TD*%
%TA.AperFunction,Conductor*%
%ADD15C,0.250000*%
%TD*%
%TA.AperFunction,Conductor*%
%ADD16C,0.500000*%
%TD*%
%TA.AperFunction,Conductor*%
%ADD17C,0.550000*%
%TD*%
G04 APERTURE END LIST*
D10*
%TO.P,REF\u002A\u002A,1*%
%TO.N,Net-(D1-VDD)*%
X46700000Y-44400000D03*
D11*
%TO.P,REF\u002A\u002A,2*%
%TO.N,Net-(J1-D+-PadA6)*%
X49240000Y-44400000D03*
%TO.P,REF\u002A\u002A,3*%
%TO.N,GND*%
X51780000Y-44400000D03*
%TD*%
D12*
%TO.P,NoUSB,1*%
%TO.N,GND*%
X53417285Y-46630000D03*
%TO.P,NoUSB,2*%
X53417285Y-50670000D03*
%TO.P,NoUSB,3*%
X45117285Y-50670000D03*
X45117285Y-46630000D03*
D13*
%TO.P,NoUSB,A1,GND*%
X52767285Y-47500000D03*
%TO.P,NoUSB,A4,VBUS*%
%TO.N,Net-(D1-VDD)*%
X51767285Y-47500000D03*
%TO.P,NoUSB,A5,CC1*%
%TO.N,unconnected-(J1-CC1-PadA5)*%
X50767285Y-47500000D03*
%TO.P,NoUSB,A6,D+*%
%TO.N,Net-(J1-D+-PadA6)*%
X49767285Y-47500000D03*
%TO.P,NoUSB,A7,D-*%
%TO.N,unconnected-(J1-D--PadA7)*%
X48767285Y-47500000D03*
%TO.P,NoUSB,A8,SBU1*%
%TO.N,unconnected-(J1-SBU1-PadA8)*%
X47767285Y-47500000D03*
%TO.P,NoUSB,A9,VBUS*%
%TO.N,Net-(D1-VDD)*%
X46767285Y-47500000D03*
%TO.P,NoUSB,A12,GND*%
%TO.N,GND*%
X45767285Y-47500000D03*
%TO.P,NoUSB,B1,GND*%
X45767285Y-49800000D03*
%TO.P,NoUSB,B4,VBUS*%
%TO.N,Net-(D1-VDD)*%
X46767285Y-49800000D03*
%TO.P,NoUSB,B5,CC2*%
%TO.N,unconnected-(J1-CC2-PadB5)*%
X47767285Y-49800000D03*
%TO.P,NoUSB,B6,D+*%
%TO.N,Net-(J1-D+-PadA6)*%
X48767285Y-49800000D03*
%TO.P,NoUSB,B7,D-*%
%TO.N,unconnected-(J1-D--PadB7)*%
X49767285Y-49800000D03*
%TO.P,NoUSB,B8,SBU2*%
%TO.N,unconnected-(J1-SBU2-PadB8)*%
X50767285Y-49800000D03*
%TO.P,NoUSB,B9,VBUS*%
%TO.N,Net-(D1-VDD)*%
X51767285Y-49800000D03*
%TO.P,NoUSB,B12,GND*%
%TO.N,GND*%
X52767285Y-49800000D03*
%TD*%
D14*
%TO.N,Net-(D1-VDD)*%
X41317285Y-38550000D03*
X44767285Y-36800000D03*
X57217285Y-58400000D03*
X60967285Y-44350000D03*
X39117285Y-51200000D03*
X53667285Y-60300000D03*
X50950000Y-36000000D03*
X44067285Y-60100000D03*
X39467285Y-56500000D03*
X59767285Y-45850000D03*
X37567285Y-52970551D03*
X54476688Y-36973312D03*
X60717285Y-53750000D03*
X47767285Y-61200000D03*
X59131447Y-40525000D03*
%TO.N,Net-(J1-D+-PadA6)*%
X48767965Y-51500680D03*
%TD*%
D15*
%TO.N,Net-(J1-D+-PadA6)*%
X48767285Y-51500000D02*
X48767285Y-49800000D01*
X48767965Y-51500680D02*
X48767285Y-51500000D01*
D16*
%TO.N,Net-(D1-VDD)*%
X54476687Y-36973313D02*
G75*
G03*
X52126905Y-36000000I-2349787J-2349787D01*
G01*
X52126905Y-36000000D02*
X50950000Y-36000000D01*
X54427740Y-36924594D02*
X54476458Y-36973312D01*
X54476458Y-36973312D02*
X54476688Y-36973312D01*
X44767285Y-36800001D02*
G75*
G03*
X41865205Y-38002082I15J-4104199D01*
G01*
X41865204Y-38002081D02*
X41317285Y-38550000D01*
X60967278Y-44350000D02*
G75*
G03*
X59560735Y-40954288I-4802278J0D01*
G01*
X59560735Y-40954288D02*
X59131447Y-40525000D01*
D17*
X56484011Y-59133274D02*
X57217285Y-58400000D01*
D16*
X37696997Y-52989694D02*
X37586428Y-52989694D01*
D17*
X51767285Y-47500000D02*
X51767285Y-49800000D01*
X46767285Y-51155026D02*
X46767285Y-49800000D01*
X50605026Y-52806066D02*
X49250000Y-52806066D01*
X39467285Y-56496882D02*
X38584462Y-55614059D01*
D16*
X59767285Y-51456498D02*
X59767285Y-45850000D01*
D17*
X46750000Y-51761092D02*
X46750000Y-51196755D01*
X49250000Y-52806066D02*
X47582842Y-52806066D01*
X47767285Y-61200000D02*
X46722919Y-61200000D01*
X51767285Y-49800000D02*
X51767285Y-51200000D01*
X51750000Y-51806066D02*
X51750000Y-51241729D01*
X51502513Y-52403554D02*
X51450000Y-52456066D01*
X46767285Y-47500000D02*
X46767285Y-49800000D01*
D15*
X51767285Y-47239949D02*
X51767285Y-47500000D01*
D17*
X39467285Y-56500000D02*
X39467285Y-56496882D01*
D16*
X37586428Y-52989694D02*
X37567285Y-52970551D01*
D17*
X43268934Y-53668934D02*
X42150000Y-52550000D01*
X42150000Y-52550000D02*
X41402076Y-51802077D01*
X48737868Y-53806066D02*
X43600000Y-53806066D01*
X49250000Y-52806066D02*
X49250000Y-53293934D01*
X39948534Y-51200000D02*
X39117285Y-51200000D01*
D15*
X46767285Y-44300000D02*
X46717285Y-44250000D01*
D17*
X46767285Y-47500000D02*
X46767285Y-44562440D01*
X41402055Y-51802098D02*
G75*
G03*
X39948534Y-51200000I-1453555J-1453502D01*
G01*
X46767268Y-44562440D02*
G75*
G03*
X46700000Y-44400000I-229668J40D01*
G01*
D16*
X59767291Y-51456498D02*
G75*
G03*
X60717285Y-53750000I3243509J-2D01*
G01*
D17*
X51767273Y-51199988D02*
G75*
G03*
X51750000Y-51241729I41727J-41712D01*
G01*
X53667285Y-60299975D02*
G75*
G03*
X56484011Y-59133274I15J3983475D01*
G01*
X49099976Y-53656042D02*
G75*
G03*
X49250000Y-53293934I-362076J362142D01*
G01*
X46767285Y-44538298D02*
G75*
G03*
X46709999Y-44400001I-195585J-2D01*
G01*
X48737868Y-53806033D02*
G75*
G03*
X49100000Y-53656066I32J512133D01*
G01*
X50605026Y-52806086D02*
G75*
G03*
X51450000Y-52456066I-26J1194986D01*
G01*
X47099974Y-52606092D02*
G75*
G03*
X47582842Y-52806066I482826J482892D01*
G01*
X46750014Y-51761092D02*
G75*
G03*
X47100000Y-52606066I1194986J-8D01*
G01*
X46767310Y-51155051D02*
G75*
G03*
X46750000Y-51196755I41690J-41749D01*
G01*
X37567269Y-52970551D02*
G75*
G03*
X38584462Y-55614059I3952831J3551D01*
G01*
X43268941Y-53668927D02*
G75*
G03*
X43600000Y-53806066I331059J331027D01*
G01*
X44067282Y-60100003D02*
G75*
G03*
X46722919Y-61200000I2655618J2655603D01*
G01*
X51502535Y-52403576D02*
G75*
G03*
X51750000Y-51806066I-597535J597476D01*
G01*
D15*
%TO.N,Net-(J1-D+-PadA6)*%
X49767285Y-46250000D02*
X49767285Y-47500000D01*
X49767285Y-47500000D02*
X49767285Y-48225000D01*
X49257285Y-45739990D02*
X49257285Y-44441729D01*
X48767285Y-49075000D02*
X48767285Y-49800000D01*
X49342285Y-48650000D02*
X49192285Y-48650000D01*
X49257272Y-44441729D02*
G75*
G03*
X49240000Y-44400000I-58972J29D01*
G01*
X49342285Y-48649985D02*
G75*
G03*
X49767285Y-48225000I15J424985D01*
G01*
X49257290Y-44417587D02*
G75*
G03*
X49250000Y-44400000I-24890J-13D01*
G01*
X49257300Y-45739990D02*
G75*
G03*
X49567285Y-46050000I310000J-10D01*
G01*
X49767300Y-46250000D02*
G75*
G03*
X49567285Y-46050000I-200000J0D01*
G01*
X49192285Y-48649985D02*
G75*
G03*
X48767285Y-49075000I15J-425015D01*
G01*
%TD*%
%TA.AperFunction,Conductor*%
%TO.N,GND*%
G36*
X49570182Y-34505557D02*
G01*
X49717688Y-34509485D01*
X49720837Y-34509611D01*
X50319360Y-34541512D01*
X50322459Y-34541718D01*
X50469544Y-34553491D01*
X50472827Y-34553798D01*
X51068670Y-34617493D01*
X51071932Y-34617886D01*
X51218171Y-34637469D01*
X51221342Y-34637937D01*
X51812994Y-34733260D01*
X51816093Y-34733802D01*
X51961169Y-34761156D01*
X51964339Y-34761798D01*
X52550090Y-34888479D01*
X52553188Y-34889192D01*
X52696558Y-34924218D01*
X52699587Y-34925001D01*
X53277882Y-35082708D01*
X53280848Y-35083559D01*
X53422196Y-35126180D01*
X53425285Y-35127157D01*
X53994265Y-35315385D01*
X53997195Y-35316398D01*
X54136036Y-35366467D01*
X54139075Y-35367609D01*
X54620902Y-35556007D01*
X54697182Y-35585833D01*
X54700240Y-35587076D01*
X54836146Y-35644433D01*
X54839099Y-35645725D01*
X55384850Y-35893367D01*
X55387676Y-35894694D01*
X55520459Y-35959263D01*
X55523307Y-35960695D01*
X56055077Y-36237017D01*
X56057946Y-36238558D01*
X56186995Y-36310041D01*
X56189799Y-36311643D01*
X56528536Y-36511241D01*
X56706099Y-36615870D01*
X56708920Y-36617584D01*
X56747734Y-36641869D01*
X56833953Y-36695816D01*
X56836654Y-36697556D01*
X57336029Y-37028829D01*
X57338739Y-37030680D01*
X57459424Y-37115451D01*
X57462100Y-37117384D01*
X57943105Y-37474742D01*
X57945727Y-37476745D01*
X58061750Y-37567835D01*
X58064236Y-37569841D01*
X58522330Y-37949632D01*
X58525563Y-37952312D01*
X58528076Y-37954452D01*
X58639042Y-38051549D01*
X58641489Y-38053748D01*
X58975118Y-38361740D01*
X59081808Y-38460231D01*
X59084188Y-38462488D01*
X59189864Y-38565387D01*
X59192155Y-38567678D01*
X59319629Y-38698592D01*
X59610218Y-38997023D01*
X59612489Y-38999418D01*
X59712489Y-39107742D01*
X59714696Y-39110197D01*
X60109315Y-39561181D01*
X60111456Y-39563695D01*
X60205578Y-39677223D01*
X60207650Y-39679792D01*
X60577652Y-40151070D01*
X60579657Y-40153694D01*
X60667621Y-40272095D01*
X60669553Y-40274770D01*
X61013959Y-40765086D01*
X61015821Y-40767813D01*
X61097350Y-40890714D01*
X61099138Y-40893489D01*
X61416963Y-41401447D01*
X61418677Y-41404268D01*
X61493540Y-41531317D01*
X61495178Y-41534184D01*
X61785541Y-42058378D01*
X61787102Y-42061287D01*
X61855082Y-42192113D01*
X61856565Y-42195062D01*
X62118597Y-42733922D01*
X62120001Y-42736909D01*
X62180963Y-42871256D01*
X62182287Y-42874281D01*
X62415261Y-43426310D01*
X62416504Y-43429368D01*
X62470204Y-43566704D01*
X62471365Y-43569794D01*
X62674659Y-44133522D01*
X62675712Y-44136568D01*
X62722031Y-44276581D01*
X62723025Y-44279728D01*
X62896015Y-44853435D01*
X62896926Y-44856608D01*
X62935735Y-44998914D01*
X62936561Y-45002111D01*
X63078760Y-45584166D01*
X63079501Y-45587382D01*
X63110675Y-45731523D01*
X63111330Y-45734759D01*
X63222359Y-46323602D01*
X63222927Y-46326854D01*
X63246385Y-46472454D01*
X63246867Y-46475720D01*
X63326398Y-47069635D01*
X63326792Y-47072912D01*
X63342462Y-47219496D01*
X63342770Y-47222783D01*
X63390584Y-47820141D01*
X63390803Y-47823436D01*
X63398649Y-47970655D01*
X63398781Y-47973953D01*
X63416697Y-48646698D01*
X63416697Y-48653300D01*
X63398781Y-49326045D01*
X63398649Y-49329343D01*
X63390803Y-49476562D01*
X63390584Y-49479857D01*
X63342770Y-50077215D01*
X63342462Y-50080502D01*
X63326792Y-50227086D01*
X63326398Y-50230363D01*
X63246867Y-50824278D01*
X63246385Y-50827544D01*
X63222927Y-50973144D01*
X63222359Y-50976396D01*
X63111330Y-51565239D01*
X63110675Y-51568475D01*
X63079501Y-51712616D01*
X63078760Y-51715832D01*
X62936561Y-52297887D01*
X62935735Y-52301084D01*
X62896926Y-52443390D01*
X62896015Y-52446563D01*
X62723025Y-53020270D01*
X62722031Y-53023417D01*
X62702429Y-53082671D01*
X62677242Y-53158810D01*
X62675738Y-53163355D01*
X62674659Y-53166476D01*
X62471365Y-53730204D01*
X62470204Y-53733294D01*
X62416504Y-53870630D01*
X62415261Y-53873688D01*
X62182287Y-54425717D01*
X62180963Y-54428742D01*
X62120001Y-54563089D01*
X62118597Y-54566076D01*
X61856565Y-55104936D01*
X61855082Y-55107885D01*
X61787102Y-55238711D01*
X61785541Y-55241620D01*
X61495178Y-55765814D01*
X61493540Y-55768681D01*
X61418677Y-55895730D01*
X61416963Y-55898551D01*
X61099138Y-56406509D01*
X61097350Y-56409284D01*
X61015821Y-56532185D01*
X61013959Y-56534912D01*
X60669553Y-57025228D01*
X60667621Y-57027903D01*
X60579657Y-57146304D01*
X60577652Y-57148928D01*
X60207650Y-57620206D01*
X60205578Y-57622775D01*
X60111456Y-57736303D01*
X60109315Y-57738817D01*
X59714696Y-58189801D01*
X59712489Y-58192256D01*
X59612489Y-58300580D01*
X59610218Y-58302975D01*
X59192176Y-58732299D01*
X59189841Y-58734634D01*
X59084203Y-58837496D01*
X59081808Y-58839767D01*
X58641498Y-59246242D01*
X58639042Y-59248449D01*
X58528076Y-59345546D01*
X58525563Y-59347686D01*
X58064278Y-59730123D01*
X58061708Y-59732197D01*
X57945727Y-59823253D01*
X57943105Y-59825256D01*
X57462100Y-60182614D01*
X57459424Y-60184547D01*
X57338739Y-60269318D01*
X57336012Y-60271180D01*
X56836691Y-60602418D01*
X56833916Y-60604206D01*
X56708920Y-60682414D01*
X56706099Y-60684128D01*
X56189829Y-60988338D01*
X56186962Y-60989976D01*
X56057965Y-61061430D01*
X56055057Y-61062991D01*
X55523342Y-61339285D01*
X55520393Y-61340768D01*
X55387770Y-61405259D01*
X55384781Y-61406663D01*
X54839134Y-61654257D01*
X54836110Y-61655581D01*
X54700240Y-61712922D01*
X54697182Y-61714165D01*
X54139099Y-61932380D01*
X54136009Y-61933541D01*
X53997288Y-61983568D01*
X53994167Y-61984646D01*
X53425303Y-62172835D01*
X53422157Y-62173830D01*
X53280961Y-62216406D01*
X53277787Y-62217317D01*
X52699679Y-62374973D01*
X52696482Y-62375799D01*
X52553238Y-62410794D01*
X52550021Y-62411535D01*
X51964371Y-62538193D01*
X51961136Y-62538848D01*
X51816167Y-62566183D01*
X51812915Y-62566751D01*
X51221390Y-62662054D01*
X51218124Y-62662536D01*
X51071940Y-62682111D01*
X51068662Y-62682506D01*
X50472824Y-62746200D01*
X50469539Y-62746507D01*
X50322557Y-62758273D01*
X50319262Y-62758492D01*
X49720915Y-62790383D01*
X49717617Y-62790515D01*
X49574155Y-62794336D01*
X49570182Y-62794442D01*
X49566882Y-62794486D01*
X48967688Y-62794486D01*
X48964387Y-62794442D01*
X48960177Y-62794329D01*
X48816951Y-62790515D01*
X48813653Y-62790383D01*
X48215306Y-62758492D01*
X48212011Y-62758273D01*
X48065029Y-62746507D01*
X48061744Y-62746200D01*
X47465906Y-62682506D01*
X47462628Y-62682111D01*
X47316444Y-62662536D01*
X47313178Y-62662054D01*
X46721653Y-62566751D01*
X46718401Y-62566183D01*
X46573432Y-62538848D01*
X46570197Y-62538193D01*
X45984547Y-62411535D01*
X45981330Y-62410794D01*
X45838086Y-62375799D01*
X45834889Y-62374973D01*
X45256781Y-62217317D01*
X45253623Y-62216410D01*
X45221684Y-62206780D01*
X45112411Y-62173830D01*
X45109265Y-62172835D01*
X44540401Y-61984646D01*
X44537280Y-61983568D01*
X44398559Y-61933541D01*
X44395469Y-61932380D01*
X43837386Y-61714165D01*
X43834328Y-61712922D01*
X43698458Y-61655581D01*
X43695434Y-61654257D01*
X43149787Y-61406663D01*
X43146829Y-61405273D01*
X43014170Y-61340765D01*
X43011226Y-61339285D01*
X42479511Y-61062991D01*
X42476603Y-61061430D01*
X42347606Y-60989976D01*
X42344739Y-60988338D01*
X41828469Y-60684128D01*
X41825648Y-60682414D01*
X41700652Y-60604206D01*
X41697877Y-60602418D01*
X41198556Y-60271180D01*
X41195829Y-60269318D01*
X41075144Y-60184547D01*
X41072468Y-60182614D01*
X40961269Y-60100000D01*
X43161825Y-60100000D01*
X43181611Y-60288256D01*
X43181612Y-60288259D01*
X43240103Y-60468277D01*
X43240106Y-60468284D01*
X43334752Y-60632216D01*
X43366778Y-60667784D01*
X43461414Y-60772888D01*
X43614550Y-60884148D01*
X43614555Y-60884151D01*
X43787476Y-60961142D01*
X43787482Y-60961144D01*
X43860857Y-60976740D01*
X43914782Y-61003041D01*
X43961901Y-61042579D01*
X43961907Y-61042583D01*
X43961908Y-61042584D01*
X44286020Y-61269530D01*
X44628678Y-61467365D01*
X44628692Y-61467371D01*
X44628695Y-61467373D01*
X44987271Y-61634579D01*
X44987274Y-61634580D01*
X44987276Y-61634581D01*
X45359082Y-61769907D01*
X45359083Y-61769907D01*
X45359088Y-61769909D01*
X45479156Y-61802080D01*
X45741269Y-61872312D01*
X46130926Y-61941018D01*
X46525089Y-61975501D01*
X46722923Y-61975500D01*
X46804431Y-61975500D01*
X47268767Y-61975500D01*
X47319203Y-61986221D01*
X47487477Y-62061142D01*
X47487482Y-62061144D01*
X47672639Y-62100500D01*
X47672640Y-62100500D01*
X47861929Y-62100500D01*
X47861931Y-62100500D01*
X48047088Y-62061144D01*
X48220015Y-61984151D01*
X48373156Y-61872888D01*
X48499818Y-61732216D01*
X48594464Y-61568284D01*
X48652959Y-61388256D01*
X48672745Y-61200000D01*
X48652959Y-61011744D01*
X48598397Y-60843823D01*
X48594466Y-60831722D01*
X48594465Y-60831721D01*
X48594464Y-60831716D01*
X48499818Y-60667784D01*
X48373156Y-60527112D01*
X48373155Y-60527111D01*
X48220019Y-60415851D01*
X48220014Y-60415848D01*
X48047092Y-60338857D01*
X48047087Y-60338855D01*
X47901286Y-60307865D01*
X47864283Y-60300000D01*
X52761825Y-60300000D01*
X52781611Y-60488256D01*
X52781612Y-60488259D01*
X52840103Y-60668277D01*
X52840106Y-60668284D01*
X52934752Y-60832216D01*
X52981512Y-60884148D01*
X53061414Y-60972888D01*
X53214550Y-61084148D01*
X53214555Y-61084151D01*
X53387477Y-61161142D01*
X53387482Y-61161144D01*
X53572639Y-61200500D01*
X53572640Y-61200500D01*
X53761929Y-61200500D01*
X53761931Y-61200500D01*
X53947088Y-61161144D01*
X54120015Y-61084151D01*
X54137393Y-61071524D01*
X54200552Y-61048223D01*
X54227066Y-61046137D01*
X54344992Y-61027460D01*
X54596418Y-60987640D01*
X54771246Y-60945668D01*
X54960046Y-60900343D01*
X55315702Y-60784786D01*
X55661195Y-60641681D01*
X55994395Y-60471910D01*
X56313248Y-60276521D01*
X56615788Y-60056717D01*
X56615797Y-60056708D01*
X56615804Y-60056704D01*
X56872428Y-59837531D01*
X56900151Y-59813854D01*
X57032366Y-59681641D01*
X57090002Y-59624007D01*
X57090004Y-59624003D01*
X57097063Y-59616944D01*
X57097069Y-59616936D01*
X57414953Y-59299052D01*
X57476274Y-59265569D01*
X57476631Y-59265491D01*
X57497088Y-59261144D01*
X57670015Y-59184151D01*
X57823156Y-59072888D01*
X57949818Y-58932216D01*
X58044464Y-58768284D01*
X58102959Y-58588256D01*
X58122745Y-58400000D01*
X58102959Y-58211744D01*
X58044464Y-58031716D01*
X57949818Y-57867784D01*
X57823156Y-57727112D01*
X57764748Y-57684676D01*
X57670019Y-57615851D01*
X57670014Y-57615848D01*
X57497092Y-57538857D01*
X57497087Y-57538855D01*
X57351286Y-57507865D01*
X57311931Y-57499500D01*
X57122639Y-57499500D01*
X57090182Y-57506398D01*
X56937482Y-57538855D01*
X56937477Y-57538857D01*
X56764555Y-57615848D01*
X56764550Y-57615851D01*
X56611414Y-57727111D01*
X56484751Y-57867785D01*
X56390106Y-58031715D01*
X56390104Y-58031719D01*
X56351779Y-58149670D01*
X56321529Y-58199032D01*
X55937825Y-58582737D01*
X55933416Y-58586935D01*
X55706904Y-58792229D01*
X55697498Y-58799948D01*
X55454427Y-58980218D01*
X55444309Y-58986979D01*
X55184727Y-59142563D01*
X55173995Y-59148299D01*
X54900424Y-59277687D01*
X54889181Y-59282344D01*
X54604240Y-59384295D01*
X54592595Y-59387827D01*
X54299035Y-59461357D01*
X54287101Y-59463731D01*
X54109643Y-59490053D01*
X54041013Y-59480674D01*
X53947092Y-59438857D01*
X53947087Y-59438855D01*
X53801286Y-59407865D01*
X53761931Y-59399500D01*
X53572639Y-59399500D01*
X53540182Y-59406398D01*
X53387482Y-59438855D01*
X53387477Y-59438857D01*
X53214555Y-59515848D01*
X53214550Y-59515851D01*
X53061414Y-59627111D01*
X52934751Y-59767785D01*
X52840106Y-59931715D01*
X52840103Y-59931722D01*
X52785427Y-60100000D01*
X52781611Y-60111744D01*
X52761825Y-60300000D01*
X47864283Y-60300000D01*
X47861931Y-60299500D01*
X47672639Y-60299500D01*
X47640182Y-60306398D01*
X47487482Y-60338855D01*
X47487477Y-60338857D01*
X47319203Y-60413779D01*
X47268767Y-60424500D01*
X46810556Y-60424500D01*
X46810536Y-60424499D01*
X46725965Y-60424499D01*
X46719881Y-60424350D01*
X46436892Y-60410449D01*
X46424782Y-60409256D01*
X46147545Y-60368133D01*
X46135610Y-60365759D01*
X45863742Y-60297661D01*
X45852097Y-60294129D01*
X45588203Y-60199707D01*
X45576960Y-60195050D01*
X45323593Y-60075216D01*
X45312861Y-60069479D01*
X45072472Y-59925395D01*
X45062354Y-59918635D01*
X44952998Y-59837531D01*
X44910878Y-59781785D01*
X44908934Y-59776250D01*
X44894464Y-59731716D01*
X44894462Y-59731712D01*
X44799819Y-59567785D01*
X44673155Y-59427111D01*
X44520019Y-59315851D01*
X44520014Y-59315848D01*
X44347092Y-59238857D01*
X44347087Y-59238855D01*
X44201286Y-59207865D01*
X44161931Y-59199500D01*
X43972639Y-59199500D01*
X43940182Y-59206398D01*
X43787482Y-59238855D01*
X43787477Y-59238857D01*
X43614555Y-59315848D01*
X43614550Y-59315851D01*
X43461414Y-59427111D01*
X43334751Y-59567785D01*
X43240106Y-59731715D01*
X43240103Y-59731722D01*
X43205724Y-59837531D01*
X43181611Y-59911744D01*
X43161825Y-60100000D01*
X40961269Y-60100000D01*
X40591463Y-59825256D01*
X40588841Y-59823253D01*
X40518190Y-59767785D01*
X40472837Y-59732178D01*
X40470315Y-59730143D01*
X40009005Y-59347686D01*
X40006492Y-59345546D01*
X39895519Y-59248443D01*
X39893070Y-59246242D01*
X39612226Y-58986979D01*
X39452750Y-58839757D01*
X39450365Y-58837496D01*
X39411804Y-58799948D01*
X39344705Y-58734612D01*
X39342414Y-58732321D01*
X38924350Y-58302975D01*
X38922079Y-58300580D01*
X38822079Y-58192256D01*
X38819872Y-58189801D01*
X38538102Y-57867785D01*
X38425241Y-57738803D01*
X38423112Y-57736303D01*
X38415491Y-57727111D01*
X38328985Y-57622769D01*
X38326918Y-57620206D01*
X37956916Y-57148928D01*
X37954911Y-57146304D01*
X37866947Y-57027903D01*
X37865015Y-57025228D01*
X37520609Y-56534912D01*
X37518747Y-56532185D01*
X37437218Y-56409284D01*
X37435430Y-56406509D01*
X37117605Y-55898551D01*
X37115891Y-55895730D01*
X37041028Y-55768681D01*
X37039390Y-55765814D01*
X36749027Y-55241620D01*
X36747466Y-55238711D01*
X36679486Y-55107885D01*
X36678003Y-55104936D01*
X36415971Y-54566076D01*
X36414567Y-54563089D01*
X36381602Y-54490441D01*
X36353593Y-54428714D01*
X36352281Y-54425717D01*
X36351087Y-54422888D01*
X36119295Y-53873659D01*
X36118064Y-53870630D01*
X36107199Y-53842842D01*
X36064342Y-53733237D01*
X36063224Y-53730261D01*
X35859875Y-53166378D01*
X35858886Y-53163518D01*
X35812502Y-53023308D01*
X35811557Y-53020315D01*
X35796552Y-52970551D01*
X36661825Y-52970551D01*
X36681611Y-53158807D01*
X36681612Y-53158810D01*
X36740106Y-53338836D01*
X36803505Y-53448646D01*
X36819698Y-53500447D01*
X36823606Y-53547804D01*
X36886403Y-53927857D01*
X36886406Y-53927871D01*
X36886407Y-53927874D01*
X36973546Y-54276126D01*
X36979918Y-54301590D01*
X37103508Y-54666443D01*
X37103510Y-54666449D01*
X37256376Y-55020059D01*
X37256379Y-55020065D01*
X37437493Y-55360055D01*
X37437496Y-55360060D01*
X37437498Y-55360063D01*
X37645673Y-55684206D01*
X37669846Y-55715851D01*
X37879518Y-55990335D01*
X37879523Y-55990341D01*
X37990298Y-56113173D01*
X37995157Y-56118901D01*
X38005300Y-56131619D01*
X38005304Y-56131623D01*
X38005305Y-56131624D01*
X38019677Y-56145996D01*
X38024071Y-56150623D01*
X38063106Y-56193914D01*
X38063108Y-56193916D01*
X38071524Y-56200021D01*
X38086391Y-56212710D01*
X38570028Y-56696348D01*
X38600278Y-56745710D01*
X38640104Y-56868280D01*
X38640106Y-56868284D01*
X38734752Y-57032216D01*
X38837478Y-57146304D01*
X38861414Y-57172888D01*
X39014550Y-57284148D01*
X39014555Y-57284151D01*
X39187477Y-57361142D01*
X39187482Y-57361144D01*
X39372639Y-57400500D01*
X39372640Y-57400500D01*
X39561929Y-57400500D01*
X39561931Y-57400500D01*
X39747088Y-57361144D01*
X39920015Y-57284151D01*
X40073156Y-57172888D01*
X40199818Y-57032216D01*
X40294464Y-56868284D01*
X40352959Y-56688256D01*
X40372745Y-56500000D01*
X40352959Y-56311744D01*
X40294464Y-56131716D01*
X40199818Y-55967784D01*
X40073156Y-55827112D01*
X40073155Y-55827111D01*
X39920019Y-55715851D01*
X39920014Y-55715848D01*
X39747092Y-55638857D01*
X39747088Y-55638856D01*
X39730811Y-55635396D01*
X39669329Y-55602203D01*
X39668912Y-55601787D01*
X39157928Y-55090803D01*
X39149813Y-55081856D01*
X38979259Y-54874341D01*
X38972462Y-54865254D01*
X38837513Y-54666443D01*
X38815422Y-54633898D01*
X38809503Y-54624255D01*
X38674277Y-54379488D01*
X38669259Y-54369332D01*
X38639564Y-54301590D01*
X38556999Y-54113238D01*
X38552931Y-54102666D01*
X38464570Y-53837381D01*
X38461479Y-53826455D01*
X38397758Y-53554205D01*
X38395684Y-53543069D01*
X38378415Y-53419004D01*
X38388669Y-53349891D01*
X38393845Y-53339907D01*
X38394464Y-53338835D01*
X38452959Y-53158807D01*
X38472745Y-52970551D01*
X38452959Y-52782295D01*
X38394464Y-52602267D01*
X38299818Y-52438335D01*
X38173156Y-52297663D01*
X38148687Y-52279885D01*
X38020019Y-52186402D01*
X38020014Y-52186399D01*
X37847092Y-52109408D01*
X37847087Y-52109406D01*
X37701286Y-52078416D01*
X37661931Y-52070051D01*
X37472639Y-52070051D01*
X37440182Y-52076949D01*
X37287482Y-52109406D01*
X37287477Y-52109408D01*
X37114555Y-52186399D01*
X37114550Y-52186402D01*
X36961414Y-52297662D01*
X36834751Y-52438336D01*
X36740106Y-52602266D01*
X36740103Y-52602273D01*
X36681612Y-52782291D01*
X36681611Y-52782295D01*
X36661825Y-52970551D01*
X35796552Y-52970551D01*
X35638553Y-52446563D01*
X35637642Y-52443390D01*
X35629934Y-52415125D01*
X35598822Y-52301041D01*
X35598018Y-52297932D01*
X35455805Y-51715820D01*
X35455067Y-51712616D01*
X35423881Y-51568417D01*
X35423250Y-51565298D01*
X35354371Y-51200000D01*
X38211825Y-51200000D01*
X38231611Y-51388256D01*
X38231612Y-51388259D01*
X38290103Y-51568277D01*
X38290106Y-51568284D01*
X38384752Y-51732216D01*
X38473497Y-51830777D01*
X38511414Y-51872888D01*
X38664550Y-51984148D01*
X38664555Y-51984151D01*
X38837477Y-52061142D01*
X38837482Y-52061144D01*
X39022639Y-52100500D01*
X39022640Y-52100500D01*
X39211929Y-52100500D01*
X39211931Y-52100500D01*
X39397088Y-52061144D01*
X39453829Y-52035881D01*
X39565367Y-51986221D01*
X39615803Y-51975500D01*
X39943643Y-51975500D01*
X39953373Y-51975881D01*
X40139043Y-51990498D01*
X40158260Y-51993542D01*
X40230479Y-52010881D01*
X40334609Y-52035881D01*
X40353105Y-52041891D01*
X40520659Y-52111299D01*
X40537993Y-52120132D01*
X40692621Y-52214892D01*
X40708362Y-52226329D01*
X40850263Y-52347527D01*
X40857411Y-52354135D01*
X40865100Y-52361824D01*
X40911339Y-52408065D01*
X40918399Y-52415125D01*
X40918419Y-52415142D01*
X41635531Y-53132255D01*
X41635561Y-53132283D01*
X42707728Y-54204450D01*
X42707730Y-54204454D01*
X42707731Y-54204454D01*
X42778920Y-54275648D01*
X42779140Y-54275855D01*
X42789759Y-54286475D01*
X42789761Y-54286477D01*
X42789764Y-54286479D01*
X42789765Y-54286480D01*
X42948141Y-54401557D01*
X43122570Y-54490439D01*
X43122572Y-54490439D01*
X43122573Y-54490440D01*
X43122575Y-54490441D01*
X43308750Y-54550937D01*
X43308752Y-54550937D01*
X43308757Y-54550939D01*
X43502115Y-54581566D01*
X43502116Y-54581566D01*
X48784392Y-54581566D01*
X48785440Y-54581536D01*
X48839155Y-54581540D01*
X49039332Y-54549849D01*
X49232088Y-54487235D01*
X49412676Y-54395239D01*
X49576650Y-54276126D01*
X49648311Y-54204477D01*
X49705952Y-54146848D01*
X49705953Y-54146845D01*
X49710397Y-54142403D01*
X49710824Y-54141928D01*
X49719948Y-54132806D01*
X49719948Y-54132805D01*
X49719952Y-54132802D01*
X49839098Y-53968842D01*
X49931127Y-53788261D01*
X49970460Y-53667239D01*
X50009902Y-53609566D01*
X50074263Y-53582373D01*
X50088388Y-53581566D01*
X50516734Y-53581566D01*
X50516770Y-53581567D01*
X50523531Y-53581567D01*
X50523535Y-53581568D01*
X50553659Y-53581567D01*
X50553727Y-53581586D01*
X50605043Y-53581585D01*
X50605043Y-53581586D01*
X50715700Y-53581584D01*
X50715704Y-53581584D01*
X50736169Y-53579277D01*
X50935630Y-53556799D01*
X50935639Y-53556797D01*
X50935640Y-53556797D01*
X51043515Y-53532172D01*
X51151400Y-53507546D01*
X51360299Y-53434445D01*
X51559699Y-53338413D01*
X51747093Y-53220660D01*
X51920125Y-53082666D01*
X51987867Y-53014919D01*
X51987932Y-53014863D01*
X52014560Y-52988233D01*
X52014656Y-52988180D01*
X52050923Y-52951910D01*
X52126023Y-52876803D01*
X52255330Y-52708270D01*
X52361533Y-52524300D01*
X52442816Y-52328043D01*
X52450039Y-52301084D01*
X52497783Y-52122866D01*
X52497783Y-52122864D01*
X52497786Y-52122854D01*
X52525504Y-51912247D01*
X52525500Y-51806035D01*
X52525500Y-51795615D01*
X52525500Y-51399134D01*
X52527587Y-51380607D01*
X52527346Y-51380580D01*
X52532347Y-51336187D01*
X52535659Y-51306790D01*
X52536397Y-51301339D01*
X52545996Y-51240670D01*
X52542956Y-51182861D01*
X52542785Y-51176350D01*
X52542785Y-48650000D01*
X54212152Y-48650000D01*
X54230587Y-48778225D01*
X54262053Y-48847124D01*
X54284403Y-48896063D01*
X54369236Y-48993967D01*
X54369237Y-48993968D01*
X54478210Y-49064001D01*
X54478213Y-49064002D01*
X54478216Y-49064004D01*
X54493808Y-49068582D01*
X54500966Y-49071032D01*
X54501948Y-49071256D01*
X54501953Y-49071259D01*
X54502644Y-49071416D01*
X54509932Y-49073316D01*
X54602513Y-49100500D01*
X54618471Y-49100500D01*
X54627739Y-49100847D01*
X54633465Y-49101276D01*
X54633466Y-49101275D01*
X54633467Y-49101276D01*
X54639192Y-49100846D01*
X54648460Y-49100500D01*
X54732059Y-49100500D01*
X54732059Y-49100499D01*
X54743820Y-49097045D01*
X54749703Y-49095319D01*
X54759001Y-49093625D01*
X54758919Y-49093264D01*
X54767980Y-49091195D01*
X54767985Y-49091195D01*
X54775473Y-49088255D01*
X54785811Y-49084716D01*
X54856354Y-49064004D01*
X54875981Y-49051389D01*
X54886075Y-49046231D01*
X54893551Y-49041914D01*
X54893551Y-49041913D01*
X54893556Y-49041912D01*
X54900353Y-49036491D01*
X54910594Y-49029145D01*
X54965334Y-48993967D01*
X54983931Y-48972503D01*
X54997208Y-48959760D01*
X54999016Y-48957809D01*
X54999021Y-48957806D01*
X55003671Y-48950984D01*
X55012396Y-48939653D01*
X55050167Y-48896063D01*
X55064145Y-48865454D01*
X55074482Y-48847124D01*
X55075011Y-48846350D01*
X55077105Y-48839561D01*
X55082792Y-48824624D01*
X55103982Y-48778226D01*
X55109547Y-48739519D01*
X55113796Y-48720611D01*
X55114457Y-48718469D01*
X55114772Y-48717448D01*
X55115245Y-48704737D01*
X55116419Y-48691720D01*
X55122418Y-48650000D01*
X55116419Y-48608282D01*
X55115245Y-48595255D01*
X55114772Y-48582553D01*
X55113795Y-48579385D01*
X55109546Y-48560475D01*
X55103983Y-48521779D01*
X55103982Y-48521777D01*
X55103982Y-48521774D01*
X55082794Y-48475380D01*
X55077099Y-48460420D01*
X55075011Y-48453650D01*
X55074474Y-48452863D01*
X55064142Y-48434539D01*
X55050167Y-48403937D01*
X55012399Y-48360350D01*
X55003663Y-48349003D01*
X54999023Y-48342196D01*
X54997213Y-48340246D01*
X54983933Y-48327497D01*
X54965334Y-48306033D01*
X54910613Y-48270866D01*
X54900340Y-48263498D01*
X54893555Y-48258087D01*
X54886095Y-48253780D01*
X54875979Y-48248608D01*
X54856356Y-48235996D01*
X54856351Y-48235994D01*
X54785827Y-48215287D01*
X54775466Y-48211741D01*
X54767982Y-48208804D01*
X54758930Y-48206738D01*
X54759011Y-48206379D01*
X54749717Y-48204685D01*
X54732057Y-48199500D01*
X54648460Y-48199500D01*
X54639192Y-48199153D01*
X54638539Y-48199104D01*
X54633465Y-48198723D01*
X54627739Y-48199153D01*
X54618471Y-48199500D01*
X54602513Y-48199500D01*
X54509932Y-48226682D01*
X54502619Y-48228589D01*
X54500981Y-48228963D01*
X54493821Y-48231413D01*
X54478220Y-48235994D01*
X54478216Y-48235996D01*
X54369235Y-48306033D01*
X54284403Y-48403937D01*
X54284402Y-48403938D01*
X54230587Y-48521774D01*
X54212152Y-48650000D01*
X52542785Y-48650000D01*
X52542785Y-47450335D01*
X52542784Y-47450313D01*
X52542784Y-46652129D01*
X52542783Y-46652123D01*
X52536376Y-46592516D01*
X52486082Y-46457671D01*
X52486078Y-46457664D01*
X52399832Y-46342455D01*
X52399829Y-46342452D01*
X52284620Y-46256206D01*
X52284613Y-46256202D01*
X52149771Y-46205910D01*
X52149770Y-46205909D01*
X52149768Y-46205909D01*
X52090158Y-46199500D01*
X52090148Y-46199500D01*
X51444414Y-46199500D01*
X51444408Y-46199501D01*
X51384801Y-46205908D01*
X51310617Y-46233577D01*
X51240925Y-46238561D01*
X51223953Y-46233577D01*
X51149773Y-46205910D01*
X51149769Y-46205909D01*
X51149768Y-46205909D01*
X51090158Y-46199500D01*
X51090149Y-46199500D01*
X50500697Y-46199500D01*
X50433658Y-46179815D01*
X50387903Y-46127011D01*
X50380403Y-46100629D01*
X50379887Y-46100762D01*
X50378058Y-46093634D01*
X50376558Y-46087047D01*
X50361073Y-46009199D01*
X50298839Y-45858962D01*
X50229377Y-45755011D01*
X50208491Y-45723755D01*
X50208488Y-45723752D01*
X50104771Y-45620042D01*
X50071284Y-45558721D01*
X50076266Y-45489029D01*
X50108555Y-45443306D01*
X50107573Y-45442324D01*
X50233327Y-45316569D01*
X50278495Y-45271401D01*
X50414035Y-45077830D01*
X50513903Y-44863663D01*
X50575063Y-44635408D01*
X50595659Y-44400000D01*
X50575063Y-44164592D01*
X50513903Y-43936337D01*
X50414035Y-43722171D01*
X50396299Y-43696840D01*
X50278494Y-43528597D01*
X50111402Y-43361506D01*
X50111395Y-43361501D01*
X49917834Y-43225967D01*
X49917830Y-43225965D01*
X49917828Y-43225964D01*
X49703663Y-43126097D01*
X49703659Y-43126096D01*
X49703655Y-43126094D01*
X49475413Y-43064938D01*
X49475403Y-43064936D01*
X49240001Y-43044341D01*
X49239999Y-43044341D01*
X49004596Y-43064936D01*
X49004586Y-43064938D01*
X48776344Y-43126094D01*
X48776335Y-43126098D01*
X48562171Y-43225964D01*
X48562169Y-43225965D01*
X48368600Y-43361503D01*
X48246673Y-43483430D01*
X48185350Y-43516914D01*
X48115658Y-43511930D01*
X48059725Y-43470058D01*
X48042810Y-43439081D01*
X47993797Y-43307671D01*
X47993793Y-43307664D01*
X47907547Y-43192455D01*
X47907544Y-43192452D01*
X47792335Y-43106206D01*
X47792328Y-43106202D01*
X47657482Y-43055908D01*
X47657483Y-43055908D01*
X47597883Y-43049501D01*
X47597881Y-43049500D01*
X47597873Y-43049500D01*
X47597864Y-43049500D01*
X45802129Y-43049500D01*
X45802123Y-43049501D01*
X45742516Y-43055908D01*
X45607671Y-43106202D01*
X45607664Y-43106206D01*
X45492455Y-43192452D01*
X45492452Y-43192455D01*
X45406206Y-43307664D01*
X45406202Y-43307671D01*
X45355908Y-43442517D01*
X45349501Y-43502116D01*
X45349500Y-43502135D01*
X45349500Y-45297870D01*
X45349501Y-45297876D01*
X45355908Y-45357483D01*
X45406202Y-45492328D01*
X45406206Y-45492335D01*
X45492452Y-45607544D01*
X45492455Y-45607547D01*
X45607664Y-45693793D01*
X45607671Y-45693797D01*
X45652618Y-45710561D01*
X45742517Y-45744091D01*
X45802127Y-45750500D01*
X45867785Y-45750499D01*
X45934823Y-45770183D01*
X45980579Y-45822986D01*
X45991785Y-45874499D01*
X45991785Y-50997620D01*
X45989696Y-51016152D01*
X45989938Y-51016180D01*
X45983456Y-51073704D01*
X45982695Y-51079306D01*
X45974550Y-51130488D01*
X45974549Y-51130496D01*
X45974534Y-51149294D01*
X45974500Y-51150556D01*
X45974500Y-51196258D01*
X45974433Y-51283460D01*
X45974500Y-51284733D01*
X45974500Y-51807750D01*
X45974513Y-51808230D01*
X45974513Y-51871751D01*
X45999289Y-52091662D01*
X45999290Y-52091666D01*
X46048533Y-52307428D01*
X46048535Y-52307434D01*
X46048536Y-52307438D01*
X46067566Y-52361824D01*
X46121629Y-52516334D01*
X46217646Y-52715726D01*
X46217656Y-52715745D01*
X46296103Y-52840596D01*
X46315102Y-52907833D01*
X46294733Y-52974667D01*
X46241465Y-53019881D01*
X46191108Y-53030566D01*
X43778650Y-53030566D01*
X43711611Y-53010881D01*
X43690969Y-52994247D01*
X42667565Y-51970843D01*
X41917525Y-51220802D01*
X41916766Y-51220085D01*
X41852081Y-51155398D01*
X41849406Y-51153203D01*
X41755979Y-51076526D01*
X41637059Y-50978927D01*
X41405774Y-50824382D01*
X41405771Y-50824380D01*
X41405769Y-50824379D01*
X41160463Y-50693254D01*
X41160456Y-50693251D01*
X40903468Y-50586798D01*
X40637279Y-50506045D01*
X40364463Y-50451773D01*
X40364461Y-50451772D01*
X40364457Y-50451772D01*
X40087630Y-50424503D01*
X40087626Y-50424502D01*
X40087634Y-50424502D01*
X39992097Y-50424500D01*
X39992094Y-50424500D01*
X39992092Y-50424500D01*
X39948547Y-50424500D01*
X39867038Y-50424498D01*
X39867037Y-50424498D01*
X39860273Y-50424498D01*
X39860237Y-50424500D01*
X39615803Y-50424500D01*
X39565367Y-50413779D01*
X39397092Y-50338857D01*
X39397087Y-50338855D01*
X39251286Y-50307865D01*
X39211931Y-50299500D01*
X39022639Y-50299500D01*
X38990182Y-50306398D01*
X38837482Y-50338855D01*
X38837477Y-50338857D01*
X38664555Y-50415848D01*
X38664550Y-50415851D01*
X38511414Y-50527111D01*
X38384751Y-50667785D01*
X38290106Y-50831715D01*
X38290103Y-50831722D01*
X38242274Y-50978927D01*
X38231611Y-51011744D01*
X38211825Y-51200000D01*
X35354371Y-51200000D01*
X35312200Y-50976346D01*
X35311650Y-50973197D01*
X35288177Y-50827506D01*
X35287706Y-50824316D01*
X35208163Y-50230309D01*
X35207782Y-50227141D01*
X35192099Y-50080428D01*
X35191804Y-50077287D01*
X35143976Y-49479751D01*
X35143771Y-49476665D01*
X35135916Y-49329279D01*
X35135789Y-49326114D01*
X35119836Y-48727018D01*
X35119792Y-48723717D01*
X35119792Y-48650000D01*
X35861944Y-48650000D01*
X35881260Y-48846129D01*
X35938473Y-49034733D01*
X36031371Y-49208532D01*
X36031375Y-49208539D01*
X36156401Y-49360883D01*
X36308745Y-49485909D01*
X36308752Y-49485913D01*
X36443378Y-49557872D01*
X36482558Y-49578814D01*
X36511442Y-49587575D01*
X36518480Y-49589946D01*
X36519076Y-49590166D01*
X36519084Y-49590170D01*
X36522855Y-49591146D01*
X36527707Y-49592509D01*
X36671153Y-49636024D01*
X36701947Y-49639056D01*
X36709196Y-49640344D01*
X36709240Y-49640063D01*
X36715463Y-49641016D01*
X36715467Y-49641017D01*
X36725708Y-49641536D01*
X36731514Y-49641968D01*
X36867285Y-49655341D01*
X36902488Y-49651873D01*
X36911785Y-49651653D01*
X36911783Y-49651610D01*
X36918053Y-49651291D01*
X36918065Y-49651292D01*
X36932211Y-49649124D01*
X36938767Y-49648300D01*
X37063417Y-49636024D01*
X37101576Y-49624448D01*
X37118112Y-49620694D01*
X37118581Y-49620573D01*
X37118584Y-49620573D01*
X37134241Y-49614774D01*
X37141291Y-49612400D01*
X37252012Y-49578814D01*
X37291205Y-49557864D01*
X37306586Y-49550945D01*
X37308815Y-49550120D01*
X37324127Y-49540575D01*
X37331203Y-49536485D01*
X37425818Y-49485913D01*
X37425819Y-49485912D01*
X37425818Y-49485912D01*
X37425823Y-49485910D01*
X37463798Y-49454744D01*
X37476844Y-49445385D01*
X37480969Y-49442815D01*
X37494356Y-49430088D01*
X37501090Y-49424139D01*
X37578168Y-49360883D01*
X37612367Y-49319211D01*
X37622765Y-49308027D01*
X37628000Y-49303052D01*
X37628002Y-49303048D01*
X37628004Y-49303047D01*
X37632903Y-49296007D01*
X37638439Y-49288053D01*
X37644335Y-49280258D01*
X37703195Y-49208538D01*
X37730926Y-49156656D01*
X37738488Y-49144308D01*
X37743886Y-49136553D01*
X37750819Y-49120396D01*
X37755395Y-49110878D01*
X37796099Y-49034727D01*
X37814647Y-48973580D01*
X37819345Y-48960713D01*
X37823885Y-48950135D01*
X37827209Y-48933957D01*
X37829990Y-48923002D01*
X37853309Y-48846132D01*
X37860083Y-48777345D01*
X37862022Y-48764556D01*
X37864720Y-48751429D01*
X37865326Y-48727434D01*
X37865878Y-48718510D01*
X37872626Y-48650000D01*
X43412152Y-48650000D01*
X43430587Y-48778225D01*
X43462053Y-48847124D01*
X43484403Y-48896063D01*
X43569236Y-48993967D01*
X43569237Y-48993968D01*
X43678210Y-49064001D01*
X43678213Y-49064002D01*
X43678216Y-49064004D01*
X43693808Y-49068582D01*
X43700966Y-49071032D01*
X43701948Y-49071256D01*
X43701953Y-49071259D01*
X43702644Y-49071416D01*
X43709932Y-49073316D01*
X43802513Y-49100500D01*
X43818471Y-49100500D01*
X43827739Y-49100847D01*
X43833465Y-49101276D01*
X43833466Y-49101275D01*
X43833467Y-49101276D01*
X43839192Y-49100846D01*
X43848460Y-49100500D01*
X43932059Y-49100500D01*
X43932059Y-49100499D01*
X43943820Y-49097045D01*
X43949703Y-49095319D01*
X43959001Y-49093625D01*
X43958919Y-49093264D01*
X43967980Y-49091195D01*
X43967985Y-49091195D01*
X43975473Y-49088255D01*
X43985811Y-49084716D01*
X44056354Y-49064004D01*
X44075981Y-49051389D01*
X44086075Y-49046231D01*
X44093551Y-49041914D01*
X44093551Y-49041913D01*
X44093556Y-49041912D01*
X44100353Y-49036491D01*
X44110594Y-49029145D01*
X44165334Y-48993967D01*
X44183931Y-48972503D01*
X44197208Y-48959760D01*
X44199016Y-48957809D01*
X44199021Y-48957806D01*
X44203671Y-48950984D01*
X44212396Y-48939653D01*
X44250167Y-48896063D01*
X44264145Y-48865454D01*
X44274482Y-48847124D01*
X44275011Y-48846350D01*
X44277105Y-48839561D01*
X44282792Y-48824624D01*
X44303982Y-48778226D01*
X44309547Y-48739519D01*
X44313796Y-48720611D01*
X44314457Y-48718469D01*
X44314772Y-48717448D01*
X44315245Y-48704737D01*
X44316419Y-48691720D01*
X44322418Y-48650000D01*
X44316419Y-48608282D01*
X44315245Y-48595255D01*
X44314772Y-48582553D01*
X44313795Y-48579385D01*
X44309546Y-48560475D01*
X44303983Y-48521779D01*
X44303982Y-48521777D01*
X44303982Y-48521774D01*
X44282794Y-48475380D01*
X44277099Y-48460420D01*
X44275011Y-48453650D01*
X44274474Y-48452863D01*
X44264142Y-48434539D01*
X44250167Y-48403937D01*
X44212399Y-48360350D01*
X44203663Y-48349003D01*
X44199023Y-48342196D01*
X44197213Y-48340246D01*
X44183933Y-48327497D01*
X44165334Y-48306033D01*
X44110613Y-48270866D01*
X44100340Y-48263498D01*
X44093555Y-48258087D01*
X44086095Y-48253780D01*
X44075979Y-48248608D01*
X44056356Y-48235996D01*
X44056351Y-48235994D01*
X43985827Y-48215287D01*
X43975466Y-48211741D01*
X43967982Y-48208804D01*
X43958930Y-48206738D01*
X43959011Y-48206379D01*
X43949717Y-48204685D01*
X43932057Y-48199500D01*
X43848460Y-48199500D01*
X43839192Y-48199153D01*
X43838539Y-48199104D01*
X43833465Y-48198723D01*
X43827739Y-48199153D01*
X43818471Y-48199500D01*
X43802513Y-48199500D01*
X43709932Y-48226682D01*
X43702619Y-48228589D01*
X43700981Y-48228963D01*
X43693821Y-48231413D01*
X43678220Y-48235994D01*
X43678216Y-48235996D01*
X43569235Y-48306033D01*
X43484403Y-48403937D01*
X43484402Y-48403938D01*
X43430587Y-48521774D01*
X43412152Y-48650000D01*
X37872626Y-48650000D01*
X37865878Y-48581493D01*
X37865326Y-48572561D01*
X37864720Y-48548571D01*
X37862020Y-48535435D01*
X37860084Y-48522657D01*
X37853309Y-48453868D01*
X37829999Y-48377027D01*
X37827205Y-48366022D01*
X37823885Y-48349865D01*
X37819347Y-48339290D01*
X37814639Y-48326391D01*
X37796099Y-48265273D01*
X37755399Y-48189130D01*
X37750813Y-48179589D01*
X37743887Y-48163450D01*
X37743886Y-48163447D01*
X37738498Y-48155706D01*
X37730921Y-48143334D01*
X37703195Y-48091462D01*
X37703193Y-48091460D01*
X37703193Y-48091459D01*
X37644354Y-48019765D01*
X37638428Y-48011931D01*
X37628001Y-47996949D01*
X37622771Y-47991977D01*
X37612353Y-47980771D01*
X37578168Y-47939116D01*
X37501115Y-47875880D01*
X37494352Y-47869905D01*
X37480971Y-47857187D01*
X37480969Y-47857185D01*
X37476845Y-47854614D01*
X37463778Y-47845239D01*
X37425825Y-47814091D01*
X37425817Y-47814086D01*
X37331242Y-47763535D01*
X37324106Y-47759410D01*
X37308822Y-47749884D01*
X37308817Y-47749881D01*
X37308815Y-47749880D01*
X37308813Y-47749879D01*
X37308807Y-47749876D01*
X37306578Y-47749051D01*
X37291197Y-47742130D01*
X37252013Y-47721186D01*
X37141321Y-47687607D01*
X37134258Y-47685231D01*
X37118585Y-47679427D01*
X37118139Y-47679312D01*
X37101561Y-47675547D01*
X37063415Y-47663975D01*
X36938793Y-47651701D01*
X36932178Y-47650869D01*
X36918071Y-47648708D01*
X36911789Y-47648390D01*
X36911791Y-47648347D01*
X36902490Y-47648125D01*
X36867288Y-47644659D01*
X36867284Y-47644659D01*
X36731542Y-47658027D01*
X36725677Y-47658464D01*
X36715472Y-47658982D01*
X36709259Y-47659934D01*
X36709216Y-47659654D01*
X36701964Y-47660941D01*
X36671154Y-47663975D01*
X36527731Y-47707482D01*
X36522830Y-47708859D01*
X36519080Y-47709830D01*
X36518460Y-47710060D01*
X36511408Y-47712433D01*
X36482555Y-47721186D01*
X36308752Y-47814086D01*
X36308745Y-47814090D01*
X36156401Y-47939116D01*
X36031375Y-48091460D01*
X36031371Y-48091467D01*
X35938473Y-48265266D01*
X35881260Y-48453870D01*
X35861944Y-48650000D01*
X35119792Y-48650000D01*
X35119792Y-48576281D01*
X35119836Y-48572980D01*
X35122833Y-48460420D01*
X35135789Y-47973879D01*
X35135916Y-47970726D01*
X35143772Y-47823324D01*
X35143976Y-47820257D01*
X35191806Y-47222697D01*
X35192097Y-47219585D01*
X35207784Y-47072840D01*
X35208161Y-47069708D01*
X35287709Y-46475661D01*
X35288174Y-46472514D01*
X35311654Y-46326776D01*
X35312195Y-46323679D01*
X35423255Y-45734671D01*
X35423875Y-45731611D01*
X35455076Y-45587338D01*
X35455796Y-45584213D01*
X35598027Y-45002030D01*
X35598812Y-44998994D01*
X35637651Y-44856574D01*
X35638542Y-44853471D01*
X35811571Y-44279639D01*
X35812488Y-44276733D01*
X35858901Y-44136434D01*
X35859857Y-44133670D01*
X36063243Y-43569687D01*
X36064323Y-43566811D01*
X36118097Y-43429285D01*
X36119272Y-43426394D01*
X36352318Y-42874195D01*
X36353568Y-42871339D01*
X36414596Y-42736846D01*
X36415940Y-42733987D01*
X36678014Y-42195039D01*
X36679486Y-42192113D01*
X36747498Y-42061226D01*
X36748993Y-42058440D01*
X37039425Y-41534122D01*
X37040993Y-41531377D01*
X37115928Y-41404206D01*
X37117565Y-41401512D01*
X37435467Y-40893430D01*
X37437180Y-40890772D01*
X37518800Y-40767733D01*
X37520551Y-40765169D01*
X37689250Y-40525000D01*
X58225987Y-40525000D01*
X58245773Y-40713256D01*
X58245774Y-40713259D01*
X58304265Y-40893277D01*
X58304268Y-40893284D01*
X58398914Y-41057216D01*
X58525576Y-41197888D01*
X58678712Y-41309148D01*
X58678717Y-41309151D01*
X58851638Y-41386142D01*
X58851640Y-41386142D01*
X58851644Y-41386144D01*
X58916776Y-41399987D01*
X58978256Y-41433178D01*
X58978675Y-41433596D01*
X59028124Y-41483045D01*
X59031866Y-41486953D01*
X59265195Y-41741589D01*
X59272148Y-41749876D01*
X59480729Y-42021705D01*
X59486934Y-42030566D01*
X59671041Y-42319558D01*
X59676449Y-42328926D01*
X59834659Y-42632846D01*
X59839231Y-42642650D01*
X59970356Y-42959214D01*
X59974056Y-42969380D01*
X60077089Y-43296161D01*
X60079888Y-43306608D01*
X60137574Y-43566811D01*
X60154052Y-43641136D01*
X60155930Y-43651790D01*
X60176700Y-43809561D01*
X60182867Y-43856401D01*
X60172101Y-43925436D01*
X60167316Y-43934584D01*
X60140106Y-43981714D01*
X60089791Y-44136568D01*
X60081611Y-44161744D01*
X60061825Y-44350000D01*
X60081611Y-44538256D01*
X60081612Y-44538259D01*
X60140103Y-44718277D01*
X60140106Y-44718284D01*
X60192355Y-44808782D01*
X60208828Y-44876683D01*
X60185975Y-44942709D01*
X60131054Y-44985900D01*
X60061500Y-44992541D01*
X60047735Y-44988993D01*
X59915628Y-44960913D01*
X59861931Y-44949500D01*
X59672639Y-44949500D01*
X59640182Y-44956398D01*
X59487482Y-44988855D01*
X59487477Y-44988857D01*
X59314555Y-45065848D01*
X59314550Y-45065851D01*
X59161414Y-45177111D01*
X59034751Y-45317785D01*
X58940106Y-45481715D01*
X58940103Y-45481722D01*
X58882902Y-45657770D01*
X58881611Y-45661744D01*
X58861825Y-45850000D01*
X58881611Y-46038256D01*
X58881612Y-46038259D01*
X58940103Y-46218277D01*
X58940106Y-46218284D01*
X59000172Y-46322321D01*
X59016785Y-46384321D01*
X59016785Y-51503735D01*
X59016791Y-51503940D01*
X59016791Y-51630883D01*
X59047187Y-51978317D01*
X59047187Y-51978321D01*
X59105218Y-52307428D01*
X59107749Y-52321780D01*
X59114648Y-52347527D01*
X59198012Y-52658653D01*
X59317295Y-52986385D01*
X59426540Y-53220660D01*
X59464692Y-53302477D01*
X59625823Y-53581566D01*
X59639072Y-53604515D01*
X59805949Y-53842842D01*
X59827694Y-53901000D01*
X59831610Y-53938250D01*
X59831612Y-53938260D01*
X59890103Y-54118277D01*
X59890106Y-54118284D01*
X59984752Y-54282216D01*
X60111414Y-54422888D01*
X60264550Y-54534148D01*
X60264555Y-54534151D01*
X60437477Y-54611142D01*
X60437482Y-54611144D01*
X60622639Y-54650500D01*
X60622640Y-54650500D01*
X60811929Y-54650500D01*
X60811931Y-54650500D01*
X60997088Y-54611144D01*
X61170015Y-54534151D01*
X61323156Y-54422888D01*
X61449818Y-54282216D01*
X61544464Y-54118284D01*
X61602959Y-53938256D01*
X61622745Y-53750000D01*
X61602959Y-53561744D01*
X61544464Y-53381716D01*
X61449818Y-53217784D01*
X61323156Y-53077112D01*
X61259091Y-53030566D01*
X61170019Y-52965851D01*
X61170014Y-52965848D01*
X60996007Y-52888374D01*
X60945313Y-52846850D01*
X60903935Y-52788533D01*
X60896537Y-52776759D01*
X60800102Y-52602273D01*
X60768037Y-52544257D01*
X60762008Y-52531735D01*
X60660354Y-52286318D01*
X60655761Y-52273194D01*
X60582219Y-52017923D01*
X60579128Y-52004377D01*
X60534630Y-51742481D01*
X60533076Y-51728682D01*
X60520272Y-51500680D01*
X60517980Y-51459858D01*
X60517785Y-51452906D01*
X60517785Y-49116888D01*
X60537470Y-49049849D01*
X60590274Y-49004094D01*
X60659432Y-48994150D01*
X60722988Y-49023175D01*
X60751143Y-49058435D01*
X60831371Y-49208532D01*
X60831375Y-49208539D01*
X60956401Y-49360883D01*
X61108745Y-49485909D01*
X61108752Y-49485913D01*
X61243378Y-49557872D01*
X61282558Y-49578814D01*
X61311442Y-49587575D01*
X61318480Y-49589946D01*
X61319076Y-49590166D01*
X61319084Y-49590170D01*
X61322855Y-49591146D01*
X61327707Y-49592509D01*
X61471153Y-49636024D01*
X61501947Y-49639056D01*
X61509196Y-49640344D01*
X61509240Y-49640063D01*
X61515463Y-49641016D01*
X61515467Y-49641017D01*
X61525708Y-49641536D01*
X61531514Y-49641968D01*
X61667285Y-49655341D01*
X61702488Y-49651873D01*
X61711785Y-49651653D01*
X61711783Y-49651610D01*
X61718053Y-49651291D01*
X61718065Y-49651292D01*
X61732211Y-49649124D01*
X61738767Y-49648300D01*
X61863417Y-49636024D01*
X61901576Y-49624448D01*
X61918112Y-49620694D01*
X61918581Y-49620573D01*
X61918584Y-49620573D01*
X61934241Y-49614774D01*
X61941291Y-49612400D01*
X62052012Y-49578814D01*
X62091205Y-49557864D01*
X62106586Y-49550945D01*
X62108815Y-49550120D01*
X62124127Y-49540575D01*
X62131203Y-49536485D01*
X62225818Y-49485913D01*
X62225819Y-49485912D01*
X62225818Y-49485912D01*
X62225823Y-49485910D01*
X62263798Y-49454744D01*
X62276844Y-49445385D01*
X62280969Y-49442815D01*
X62294356Y-49430088D01*
X62301090Y-49424139D01*
X62378168Y-49360883D01*
X62412367Y-49319211D01*
X62422765Y-49308027D01*
X62428000Y-49303052D01*
X62428002Y-49303048D01*
X62428004Y-49303047D01*
X62432903Y-49296007D01*
X62438439Y-49288053D01*
X62444335Y-49280258D01*
X62503195Y-49208538D01*
X62530926Y-49156656D01*
X62538488Y-49144308D01*
X62543886Y-49136553D01*
X62550819Y-49120396D01*
X62555395Y-49110878D01*
X62596099Y-49034727D01*
X62614647Y-48973580D01*
X62619345Y-48960713D01*
X62623885Y-48950135D01*
X62627209Y-48933957D01*
X62629990Y-48923002D01*
X62653309Y-48846132D01*
X62660083Y-48777345D01*
X62662022Y-48764556D01*
X62664720Y-48751429D01*
X62665326Y-48727434D01*
X62665878Y-48718510D01*
X62672626Y-48650000D01*
X62665878Y-48581493D01*
X62665326Y-48572561D01*
X62664720Y-48548571D01*
X62662020Y-48535435D01*
X62660084Y-48522657D01*
X62653309Y-48453868D01*
X62629999Y-48377027D01*
X62627205Y-48366022D01*
X62623885Y-48349865D01*
X62619347Y-48339290D01*
X62614639Y-48326391D01*
X62596099Y-48265273D01*
X62555399Y-48189130D01*
X62550813Y-48179589D01*
X62543887Y-48163450D01*
X62543886Y-48163447D01*
X62538498Y-48155706D01*
X62530921Y-48143334D01*
X62503195Y-48091462D01*
X62503193Y-48091460D01*
X62503193Y-48091459D01*
X62444354Y-48019765D01*
X62438428Y-48011931D01*
X62428001Y-47996949D01*
X62422771Y-47991977D01*
X62412353Y-47980771D01*
X62378168Y-47939116D01*
X62301115Y-47875880D01*
X62294352Y-47869905D01*
X62280971Y-47857187D01*
X62280969Y-47857185D01*
X62276845Y-47854614D01*
X62263778Y-47845239D01*
X62225825Y-47814091D01*
X62225817Y-47814086D01*
X62131242Y-47763535D01*
X62124106Y-47759410D01*
X62108822Y-47749884D01*
X62108817Y-47749881D01*
X62108815Y-47749880D01*
X62108813Y-47749879D01*
X62108807Y-47749876D01*
X62106578Y-47749051D01*
X62091197Y-47742130D01*
X62052013Y-47721186D01*
X61941321Y-47687607D01*
X61934258Y-47685231D01*
X61918585Y-47679427D01*
X61918139Y-47679312D01*
X61901561Y-47675547D01*
X61863415Y-47663975D01*
X61738793Y-47651701D01*
X61732178Y-47650869D01*
X61718071Y-47648708D01*
X61711789Y-47648390D01*
X61711791Y-47648347D01*
X61702490Y-47648125D01*
X61667288Y-47644659D01*
X61667284Y-47644659D01*
X61531542Y-47658027D01*
X61525677Y-47658464D01*
X61515472Y-47658982D01*
X61509259Y-47659934D01*
X61509216Y-47659654D01*
X61501964Y-47660941D01*
X61471154Y-47663975D01*
X61327731Y-47707482D01*
X61322830Y-47708859D01*
X61319080Y-47709830D01*
X61318460Y-47710060D01*
X61311408Y-47712433D01*
X61282555Y-47721186D01*
X61108752Y-47814086D01*
X61108745Y-47814090D01*
X60956401Y-47939116D01*
X60831375Y-48091460D01*
X60831371Y-48091467D01*
X60751143Y-48241564D01*
X60702181Y-48291408D01*
X60634043Y-48306869D01*
X60568364Y-48283037D01*
X60525995Y-48227480D01*
X60517785Y-48183111D01*
X60517785Y-46384321D01*
X60534398Y-46322321D01*
X60594464Y-46218284D01*
X60652959Y-46038256D01*
X60672745Y-45850000D01*
X60652959Y-45661744D01*
X60594464Y-45481716D01*
X60542213Y-45391215D01*
X60525741Y-45323317D01*
X60548594Y-45257290D01*
X60603515Y-45214099D01*
X60673068Y-45207458D01*
X60686836Y-45211007D01*
X60797115Y-45234447D01*
X60872639Y-45250500D01*
X60872640Y-45250500D01*
X61061929Y-45250500D01*
X61061931Y-45250500D01*
X61247088Y-45211144D01*
X61420015Y-45134151D01*
X61573156Y-45022888D01*
X61699818Y-44882216D01*
X61794464Y-44718284D01*
X61852959Y-44538256D01*
X61872745Y-44350000D01*
X61852959Y-44161744D01*
X61794464Y-43981716D01*
X61706024Y-43828533D01*
X61689793Y-43776261D01*
X61688146Y-43755337D01*
X61683543Y-43696840D01*
X61615286Y-43265876D01*
X61513425Y-42841595D01*
X61378590Y-42426614D01*
X61211612Y-42023491D01*
X61013520Y-41634712D01*
X60785536Y-41262674D01*
X60529065Y-40909669D01*
X60459446Y-40828155D01*
X60245692Y-40577879D01*
X60091420Y-40423606D01*
X60091420Y-40423605D01*
X60091419Y-40423605D01*
X60044216Y-40376401D01*
X60013968Y-40327041D01*
X59979185Y-40219992D01*
X59958628Y-40156721D01*
X59958625Y-40156715D01*
X59955366Y-40151070D01*
X59863980Y-39992784D01*
X59737318Y-39852112D01*
X59737317Y-39852111D01*
X59584181Y-39740851D01*
X59584176Y-39740848D01*
X59411254Y-39663857D01*
X59411249Y-39663855D01*
X59265448Y-39632865D01*
X59226093Y-39624500D01*
X59036801Y-39624500D01*
X59004344Y-39631398D01*
X58851644Y-39663855D01*
X58851639Y-39663857D01*
X58678717Y-39740848D01*
X58678712Y-39740851D01*
X58525576Y-39852111D01*
X58398913Y-39992785D01*
X58304268Y-40156715D01*
X58304265Y-40156722D01*
X58248926Y-40327039D01*
X58245773Y-40336744D01*
X58225987Y-40525000D01*
X37689250Y-40525000D01*
X37865041Y-40274733D01*
X37866921Y-40272129D01*
X37954973Y-40153611D01*
X37956848Y-40151158D01*
X38326985Y-39679708D01*
X38328925Y-39677302D01*
X38423187Y-39563606D01*
X38425176Y-39561270D01*
X38819921Y-39110141D01*
X38822028Y-39107798D01*
X38922132Y-38999361D01*
X38924294Y-38997081D01*
X39342490Y-38567600D01*
X39344629Y-38565461D01*
X39360507Y-38550000D01*
X40411825Y-38550000D01*
X40431611Y-38738256D01*
X40431612Y-38738259D01*
X40490103Y-38918277D01*
X40490106Y-38918284D01*
X40584752Y-39082216D01*
X40711414Y-39222888D01*
X40864550Y-39334148D01*
X40864555Y-39334151D01*
X41037477Y-39411142D01*
X41037482Y-39411144D01*
X41222639Y-39450500D01*
X41222640Y-39450500D01*
X41411929Y-39450500D01*
X41411931Y-39450500D01*
X41597088Y-39411144D01*
X41770015Y-39334151D01*
X41923156Y-39222888D01*
X42049818Y-39082216D01*
X42144464Y-38918284D01*
X42199807Y-38747955D01*
X42230053Y-38698597D01*
X42347047Y-38581604D01*
X42347049Y-38581601D01*
X42393749Y-38534903D01*
X42398118Y-38530743D01*
X42635235Y-38315834D01*
X42644621Y-38308131D01*
X42899213Y-38119313D01*
X42909301Y-38112573D01*
X43181168Y-37949624D01*
X43191872Y-37943902D01*
X43478410Y-37808380D01*
X43489625Y-37803735D01*
X43788043Y-37696960D01*
X43799660Y-37693435D01*
X44107112Y-37616423D01*
X44119040Y-37614049D01*
X44280387Y-37590115D01*
X44349015Y-37599493D01*
X44487482Y-37661144D01*
X44672639Y-37700500D01*
X44672640Y-37700500D01*
X44861929Y-37700500D01*
X44861931Y-37700500D01*
X45047088Y-37661144D01*
X45220015Y-37584151D01*
X45373156Y-37472888D01*
X45499818Y-37332216D01*
X45594464Y-37168284D01*
X45652959Y-36988256D01*
X45672745Y-36800000D01*
X45652959Y-36611744D01*
X45594464Y-36431716D01*
X45499818Y-36267784D01*
X45373156Y-36127112D01*
X45352589Y-36112169D01*
X45220019Y-36015851D01*
X45220014Y-36015848D01*
X45184419Y-36000000D01*
X50044540Y-36000000D01*
X50064326Y-36188256D01*
X50064327Y-36188259D01*
X50122818Y-36368277D01*
X50122821Y-36368284D01*
X50217467Y-36532216D01*
X50344129Y-36672888D01*
X50497265Y-36784148D01*
X50497270Y-36784151D01*
X50670192Y-36861142D01*
X50670197Y-36861144D01*
X50855354Y-36900500D01*
X50855355Y-36900500D01*
X51044644Y-36900500D01*
X51044646Y-36900500D01*
X51229803Y-36861144D01*
X51402730Y-36784151D01*
X51404776Y-36782664D01*
X51416452Y-36774182D01*
X51482258Y-36750702D01*
X51489337Y-36750500D01*
X52048023Y-36750500D01*
X52123423Y-36750500D01*
X52130376Y-36750695D01*
X52407999Y-36766286D01*
X52421800Y-36767841D01*
X52692492Y-36813834D01*
X52706049Y-36816928D01*
X52969889Y-36892939D01*
X52983014Y-36897532D01*
X53027387Y-36915912D01*
X53236683Y-37002605D01*
X53249197Y-37008631D01*
X53362813Y-37071425D01*
X53489513Y-37141450D01*
X53501284Y-37148846D01*
X53579039Y-37204016D01*
X53622322Y-37258863D01*
X53625214Y-37266826D01*
X53649507Y-37341592D01*
X53649509Y-37341596D01*
X53744155Y-37505528D01*
X53814945Y-37584148D01*
X53870817Y-37646200D01*
X54023953Y-37757460D01*
X54023958Y-37757463D01*
X54196880Y-37834454D01*
X54196885Y-37834456D01*
X54382042Y-37873812D01*
X54382043Y-37873812D01*
X54571332Y-37873812D01*
X54571334Y-37873812D01*
X54756491Y-37834456D01*
X54929418Y-37757463D01*
X55082559Y-37646200D01*
X55209221Y-37505528D01*
X55303867Y-37341596D01*
X55362362Y-37161568D01*
X55382148Y-36973312D01*
X55362362Y-36785056D01*
X55303867Y-36605028D01*
X55209221Y-36441096D01*
X55082559Y-36300424D01*
X55044180Y-36272540D01*
X54929422Y-36189163D01*
X54929417Y-36189160D01*
X54756495Y-36112169D01*
X54756491Y-36112168D01*
X54618667Y-36082872D01*
X54573326Y-36063157D01*
X54317747Y-35884199D01*
X54317736Y-35884192D01*
X54317730Y-35884188D01*
X54226204Y-35831345D01*
X54009679Y-35706334D01*
X54009663Y-35706326D01*
X53687304Y-35556007D01*
X53687296Y-35556004D01*
X53687294Y-35556003D01*
X53687287Y-35556000D01*
X53353026Y-35434338D01*
X53353025Y-35434337D01*
X53353015Y-35434334D01*
X53009440Y-35342275D01*
X53009443Y-35342275D01*
X53009433Y-35342273D01*
X52923452Y-35327112D01*
X52659125Y-35280503D01*
X52659127Y-35280503D01*
X52304764Y-35249500D01*
X52304763Y-35249500D01*
X52214626Y-35249500D01*
X51489337Y-35249500D01*
X51422298Y-35229815D01*
X51416452Y-35225818D01*
X51402734Y-35215851D01*
X51402729Y-35215848D01*
X51229807Y-35138857D01*
X51229802Y-35138855D01*
X51084001Y-35107865D01*
X51044646Y-35099500D01*
X50855354Y-35099500D01*
X50839090Y-35102957D01*
X50670197Y-35138855D01*
X50670192Y-35138857D01*
X50497270Y-35215848D01*
X50497265Y-35215851D01*
X50344129Y-35327111D01*
X50217466Y-35467785D01*
X50122821Y-35631715D01*
X50122818Y-35631722D01*
X50064327Y-35811740D01*
X50064326Y-35811744D01*
X50044540Y-36000000D01*
X45184419Y-36000000D01*
X45047092Y-35938857D01*
X45047087Y-35938855D01*
X44901286Y-35907865D01*
X44861931Y-35899500D01*
X44672639Y-35899500D01*
X44640182Y-35906398D01*
X44487482Y-35938855D01*
X44487477Y-35938857D01*
X44314556Y-36015848D01*
X44259070Y-36056160D01*
X44198594Y-36078474D01*
X44198674Y-36079144D01*
X44196247Y-36079431D01*
X43819458Y-36139109D01*
X43448528Y-36228162D01*
X43448522Y-36228163D01*
X43448517Y-36228165D01*
X43448505Y-36228169D01*
X43085713Y-36346046D01*
X42733269Y-36492034D01*
X42733267Y-36492035D01*
X42393366Y-36665223D01*
X42393361Y-36665225D01*
X42393361Y-36665226D01*
X42393350Y-36665232D01*
X42068112Y-36864537D01*
X42068080Y-36864559D01*
X41759484Y-37088766D01*
X41759457Y-37088787D01*
X41469402Y-37336517D01*
X41469400Y-37336519D01*
X41396549Y-37409368D01*
X41396548Y-37409369D01*
X41396548Y-37409370D01*
X41334522Y-37471395D01*
X41334521Y-37471394D01*
X41289961Y-37515956D01*
X41278745Y-37527172D01*
X41278743Y-37527174D01*
X41221094Y-37584823D01*
X41164514Y-37641403D01*
X41103191Y-37674887D01*
X41102615Y-37675011D01*
X41037481Y-37688856D01*
X41037477Y-37688857D01*
X40864555Y-37765848D01*
X40864550Y-37765851D01*
X40711414Y-37877111D01*
X40584751Y-38017785D01*
X40490106Y-38181715D01*
X40490103Y-38181722D01*
X40447855Y-38311749D01*
X40431611Y-38361744D01*
X40411825Y-38550000D01*
X39360507Y-38550000D01*
X39450455Y-38462415D01*
X39452667Y-38460318D01*
X39893155Y-38053679D01*
X39895434Y-38051631D01*
X40006581Y-37954375D01*
X40008917Y-37952386D01*
X40470408Y-37569779D01*
X40472745Y-37567893D01*
X40588907Y-37476693D01*
X40591396Y-37474793D01*
X41072542Y-37117330D01*
X41075119Y-37115468D01*
X41195865Y-37030655D01*
X41198469Y-37028877D01*
X41697984Y-36697510D01*
X41700547Y-36695859D01*
X41825699Y-36617552D01*
X41828418Y-36615900D01*
X42344834Y-36311605D01*
X42347509Y-36310077D01*
X42476685Y-36238523D01*
X42479428Y-36237051D01*
X43011324Y-35960663D01*
X43014050Y-35959292D01*
X43146950Y-35894667D01*
X43149660Y-35893394D01*
X43695527Y-35645700D01*
X43698367Y-35644456D01*
X43834379Y-35587055D01*
X43837335Y-35585853D01*
X44395543Y-35367589D01*
X44398484Y-35366485D01*
X44537420Y-35316381D01*
X44540255Y-35315402D01*
X45109328Y-35127142D01*
X45112330Y-35126193D01*
X45253761Y-35083547D01*
X45256646Y-35082719D01*
X45835019Y-34924991D01*
X45837974Y-34924227D01*
X45981414Y-34889184D01*
X45984445Y-34888486D01*
X46570260Y-34761792D01*
X46573371Y-34761162D01*
X46718502Y-34733797D01*
X46721549Y-34733265D01*
X47313250Y-34637933D01*
X47316376Y-34637471D01*
X47462655Y-34617883D01*
X47465881Y-34617494D01*
X48061756Y-34553796D01*
X48065011Y-34553492D01*
X48212120Y-34541717D01*
X48215198Y-34541513D01*
X48813736Y-34509611D01*
X48816875Y-34509486D01*
X48964387Y-34505557D01*
X48967686Y-34505514D01*
X49566884Y-34505514D01*
X49570182Y-34505557D01*
G37*
%TD.AperFunction*%
%TD*%
M02*
