%TF.GenerationSoftware,KiCad,Pcbnew,7.0.10*%
%TF.CreationDate,2024-04-29T22:12:33+02:00*%
%TF.ProjectId,GhostControllerLED,47686f73-7443-46f6-9e74-726f6c6c6572,rev?*%
%TF.SameCoordinates,Original*%
%TF.FileFunction,Legend,Bot*%
%TF.FilePolarity,Positive*%
%FSLAX46Y46*%
G04 Gerber Fmt 4.6, Leading zero omitted, Abs format (unit mm)*
G04 Created by KiCad (PCBNEW 7.0.10) date 2024-04-29 22:12:33*
%MOMM*%
%LPD*%
G01*
G04 APERTURE LIST*
%ADD10C,0.200000*%
%ADD11C,0.300000*%
%ADD12C,0.120000*%
G04 APERTURE END LIST*
D10*
X55282142Y-58586623D02*
X55877380Y-58586623D01*
X55877380Y-58586623D02*
X55877380Y-57336623D01*
X54865475Y-57931861D02*
X54448809Y-57931861D01*
X54270237Y-58586623D02*
X54865475Y-58586623D01*
X54865475Y-58586623D02*
X54865475Y-57336623D01*
X54865475Y-57336623D02*
X54270237Y-57336623D01*
X53734523Y-58586623D02*
X53734523Y-57336623D01*
X53734523Y-57336623D02*
X53436904Y-57336623D01*
X53436904Y-57336623D02*
X53258333Y-57396147D01*
X53258333Y-57396147D02*
X53139285Y-57515195D01*
X53139285Y-57515195D02*
X53079762Y-57634242D01*
X53079762Y-57634242D02*
X53020238Y-57872338D01*
X53020238Y-57872338D02*
X53020238Y-58050909D01*
X53020238Y-58050909D02*
X53079762Y-58289004D01*
X53079762Y-58289004D02*
X53139285Y-58408052D01*
X53139285Y-58408052D02*
X53258333Y-58527100D01*
X53258333Y-58527100D02*
X53436904Y-58586623D01*
X53436904Y-58586623D02*
X53734523Y-58586623D01*
X52544047Y-58527100D02*
X52425000Y-58586623D01*
X52425000Y-58586623D02*
X52186904Y-58586623D01*
X52186904Y-58586623D02*
X52067857Y-58527100D01*
X52067857Y-58527100D02*
X52008333Y-58408052D01*
X52008333Y-58408052D02*
X52008333Y-58348528D01*
X52008333Y-58348528D02*
X52067857Y-58229480D01*
X52067857Y-58229480D02*
X52186904Y-58169957D01*
X52186904Y-58169957D02*
X52365476Y-58169957D01*
X52365476Y-58169957D02*
X52484523Y-58110433D01*
X52484523Y-58110433D02*
X52544047Y-57991385D01*
X52544047Y-57991385D02*
X52544047Y-57931861D01*
X52544047Y-57931861D02*
X52484523Y-57812814D01*
X52484523Y-57812814D02*
X52365476Y-57753290D01*
X52365476Y-57753290D02*
X52186904Y-57753290D01*
X52186904Y-57753290D02*
X52067857Y-57812814D01*
X51591666Y-57753290D02*
X51353571Y-58586623D01*
X51353571Y-58586623D02*
X51115476Y-57991385D01*
X51115476Y-57991385D02*
X50877380Y-58586623D01*
X50877380Y-58586623D02*
X50639285Y-57753290D01*
X49627380Y-58586623D02*
X49627380Y-57931861D01*
X49627380Y-57931861D02*
X49686904Y-57812814D01*
X49686904Y-57812814D02*
X49805952Y-57753290D01*
X49805952Y-57753290D02*
X50044047Y-57753290D01*
X50044047Y-57753290D02*
X50163094Y-57812814D01*
X49627380Y-58527100D02*
X49746428Y-58586623D01*
X49746428Y-58586623D02*
X50044047Y-58586623D01*
X50044047Y-58586623D02*
X50163094Y-58527100D01*
X50163094Y-58527100D02*
X50222618Y-58408052D01*
X50222618Y-58408052D02*
X50222618Y-58289004D01*
X50222618Y-58289004D02*
X50163094Y-58169957D01*
X50163094Y-58169957D02*
X50044047Y-58110433D01*
X50044047Y-58110433D02*
X49746428Y-58110433D01*
X49746428Y-58110433D02*
X49627380Y-58050909D01*
X49032142Y-58586623D02*
X49032142Y-57753290D01*
X49032142Y-57991385D02*
X48972619Y-57872338D01*
X48972619Y-57872338D02*
X48913095Y-57812814D01*
X48913095Y-57812814D02*
X48794047Y-57753290D01*
X48794047Y-57753290D02*
X48675000Y-57753290D01*
X48258332Y-58586623D02*
X48258332Y-57753290D01*
X48258332Y-57872338D02*
X48198809Y-57812814D01*
X48198809Y-57812814D02*
X48079761Y-57753290D01*
X48079761Y-57753290D02*
X47901190Y-57753290D01*
X47901190Y-57753290D02*
X47782142Y-57812814D01*
X47782142Y-57812814D02*
X47722618Y-57931861D01*
X47722618Y-57931861D02*
X47722618Y-58586623D01*
X47722618Y-57931861D02*
X47663094Y-57812814D01*
X47663094Y-57812814D02*
X47544047Y-57753290D01*
X47544047Y-57753290D02*
X47365475Y-57753290D01*
X47365475Y-57753290D02*
X47246428Y-57812814D01*
X47246428Y-57812814D02*
X47186904Y-57931861D01*
X47186904Y-57931861D02*
X47186904Y-58586623D01*
X46591665Y-58467576D02*
X46532142Y-58527100D01*
X46532142Y-58527100D02*
X46591665Y-58586623D01*
X46591665Y-58586623D02*
X46651189Y-58527100D01*
X46651189Y-58527100D02*
X46591665Y-58467576D01*
X46591665Y-58467576D02*
X46591665Y-58586623D01*
X45460713Y-58527100D02*
X45579761Y-58586623D01*
X45579761Y-58586623D02*
X45817856Y-58586623D01*
X45817856Y-58586623D02*
X45936904Y-58527100D01*
X45936904Y-58527100D02*
X45996427Y-58467576D01*
X45996427Y-58467576D02*
X46055951Y-58348528D01*
X46055951Y-58348528D02*
X46055951Y-57991385D01*
X46055951Y-57991385D02*
X45996427Y-57872338D01*
X45996427Y-57872338D02*
X45936904Y-57812814D01*
X45936904Y-57812814D02*
X45817856Y-57753290D01*
X45817856Y-57753290D02*
X45579761Y-57753290D01*
X45579761Y-57753290D02*
X45460713Y-57812814D01*
X44746427Y-58586623D02*
X44865475Y-58527100D01*
X44865475Y-58527100D02*
X44924998Y-58467576D01*
X44924998Y-58467576D02*
X44984522Y-58348528D01*
X44984522Y-58348528D02*
X44984522Y-57991385D01*
X44984522Y-57991385D02*
X44924998Y-57872338D01*
X44924998Y-57872338D02*
X44865475Y-57812814D01*
X44865475Y-57812814D02*
X44746427Y-57753290D01*
X44746427Y-57753290D02*
X44567856Y-57753290D01*
X44567856Y-57753290D02*
X44448808Y-57812814D01*
X44448808Y-57812814D02*
X44389284Y-57872338D01*
X44389284Y-57872338D02*
X44329760Y-57991385D01*
X44329760Y-57991385D02*
X44329760Y-58348528D01*
X44329760Y-58348528D02*
X44389284Y-58467576D01*
X44389284Y-58467576D02*
X44448808Y-58527100D01*
X44448808Y-58527100D02*
X44567856Y-58586623D01*
X44567856Y-58586623D02*
X44746427Y-58586623D01*
X43794046Y-58586623D02*
X43794046Y-57753290D01*
X43794046Y-57872338D02*
X43734523Y-57812814D01*
X43734523Y-57812814D02*
X43615475Y-57753290D01*
X43615475Y-57753290D02*
X43436904Y-57753290D01*
X43436904Y-57753290D02*
X43317856Y-57812814D01*
X43317856Y-57812814D02*
X43258332Y-57931861D01*
X43258332Y-57931861D02*
X43258332Y-58586623D01*
X43258332Y-57931861D02*
X43198808Y-57812814D01*
X43198808Y-57812814D02*
X43079761Y-57753290D01*
X43079761Y-57753290D02*
X42901189Y-57753290D01*
X42901189Y-57753290D02*
X42782142Y-57812814D01*
X42782142Y-57812814D02*
X42722618Y-57931861D01*
X42722618Y-57931861D02*
X42722618Y-58586623D01*
X58258333Y-54784242D02*
X58377380Y-54724719D01*
X58377380Y-54724719D02*
X58615476Y-54724719D01*
X58615476Y-54724719D02*
X58734523Y-54784242D01*
X58734523Y-54784242D02*
X58853571Y-54903290D01*
X58853571Y-54903290D02*
X58913095Y-55022338D01*
X58913095Y-55022338D02*
X58913095Y-55260433D01*
X58913095Y-55260433D02*
X58853571Y-55379480D01*
X58853571Y-55379480D02*
X58734523Y-55498528D01*
X58734523Y-55498528D02*
X58615476Y-55558052D01*
X58615476Y-55558052D02*
X58377380Y-55558052D01*
X58377380Y-55558052D02*
X58258333Y-55498528D01*
X58496428Y-54308052D02*
X58794047Y-54367576D01*
X58794047Y-54367576D02*
X59091666Y-54546147D01*
X59091666Y-54546147D02*
X59270237Y-54843766D01*
X59270237Y-54843766D02*
X59329761Y-55141385D01*
X59329761Y-55141385D02*
X59270237Y-55439004D01*
X59270237Y-55439004D02*
X59091666Y-55736623D01*
X59091666Y-55736623D02*
X58794047Y-55915195D01*
X58794047Y-55915195D02*
X58496428Y-55974719D01*
X58496428Y-55974719D02*
X58198809Y-55915195D01*
X58198809Y-55915195D02*
X57901190Y-55736623D01*
X57901190Y-55736623D02*
X57722618Y-55439004D01*
X57722618Y-55439004D02*
X57663095Y-55141385D01*
X57663095Y-55141385D02*
X57722618Y-54843766D01*
X57722618Y-54843766D02*
X57901190Y-54546147D01*
X57901190Y-54546147D02*
X58198809Y-54367576D01*
X58198809Y-54367576D02*
X58496428Y-54308052D01*
X56234523Y-54605671D02*
X56174999Y-54546147D01*
X56174999Y-54546147D02*
X56055952Y-54486623D01*
X56055952Y-54486623D02*
X55758333Y-54486623D01*
X55758333Y-54486623D02*
X55639285Y-54546147D01*
X55639285Y-54546147D02*
X55579761Y-54605671D01*
X55579761Y-54605671D02*
X55520238Y-54724719D01*
X55520238Y-54724719D02*
X55520238Y-54843766D01*
X55520238Y-54843766D02*
X55579761Y-55022338D01*
X55579761Y-55022338D02*
X56294047Y-55736623D01*
X56294047Y-55736623D02*
X55520238Y-55736623D01*
X54746428Y-54486623D02*
X54627381Y-54486623D01*
X54627381Y-54486623D02*
X54508333Y-54546147D01*
X54508333Y-54546147D02*
X54448809Y-54605671D01*
X54448809Y-54605671D02*
X54389285Y-54724719D01*
X54389285Y-54724719D02*
X54329762Y-54962814D01*
X54329762Y-54962814D02*
X54329762Y-55260433D01*
X54329762Y-55260433D02*
X54389285Y-55498528D01*
X54389285Y-55498528D02*
X54448809Y-55617576D01*
X54448809Y-55617576D02*
X54508333Y-55677100D01*
X54508333Y-55677100D02*
X54627381Y-55736623D01*
X54627381Y-55736623D02*
X54746428Y-55736623D01*
X54746428Y-55736623D02*
X54865476Y-55677100D01*
X54865476Y-55677100D02*
X54925000Y-55617576D01*
X54925000Y-55617576D02*
X54984523Y-55498528D01*
X54984523Y-55498528D02*
X55044047Y-55260433D01*
X55044047Y-55260433D02*
X55044047Y-54962814D01*
X55044047Y-54962814D02*
X54984523Y-54724719D01*
X54984523Y-54724719D02*
X54925000Y-54605671D01*
X54925000Y-54605671D02*
X54865476Y-54546147D01*
X54865476Y-54546147D02*
X54746428Y-54486623D01*
X53853571Y-54605671D02*
X53794047Y-54546147D01*
X53794047Y-54546147D02*
X53675000Y-54486623D01*
X53675000Y-54486623D02*
X53377381Y-54486623D01*
X53377381Y-54486623D02*
X53258333Y-54546147D01*
X53258333Y-54546147D02*
X53198809Y-54605671D01*
X53198809Y-54605671D02*
X53139286Y-54724719D01*
X53139286Y-54724719D02*
X53139286Y-54843766D01*
X53139286Y-54843766D02*
X53198809Y-55022338D01*
X53198809Y-55022338D02*
X53913095Y-55736623D01*
X53913095Y-55736623D02*
X53139286Y-55736623D01*
X52067857Y-54903290D02*
X52067857Y-55736623D01*
X52365476Y-54427100D02*
X52663095Y-55319957D01*
X52663095Y-55319957D02*
X51889286Y-55319957D01*
X50460714Y-55736623D02*
X50460714Y-54486623D01*
X50460714Y-54486623D02*
X50044048Y-55379480D01*
X50044048Y-55379480D02*
X49627381Y-54486623D01*
X49627381Y-54486623D02*
X49627381Y-55736623D01*
X48853572Y-55736623D02*
X48972620Y-55677100D01*
X48972620Y-55677100D02*
X49032143Y-55617576D01*
X49032143Y-55617576D02*
X49091667Y-55498528D01*
X49091667Y-55498528D02*
X49091667Y-55141385D01*
X49091667Y-55141385D02*
X49032143Y-55022338D01*
X49032143Y-55022338D02*
X48972620Y-54962814D01*
X48972620Y-54962814D02*
X48853572Y-54903290D01*
X48853572Y-54903290D02*
X48675001Y-54903290D01*
X48675001Y-54903290D02*
X48555953Y-54962814D01*
X48555953Y-54962814D02*
X48496429Y-55022338D01*
X48496429Y-55022338D02*
X48436905Y-55141385D01*
X48436905Y-55141385D02*
X48436905Y-55498528D01*
X48436905Y-55498528D02*
X48496429Y-55617576D01*
X48496429Y-55617576D02*
X48555953Y-55677100D01*
X48555953Y-55677100D02*
X48675001Y-55736623D01*
X48675001Y-55736623D02*
X48853572Y-55736623D01*
X47901191Y-55736623D02*
X47901191Y-54903290D01*
X47901191Y-55141385D02*
X47841668Y-55022338D01*
X47841668Y-55022338D02*
X47782144Y-54962814D01*
X47782144Y-54962814D02*
X47663096Y-54903290D01*
X47663096Y-54903290D02*
X47544049Y-54903290D01*
X47127381Y-55736623D02*
X47127381Y-54903290D01*
X47127381Y-54486623D02*
X47186905Y-54546147D01*
X47186905Y-54546147D02*
X47127381Y-54605671D01*
X47127381Y-54605671D02*
X47067858Y-54546147D01*
X47067858Y-54546147D02*
X47127381Y-54486623D01*
X47127381Y-54486623D02*
X47127381Y-54605671D01*
X46710715Y-54903290D02*
X46234524Y-54903290D01*
X46532143Y-54486623D02*
X46532143Y-55558052D01*
X46532143Y-55558052D02*
X46472620Y-55677100D01*
X46472620Y-55677100D02*
X46353572Y-55736623D01*
X46353572Y-55736623D02*
X46234524Y-55736623D01*
X45936905Y-54903290D02*
X45282143Y-54903290D01*
X45282143Y-54903290D02*
X45936905Y-55736623D01*
X45936905Y-55736623D02*
X45282143Y-55736623D01*
X43139286Y-55736623D02*
X43555952Y-55141385D01*
X43853571Y-55736623D02*
X43853571Y-54486623D01*
X43853571Y-54486623D02*
X43377381Y-54486623D01*
X43377381Y-54486623D02*
X43258333Y-54546147D01*
X43258333Y-54546147D02*
X43198810Y-54605671D01*
X43198810Y-54605671D02*
X43139286Y-54724719D01*
X43139286Y-54724719D02*
X43139286Y-54903290D01*
X43139286Y-54903290D02*
X43198810Y-55022338D01*
X43198810Y-55022338D02*
X43258333Y-55081861D01*
X43258333Y-55081861D02*
X43377381Y-55141385D01*
X43377381Y-55141385D02*
X43853571Y-55141385D01*
X42603571Y-55736623D02*
X42603571Y-54903290D01*
X42603571Y-54486623D02*
X42663095Y-54546147D01*
X42663095Y-54546147D02*
X42603571Y-54605671D01*
X42603571Y-54605671D02*
X42544048Y-54546147D01*
X42544048Y-54546147D02*
X42603571Y-54486623D01*
X42603571Y-54486623D02*
X42603571Y-54605671D01*
X41532143Y-55677100D02*
X41651191Y-55736623D01*
X41651191Y-55736623D02*
X41889286Y-55736623D01*
X41889286Y-55736623D02*
X42008333Y-55677100D01*
X42008333Y-55677100D02*
X42067857Y-55558052D01*
X42067857Y-55558052D02*
X42067857Y-55081861D01*
X42067857Y-55081861D02*
X42008333Y-54962814D01*
X42008333Y-54962814D02*
X41889286Y-54903290D01*
X41889286Y-54903290D02*
X41651191Y-54903290D01*
X41651191Y-54903290D02*
X41532143Y-54962814D01*
X41532143Y-54962814D02*
X41472619Y-55081861D01*
X41472619Y-55081861D02*
X41472619Y-55200909D01*
X41472619Y-55200909D02*
X42067857Y-55319957D01*
X40401190Y-55736623D02*
X40401190Y-54486623D01*
X40401190Y-55677100D02*
X40520238Y-55736623D01*
X40520238Y-55736623D02*
X40758333Y-55736623D01*
X40758333Y-55736623D02*
X40877381Y-55677100D01*
X40877381Y-55677100D02*
X40936904Y-55617576D01*
X40936904Y-55617576D02*
X40996428Y-55498528D01*
X40996428Y-55498528D02*
X40996428Y-55141385D01*
X40996428Y-55141385D02*
X40936904Y-55022338D01*
X40936904Y-55022338D02*
X40877381Y-54962814D01*
X40877381Y-54962814D02*
X40758333Y-54903290D01*
X40758333Y-54903290D02*
X40520238Y-54903290D01*
X40520238Y-54903290D02*
X40401190Y-54962814D01*
X39329762Y-55677100D02*
X39448810Y-55736623D01*
X39448810Y-55736623D02*
X39686905Y-55736623D01*
X39686905Y-55736623D02*
X39805952Y-55677100D01*
X39805952Y-55677100D02*
X39865476Y-55558052D01*
X39865476Y-55558052D02*
X39865476Y-55081861D01*
X39865476Y-55081861D02*
X39805952Y-54962814D01*
X39805952Y-54962814D02*
X39686905Y-54903290D01*
X39686905Y-54903290D02*
X39448810Y-54903290D01*
X39448810Y-54903290D02*
X39329762Y-54962814D01*
X39329762Y-54962814D02*
X39270238Y-55081861D01*
X39270238Y-55081861D02*
X39270238Y-55200909D01*
X39270238Y-55200909D02*
X39865476Y-55319957D01*
D11*
X51342856Y-52050828D02*
X50985713Y-53050828D01*
X50985713Y-53050828D02*
X50628570Y-52050828D01*
X49271427Y-53050828D02*
X50128570Y-53050828D01*
X49699999Y-53050828D02*
X49699999Y-51550828D01*
X49699999Y-51550828D02*
X49842856Y-51765114D01*
X49842856Y-51765114D02*
X49985713Y-51907971D01*
X49985713Y-51907971D02*
X50128570Y-51979400D01*
X48628571Y-52907971D02*
X48557142Y-52979400D01*
X48557142Y-52979400D02*
X48628571Y-53050828D01*
X48628571Y-53050828D02*
X48699999Y-52979400D01*
X48699999Y-52979400D02*
X48628571Y-52907971D01*
X48628571Y-52907971D02*
X48628571Y-53050828D01*
X47628570Y-51550828D02*
X47485713Y-51550828D01*
X47485713Y-51550828D02*
X47342856Y-51622257D01*
X47342856Y-51622257D02*
X47271428Y-51693685D01*
X47271428Y-51693685D02*
X47199999Y-51836542D01*
X47199999Y-51836542D02*
X47128570Y-52122257D01*
X47128570Y-52122257D02*
X47128570Y-52479400D01*
X47128570Y-52479400D02*
X47199999Y-52765114D01*
X47199999Y-52765114D02*
X47271428Y-52907971D01*
X47271428Y-52907971D02*
X47342856Y-52979400D01*
X47342856Y-52979400D02*
X47485713Y-53050828D01*
X47485713Y-53050828D02*
X47628570Y-53050828D01*
X47628570Y-53050828D02*
X47771428Y-52979400D01*
X47771428Y-52979400D02*
X47842856Y-52907971D01*
X47842856Y-52907971D02*
X47914285Y-52765114D01*
X47914285Y-52765114D02*
X47985713Y-52479400D01*
X47985713Y-52479400D02*
X47985713Y-52122257D01*
X47985713Y-52122257D02*
X47914285Y-51836542D01*
X47914285Y-51836542D02*
X47842856Y-51693685D01*
X47842856Y-51693685D02*
X47771428Y-51622257D01*
X47771428Y-51622257D02*
X47628570Y-51550828D01*
%TO.C,G\u002A\u002A\u002A*%
G36*
X50874756Y-37940006D02*
G01*
X50885303Y-37957749D01*
X50895797Y-37973468D01*
X50906368Y-37987454D01*
X50917149Y-37999997D01*
X50922567Y-38005719D01*
X50929537Y-38012306D01*
X50936929Y-38018130D01*
X50945471Y-38023604D01*
X50955889Y-38029139D01*
X50968908Y-38035149D01*
X50985257Y-38042045D01*
X51005660Y-38050240D01*
X51011697Y-38052648D01*
X51089100Y-38086377D01*
X51163639Y-38124270D01*
X51235235Y-38166265D01*
X51303807Y-38212303D01*
X51369277Y-38262321D01*
X51431563Y-38316260D01*
X51490587Y-38374058D01*
X51546268Y-38435656D01*
X51598527Y-38500992D01*
X51626725Y-38539791D01*
X51673640Y-38610997D01*
X51716050Y-38684538D01*
X51753959Y-38760425D01*
X51787372Y-38838665D01*
X51816291Y-38919270D01*
X51840722Y-39002246D01*
X51860668Y-39087604D01*
X51865164Y-39110384D01*
X51871703Y-39147312D01*
X51877240Y-39184219D01*
X51881825Y-39221739D01*
X51885505Y-39260504D01*
X51888331Y-39301147D01*
X51890350Y-39344300D01*
X51891611Y-39390597D01*
X51892163Y-39440670D01*
X51892055Y-39495152D01*
X51891292Y-39597991D01*
X51731320Y-39599525D01*
X51711834Y-39599720D01*
X51678241Y-39600106D01*
X51649118Y-39600518D01*
X51624065Y-39600969D01*
X51602685Y-39601469D01*
X51584576Y-39602030D01*
X51569339Y-39602664D01*
X51556576Y-39603382D01*
X51545887Y-39604195D01*
X51536872Y-39605116D01*
X51503275Y-39609439D01*
X51453006Y-39617528D01*
X51407264Y-39627079D01*
X51365817Y-39638176D01*
X51328436Y-39650899D01*
X51294889Y-39665332D01*
X51264945Y-39681557D01*
X51238373Y-39699655D01*
X51214943Y-39719710D01*
X51212985Y-39721606D01*
X51194020Y-39742171D01*
X51178055Y-39764097D01*
X51164745Y-39788096D01*
X51153745Y-39814879D01*
X51144710Y-39845156D01*
X51137296Y-39879637D01*
X51135925Y-39887276D01*
X51133773Y-39900059D01*
X51131895Y-39912581D01*
X51130240Y-39925435D01*
X51128757Y-39939214D01*
X51127396Y-39954511D01*
X51126106Y-39971918D01*
X51124836Y-39992029D01*
X51123537Y-40015436D01*
X51122156Y-40042733D01*
X51120645Y-40074512D01*
X51120315Y-40081482D01*
X51119075Y-40106339D01*
X51117753Y-40130926D01*
X51116398Y-40154443D01*
X51115059Y-40176088D01*
X51113785Y-40195061D01*
X51112624Y-40210561D01*
X51111627Y-40221788D01*
X51108238Y-40251945D01*
X51101846Y-40296386D01*
X51094111Y-40336731D01*
X51084872Y-40373510D01*
X51073972Y-40407257D01*
X51061250Y-40438501D01*
X51046548Y-40467776D01*
X51029707Y-40495612D01*
X51021227Y-40507244D01*
X51008850Y-40522059D01*
X50994281Y-40537962D01*
X50978514Y-40553946D01*
X50962547Y-40569005D01*
X50947377Y-40582132D01*
X50933999Y-40592319D01*
X50932435Y-40593396D01*
X50919334Y-40602237D01*
X50907016Y-40610112D01*
X50894918Y-40617270D01*
X50882476Y-40623958D01*
X50869127Y-40630425D01*
X50854310Y-40636919D01*
X50837460Y-40643687D01*
X50818015Y-40650978D01*
X50795412Y-40659040D01*
X50769087Y-40668121D01*
X50738478Y-40678468D01*
X50710137Y-40688007D01*
X50670382Y-40701473D01*
X50634820Y-40713643D01*
X50603060Y-40724665D01*
X50574709Y-40734685D01*
X50549375Y-40743850D01*
X50526667Y-40752307D01*
X50506192Y-40760202D01*
X50487560Y-40767683D01*
X50470378Y-40774896D01*
X50454253Y-40781987D01*
X50438796Y-40789104D01*
X50423612Y-40796394D01*
X50393329Y-40812128D01*
X50356823Y-40834174D01*
X50324554Y-40857669D01*
X50296078Y-40882978D01*
X50270950Y-40910468D01*
X50248726Y-40940505D01*
X50245089Y-40946201D01*
X50237758Y-40958471D01*
X50228831Y-40974118D01*
X50218705Y-40992420D01*
X50207779Y-41012656D01*
X50196449Y-41034103D01*
X50185113Y-41056040D01*
X50175927Y-41073911D01*
X50165093Y-41094716D01*
X50154512Y-41114769D01*
X50144589Y-41133313D01*
X50135731Y-41149590D01*
X50128342Y-41162845D01*
X50122827Y-41172319D01*
X50114434Y-41185957D01*
X50077242Y-41241489D01*
X50037919Y-41292477D01*
X49996349Y-41339027D01*
X49952415Y-41381244D01*
X49906001Y-41419233D01*
X49856990Y-41453100D01*
X49805267Y-41482949D01*
X49750714Y-41508887D01*
X49718983Y-41521749D01*
X49657523Y-41542799D01*
X49592793Y-41560192D01*
X49525007Y-41573880D01*
X49454376Y-41583818D01*
X49381113Y-41589958D01*
X49376955Y-41590180D01*
X49350846Y-41591069D01*
X49321478Y-41591355D01*
X49290240Y-41591071D01*
X49258516Y-41590251D01*
X49227695Y-41588930D01*
X49199163Y-41587141D01*
X49174307Y-41584917D01*
X49165986Y-41583991D01*
X49094777Y-41573577D01*
X49026371Y-41558963D01*
X48960635Y-41540090D01*
X48897434Y-41516898D01*
X48836635Y-41489327D01*
X48778105Y-41457317D01*
X48721709Y-41420809D01*
X48667314Y-41379741D01*
X48614787Y-41334055D01*
X48600668Y-41320683D01*
X48584148Y-41304287D01*
X48568261Y-41287554D01*
X48552695Y-41270077D01*
X48537140Y-41251444D01*
X48521284Y-41231246D01*
X48504817Y-41209073D01*
X48487428Y-41184515D01*
X48468806Y-41157163D01*
X48448639Y-41126607D01*
X48426617Y-41092438D01*
X48402429Y-41054244D01*
X48385229Y-41027079D01*
X48368587Y-41001269D01*
X48353877Y-40979063D01*
X48340793Y-40960039D01*
X48329029Y-40943777D01*
X48318280Y-40929854D01*
X48308241Y-40917851D01*
X48298607Y-40907345D01*
X48289071Y-40897916D01*
X48286897Y-40895889D01*
X48279940Y-40889787D01*
X48272953Y-40884490D01*
X48265247Y-40879666D01*
X48256135Y-40874984D01*
X48244929Y-40870111D01*
X48230941Y-40864715D01*
X48213483Y-40858465D01*
X48191867Y-40851029D01*
X48129330Y-40828351D01*
X48068672Y-40803224D01*
X48012268Y-40776370D01*
X47959792Y-40747596D01*
X47910914Y-40716710D01*
X47865308Y-40683517D01*
X47822646Y-40647825D01*
X47782599Y-40609439D01*
X47771591Y-40597984D01*
X47741197Y-40564046D01*
X47714400Y-40530112D01*
X47690308Y-40494911D01*
X47668030Y-40457172D01*
X47646676Y-40415626D01*
X47644619Y-40411356D01*
X47636709Y-40394648D01*
X47629492Y-40378803D01*
X47622830Y-40363375D01*
X47616584Y-40347915D01*
X47610613Y-40331977D01*
X47604779Y-40315113D01*
X47598942Y-40296874D01*
X47592964Y-40276814D01*
X47586704Y-40254485D01*
X47580024Y-40229440D01*
X47572785Y-40201230D01*
X47564846Y-40169409D01*
X47556069Y-40133529D01*
X47546315Y-40093143D01*
X47541215Y-40072799D01*
X47530838Y-40036456D01*
X47519971Y-40004934D01*
X47508549Y-39978071D01*
X47496507Y-39955706D01*
X47483781Y-39937679D01*
X47475400Y-39928146D01*
X47452968Y-39907439D01*
X47426254Y-39888627D01*
X47395172Y-39871672D01*
X47359635Y-39856536D01*
X47319559Y-39843180D01*
X47274856Y-39831565D01*
X47225442Y-39821653D01*
X47215105Y-39819869D01*
X47192054Y-39816114D01*
X47169645Y-39812825D01*
X47147358Y-39809969D01*
X47124673Y-39807512D01*
X47101070Y-39805419D01*
X47076029Y-39803657D01*
X47049031Y-39802191D01*
X47019554Y-39800988D01*
X46987079Y-39800013D01*
X46951087Y-39799233D01*
X46911057Y-39798612D01*
X46866469Y-39798117D01*
X46706827Y-39796613D01*
X46708149Y-39548757D01*
X46708293Y-39522909D01*
X46708586Y-39477587D01*
X46708916Y-39436717D01*
X46709294Y-39399892D01*
X46709733Y-39366703D01*
X46710245Y-39336739D01*
X46710841Y-39309592D01*
X46711535Y-39284854D01*
X46712337Y-39262114D01*
X46713261Y-39240963D01*
X46714318Y-39220993D01*
X46715521Y-39201795D01*
X46716881Y-39182959D01*
X46718411Y-39164076D01*
X46720123Y-39144737D01*
X46729331Y-39062294D01*
X46742206Y-38979490D01*
X46758367Y-38900543D01*
X46777817Y-38825440D01*
X46800559Y-38754170D01*
X46826597Y-38686723D01*
X46855935Y-38623087D01*
X46888574Y-38563251D01*
X46908352Y-38531191D01*
X46949302Y-38472118D01*
X46994274Y-38416038D01*
X47043161Y-38363026D01*
X47095857Y-38313155D01*
X47152258Y-38266498D01*
X47212256Y-38223132D01*
X47275747Y-38183129D01*
X47342624Y-38146563D01*
X47412781Y-38113509D01*
X47486113Y-38084041D01*
X47562514Y-38058232D01*
X47641877Y-38036157D01*
X47646686Y-38034952D01*
X47660482Y-38031391D01*
X47670545Y-38028498D01*
X47677820Y-38025901D01*
X47683248Y-38023224D01*
X47687772Y-38020093D01*
X47692336Y-38016135D01*
X47693393Y-38015135D01*
X47701439Y-38006155D01*
X47710979Y-37993635D01*
X47721410Y-37978479D01*
X47732130Y-37961595D01*
X47742539Y-37943886D01*
X47752034Y-37926260D01*
X47755756Y-37918928D01*
X47761344Y-37907649D01*
X48902754Y-37907649D01*
X48902854Y-37925803D01*
X48903195Y-37940240D01*
X48903864Y-37952136D01*
X48904949Y-37962664D01*
X48906537Y-37972995D01*
X48908716Y-37984305D01*
X48916927Y-38017860D01*
X48928852Y-38053333D01*
X48943329Y-38085641D01*
X48960165Y-38114532D01*
X48979168Y-38139753D01*
X49000142Y-38161050D01*
X49022895Y-38178171D01*
X49047232Y-38190863D01*
X49072960Y-38198873D01*
X49091841Y-38201643D01*
X49115752Y-38201234D01*
X49139453Y-38196146D01*
X49163724Y-38186272D01*
X49187657Y-38171684D01*
X49209883Y-38152667D01*
X49230083Y-38129730D01*
X49248079Y-38103314D01*
X49263690Y-38073856D01*
X49276739Y-38041798D01*
X49287047Y-38007579D01*
X49294435Y-37971638D01*
X49298724Y-37934414D01*
X49299735Y-37896348D01*
X49299225Y-37888324D01*
X49699321Y-37888324D01*
X49699434Y-37896348D01*
X49699905Y-37929788D01*
X49704257Y-37970634D01*
X49712297Y-38010224D01*
X49723942Y-38047919D01*
X49739112Y-38083082D01*
X49757724Y-38115076D01*
X49758196Y-38115775D01*
X49777378Y-38140585D01*
X49798626Y-38161628D01*
X49821501Y-38178577D01*
X49845567Y-38191108D01*
X49870386Y-38198895D01*
X49875089Y-38199839D01*
X49892513Y-38202077D01*
X49909001Y-38201701D01*
X49927191Y-38198702D01*
X49949209Y-38191968D01*
X49973055Y-38179963D01*
X49995399Y-38163691D01*
X50016043Y-38143516D01*
X50034793Y-38119802D01*
X50051450Y-38092912D01*
X50065820Y-38063212D01*
X50077704Y-38031063D01*
X50086907Y-37996832D01*
X50093231Y-37960880D01*
X50096481Y-37923574D01*
X50096460Y-37885275D01*
X50095637Y-37871143D01*
X50090507Y-37827775D01*
X50081616Y-37787310D01*
X50069028Y-37749915D01*
X50052807Y-37715754D01*
X50033015Y-37684993D01*
X50009717Y-37657800D01*
X49991887Y-37641112D01*
X49974592Y-37628070D01*
X49957025Y-37618259D01*
X49938064Y-37610947D01*
X49921349Y-37607148D01*
X49900947Y-37605372D01*
X49880598Y-37606178D01*
X49862441Y-37609605D01*
X49848153Y-37614566D01*
X49823434Y-37627164D01*
X49800157Y-37644211D01*
X49778608Y-37665370D01*
X49759072Y-37690299D01*
X49741837Y-37718658D01*
X49727187Y-37750109D01*
X49715410Y-37784310D01*
X49709787Y-37806089D01*
X49702588Y-37846878D01*
X49699321Y-37888324D01*
X49299225Y-37888324D01*
X49297291Y-37857878D01*
X49296861Y-37854104D01*
X49290007Y-37812363D01*
X49279665Y-37773378D01*
X49265963Y-37737438D01*
X49249028Y-37704833D01*
X49228988Y-37675852D01*
X49205970Y-37650785D01*
X49197257Y-37643001D01*
X49174175Y-37626253D01*
X49150292Y-37614448D01*
X49125427Y-37607506D01*
X49099400Y-37605352D01*
X49097871Y-37605371D01*
X49074214Y-37607607D01*
X49052105Y-37613678D01*
X49030932Y-37623872D01*
X49010083Y-37638483D01*
X48988943Y-37657800D01*
X48986984Y-37659805D01*
X48964829Y-37685968D01*
X48946107Y-37715180D01*
X48930591Y-37747847D01*
X48918054Y-37784376D01*
X48917151Y-37787531D01*
X48912050Y-37806720D01*
X48908259Y-37824219D01*
X48905606Y-37841379D01*
X48903919Y-37859550D01*
X48903026Y-37880080D01*
X48902754Y-37904319D01*
X48902754Y-37907649D01*
X47761344Y-37907649D01*
X47762341Y-37905636D01*
X47768629Y-37892421D01*
X47774778Y-37878873D01*
X47780942Y-37864583D01*
X47787276Y-37849143D01*
X47793937Y-37832145D01*
X47801080Y-37813178D01*
X47808859Y-37791835D01*
X47817432Y-37767706D01*
X47826953Y-37740383D01*
X47837578Y-37709457D01*
X47849462Y-37674519D01*
X47862761Y-37635160D01*
X47868430Y-37618370D01*
X47885992Y-37566772D01*
X47902331Y-37519484D01*
X47917616Y-37476080D01*
X47932016Y-37436131D01*
X47945700Y-37399211D01*
X47958835Y-37364892D01*
X47971591Y-37332746D01*
X47984136Y-37302347D01*
X47996639Y-37273268D01*
X48009268Y-37245080D01*
X48022192Y-37217356D01*
X48035580Y-37189669D01*
X48049600Y-37161592D01*
X48052876Y-37155149D01*
X48088040Y-37089091D01*
X48123853Y-37027564D01*
X48160664Y-36970071D01*
X48198821Y-36916118D01*
X48238672Y-36865210D01*
X48280567Y-36816852D01*
X48324852Y-36770549D01*
X48338545Y-36757120D01*
X48395758Y-36705386D01*
X48455904Y-36657798D01*
X48518981Y-36614356D01*
X48584988Y-36575062D01*
X48653925Y-36539915D01*
X48725789Y-36508916D01*
X48800580Y-36482066D01*
X48878297Y-36459365D01*
X48958938Y-36440814D01*
X49042503Y-36426413D01*
X49062218Y-36423683D01*
X49140802Y-36415192D01*
X49221415Y-36410116D01*
X49303203Y-36408424D01*
X49385313Y-36410087D01*
X49466894Y-36415074D01*
X49547092Y-36423355D01*
X49625055Y-36434900D01*
X49699930Y-36449679D01*
X49758717Y-36464071D01*
X49836281Y-36487043D01*
X49910511Y-36513828D01*
X49981463Y-36544464D01*
X50049196Y-36578993D01*
X50113767Y-36617454D01*
X50175232Y-36659889D01*
X50233649Y-36706336D01*
X50289076Y-36756838D01*
X50341570Y-36811434D01*
X50391187Y-36870164D01*
X50437986Y-36933068D01*
X50482023Y-37000188D01*
X50493195Y-37018636D01*
X50523788Y-37072403D01*
X50554244Y-37130626D01*
X50584350Y-37192853D01*
X50613890Y-37258628D01*
X50642650Y-37327498D01*
X50670417Y-37399011D01*
X50673834Y-37408222D01*
X50681005Y-37427892D01*
X50689503Y-37451552D01*
X50699142Y-37478676D01*
X50709738Y-37508738D01*
X50721107Y-37541213D01*
X50733062Y-37575574D01*
X50745418Y-37611297D01*
X50757992Y-37647856D01*
X50772669Y-37690280D01*
X50788378Y-37734689D01*
X50802982Y-37774747D01*
X50816613Y-37810745D01*
X50829400Y-37842972D01*
X50841477Y-37871722D01*
X50852974Y-37897283D01*
X50864023Y-37919947D01*
X50865964Y-37923574D01*
X50874756Y-37940006D01*
G37*
D12*
%TO.C,REF\u002A\u002A*%
X53110000Y-43070000D02*
X53110000Y-45730000D01*
X47970000Y-43070000D02*
X53110000Y-43070000D01*
X47970000Y-43070000D02*
X47970000Y-45730000D01*
X46700000Y-43070000D02*
X45370000Y-43070000D01*
X45370000Y-43070000D02*
X45370000Y-44400000D01*
X47970000Y-45730000D02*
X53110000Y-45730000D01*
%TD*%
M02*
