%TF.GenerationSoftware,KiCad,Pcbnew,7.0.10*%
%TF.CreationDate,2024-04-29T22:25:33+02:00*%
%TF.ProjectId,GhostControllerLED,47686f73-7443-46f6-9e74-726f6c6c6572,rev?*%
%TF.SameCoordinates,Original*%
%TF.FileFunction,Drillmap*%
%TF.FilePolarity,Positive*%
%FSLAX45Y45*%
G04 Gerber Fmt 4.5, Leading zero omitted, Abs format (unit mm)*
G04 Created by KiCad (PCBNEW 7.0.10) date 2024-04-29 22:25:33*
%MOMM*%
%LPD*%
G01*
G04 APERTURE LIST*
%ADD10C,0.100000*%
%ADD11C,0.050000*%
%ADD12C,0.200000*%
G04 APERTURE END LIST*
D10*
X3786728Y-4865000D02*
G75*
G03*
X3586728Y-4865000I-100000J0D01*
G01*
X3586728Y-4865000D02*
G75*
G03*
X3786728Y-4865000I100000J0D01*
G01*
X6266728Y-4865000D02*
G75*
G03*
X6066728Y-4865000I-100000J0D01*
G01*
X6066728Y-4865000D02*
G75*
G03*
X6266728Y-4865000I100000J0D01*
G01*
X6341728Y-4865000D02*
G75*
G03*
X3511728Y-4865000I-1415000J0D01*
G01*
X3511728Y-4865000D02*
G75*
G03*
X6341728Y-4865000I1415000J0D01*
G01*
D11*
X5511729Y-4865000D02*
G75*
G03*
X5421729Y-4865000I-45000J0D01*
G01*
X5421729Y-4865000D02*
G75*
G03*
X5511729Y-4865000I45000J0D01*
G01*
X4431729Y-4865000D02*
G75*
G03*
X4341729Y-4865000I-45000J0D01*
G01*
X4341729Y-4865000D02*
G75*
G03*
X4431729Y-4865000I45000J0D01*
G01*
D12*
D10*
X3736728Y-5277055D02*
X3776728Y-5317055D01*
X3776728Y-5277055D02*
X3736728Y-5317055D01*
X3891728Y-5100000D02*
X3931728Y-5140000D01*
X3931728Y-5100000D02*
X3891728Y-5140000D01*
X3926728Y-5630000D02*
X3966728Y-5670000D01*
X3966728Y-5630000D02*
X3926728Y-5670000D01*
X4111728Y-3835000D02*
X4151728Y-3875000D01*
X4151728Y-3835000D02*
X4111728Y-3875000D01*
X4386729Y-5990000D02*
X4426729Y-6030000D01*
X4426729Y-5990000D02*
X4386729Y-6030000D01*
X4456729Y-3660000D02*
X4496729Y-3700000D01*
X4496729Y-3660000D02*
X4456729Y-3700000D01*
X4756729Y-6100000D02*
X4796729Y-6140000D01*
X4796729Y-6100000D02*
X4756729Y-6140000D01*
X4856797Y-5130068D02*
X4896797Y-5170068D01*
X4896797Y-5130068D02*
X4856797Y-5170068D01*
X5075000Y-3580000D02*
X5115000Y-3620000D01*
X5115000Y-3580000D02*
X5075000Y-3620000D01*
X5346729Y-6010000D02*
X5386729Y-6050000D01*
X5386729Y-6010000D02*
X5346729Y-6050000D01*
X5427669Y-3677331D02*
X5467669Y-3717331D01*
X5467669Y-3677331D02*
X5427669Y-3717331D01*
X5701728Y-5820000D02*
X5741728Y-5860000D01*
X5741728Y-5820000D02*
X5701728Y-5860000D01*
X5893145Y-4032500D02*
X5933145Y-4072500D01*
X5933145Y-4032500D02*
X5893145Y-4072500D01*
X5956728Y-4565000D02*
X5996728Y-4605000D01*
X5996728Y-4565000D02*
X5956728Y-4605000D01*
X6051728Y-5355000D02*
X6091728Y-5395000D01*
X6091728Y-5355000D02*
X6051728Y-5395000D01*
X6076728Y-4415000D02*
X6116728Y-4455000D01*
X6116728Y-4415000D02*
X6076728Y-4455000D01*
X4534229Y-4663000D02*
G75*
G03*
X4474229Y-4663000I-30000J0D01*
G01*
X4474229Y-4663000D02*
G75*
G03*
X4534229Y-4663000I30000J0D01*
G01*
X4539229Y-4633000D02*
X4469229Y-4633000D01*
X4469229Y-4633000D02*
G75*
G03*
X4469229Y-4693000I0J-30000D01*
G01*
X4469229Y-4693000D02*
X4539229Y-4693000D01*
X4539229Y-4693000D02*
G75*
G03*
X4539229Y-4633000I0J30000D01*
G01*
X4534229Y-5067000D02*
G75*
G03*
X4474229Y-5067000I-30000J0D01*
G01*
X4474229Y-5067000D02*
G75*
G03*
X4534229Y-5067000I30000J0D01*
G01*
X4539229Y-5037000D02*
X4469229Y-5037000D01*
X4469229Y-5037000D02*
G75*
G03*
X4469229Y-5097000I0J-30000D01*
G01*
X4469229Y-5097000D02*
X4539229Y-5097000D01*
X4539229Y-5097000D02*
G75*
G03*
X4539229Y-5037000I0J30000D01*
G01*
X5379229Y-5067000D02*
G75*
G03*
X5319229Y-5067000I-30000J0D01*
G01*
X5319229Y-5067000D02*
G75*
G03*
X5379229Y-5067000I30000J0D01*
G01*
X5384229Y-5037000D02*
X5314229Y-5037000D01*
X5314229Y-5037000D02*
G75*
G03*
X5314229Y-5097000I0J-30000D01*
G01*
X5314229Y-5097000D02*
X5384229Y-5097000D01*
X5384229Y-5097000D02*
G75*
G03*
X5384229Y-5037000I0J30000D01*
G01*
X5381729Y-4663000D02*
G75*
G03*
X5321729Y-4663000I-30000J0D01*
G01*
X5321729Y-4663000D02*
G75*
G03*
X5381729Y-4663000I30000J0D01*
G01*
X5386729Y-4633000D02*
X5316729Y-4633000D01*
X5316729Y-4633000D02*
G75*
G03*
X5316729Y-4693000I0J-30000D01*
G01*
X5316729Y-4693000D02*
X5386729Y-4693000D01*
X5386729Y-4693000D02*
G75*
G03*
X5386729Y-4633000I0J30000D01*
G01*
X4670000Y-4390000D02*
X4670000Y-4490000D01*
X4620000Y-4440000D02*
X4720000Y-4440000D01*
X4924000Y-4390000D02*
X4924000Y-4490000D01*
X4874000Y-4440000D02*
X4974000Y-4440000D01*
X5178000Y-4390000D02*
X5178000Y-4490000D01*
X5128000Y-4440000D02*
X5228000Y-4440000D01*
D12*
X3767505Y-6596484D02*
X3767505Y-6396484D01*
X3767505Y-6396484D02*
X3815124Y-6396484D01*
X3815124Y-6396484D02*
X3843696Y-6406008D01*
X3843696Y-6406008D02*
X3862743Y-6425055D01*
X3862743Y-6425055D02*
X3872267Y-6444103D01*
X3872267Y-6444103D02*
X3881791Y-6482198D01*
X3881791Y-6482198D02*
X3881791Y-6510769D01*
X3881791Y-6510769D02*
X3872267Y-6548865D01*
X3872267Y-6548865D02*
X3862743Y-6567912D01*
X3862743Y-6567912D02*
X3843696Y-6586960D01*
X3843696Y-6586960D02*
X3815124Y-6596484D01*
X3815124Y-6596484D02*
X3767505Y-6596484D01*
X3967505Y-6596484D02*
X3967505Y-6463150D01*
X3967505Y-6501246D02*
X3977029Y-6482198D01*
X3977029Y-6482198D02*
X3986553Y-6472674D01*
X3986553Y-6472674D02*
X4005600Y-6463150D01*
X4005600Y-6463150D02*
X4024648Y-6463150D01*
X4091315Y-6596484D02*
X4091315Y-6463150D01*
X4091315Y-6396484D02*
X4081791Y-6406008D01*
X4081791Y-6406008D02*
X4091315Y-6415531D01*
X4091315Y-6415531D02*
X4100839Y-6406008D01*
X4100839Y-6406008D02*
X4091315Y-6396484D01*
X4091315Y-6396484D02*
X4091315Y-6415531D01*
X4215124Y-6596484D02*
X4196077Y-6586960D01*
X4196077Y-6586960D02*
X4186553Y-6567912D01*
X4186553Y-6567912D02*
X4186553Y-6396484D01*
X4319886Y-6596484D02*
X4300839Y-6586960D01*
X4300839Y-6586960D02*
X4291315Y-6567912D01*
X4291315Y-6567912D02*
X4291315Y-6396484D01*
X4548458Y-6596484D02*
X4548458Y-6396484D01*
X4548458Y-6396484D02*
X4615124Y-6539341D01*
X4615124Y-6539341D02*
X4681791Y-6396484D01*
X4681791Y-6396484D02*
X4681791Y-6596484D01*
X4862743Y-6596484D02*
X4862743Y-6491722D01*
X4862743Y-6491722D02*
X4853220Y-6472674D01*
X4853220Y-6472674D02*
X4834172Y-6463150D01*
X4834172Y-6463150D02*
X4796077Y-6463150D01*
X4796077Y-6463150D02*
X4777029Y-6472674D01*
X4862743Y-6586960D02*
X4843696Y-6596484D01*
X4843696Y-6596484D02*
X4796077Y-6596484D01*
X4796077Y-6596484D02*
X4777029Y-6586960D01*
X4777029Y-6586960D02*
X4767505Y-6567912D01*
X4767505Y-6567912D02*
X4767505Y-6548865D01*
X4767505Y-6548865D02*
X4777029Y-6529817D01*
X4777029Y-6529817D02*
X4796077Y-6520293D01*
X4796077Y-6520293D02*
X4843696Y-6520293D01*
X4843696Y-6520293D02*
X4862743Y-6510769D01*
X4957982Y-6463150D02*
X4957982Y-6663150D01*
X4957982Y-6472674D02*
X4977029Y-6463150D01*
X4977029Y-6463150D02*
X5015124Y-6463150D01*
X5015124Y-6463150D02*
X5034172Y-6472674D01*
X5034172Y-6472674D02*
X5043696Y-6482198D01*
X5043696Y-6482198D02*
X5053220Y-6501246D01*
X5053220Y-6501246D02*
X5053220Y-6558388D01*
X5053220Y-6558388D02*
X5043696Y-6577436D01*
X5043696Y-6577436D02*
X5034172Y-6586960D01*
X5034172Y-6586960D02*
X5015124Y-6596484D01*
X5015124Y-6596484D02*
X4977029Y-6596484D01*
X4977029Y-6596484D02*
X4957982Y-6586960D01*
X5138934Y-6577436D02*
X5148458Y-6586960D01*
X5148458Y-6586960D02*
X5138934Y-6596484D01*
X5138934Y-6596484D02*
X5129410Y-6586960D01*
X5129410Y-6586960D02*
X5138934Y-6577436D01*
X5138934Y-6577436D02*
X5138934Y-6596484D01*
X5138934Y-6472674D02*
X5148458Y-6482198D01*
X5148458Y-6482198D02*
X5138934Y-6491722D01*
X5138934Y-6491722D02*
X5129410Y-6482198D01*
X5129410Y-6482198D02*
X5138934Y-6472674D01*
X5138934Y-6472674D02*
X5138934Y-6491722D01*
D10*
X3466728Y-6905000D02*
X3506728Y-6945000D01*
X3506728Y-6905000D02*
X3466728Y-6945000D01*
D12*
X3805600Y-6816484D02*
X3824648Y-6816484D01*
X3824648Y-6816484D02*
X3843696Y-6826008D01*
X3843696Y-6826008D02*
X3853220Y-6835531D01*
X3853220Y-6835531D02*
X3862743Y-6854579D01*
X3862743Y-6854579D02*
X3872267Y-6892674D01*
X3872267Y-6892674D02*
X3872267Y-6940293D01*
X3872267Y-6940293D02*
X3862743Y-6978388D01*
X3862743Y-6978388D02*
X3853220Y-6997436D01*
X3853220Y-6997436D02*
X3843696Y-7006960D01*
X3843696Y-7006960D02*
X3824648Y-7016484D01*
X3824648Y-7016484D02*
X3805600Y-7016484D01*
X3805600Y-7016484D02*
X3786553Y-7006960D01*
X3786553Y-7006960D02*
X3777029Y-6997436D01*
X3777029Y-6997436D02*
X3767505Y-6978388D01*
X3767505Y-6978388D02*
X3757981Y-6940293D01*
X3757981Y-6940293D02*
X3757981Y-6892674D01*
X3757981Y-6892674D02*
X3767505Y-6854579D01*
X3767505Y-6854579D02*
X3777029Y-6835531D01*
X3777029Y-6835531D02*
X3786553Y-6826008D01*
X3786553Y-6826008D02*
X3805600Y-6816484D01*
X3957981Y-6997436D02*
X3967505Y-7006960D01*
X3967505Y-7006960D02*
X3957981Y-7016484D01*
X3957981Y-7016484D02*
X3948458Y-7006960D01*
X3948458Y-7006960D02*
X3957981Y-6997436D01*
X3957981Y-6997436D02*
X3957981Y-7016484D01*
X4138934Y-6883150D02*
X4138934Y-7016484D01*
X4091315Y-6806960D02*
X4043696Y-6949817D01*
X4043696Y-6949817D02*
X4167505Y-6949817D01*
X4281791Y-6816484D02*
X4300839Y-6816484D01*
X4300839Y-6816484D02*
X4319886Y-6826008D01*
X4319886Y-6826008D02*
X4329410Y-6835531D01*
X4329410Y-6835531D02*
X4338934Y-6854579D01*
X4338934Y-6854579D02*
X4348458Y-6892674D01*
X4348458Y-6892674D02*
X4348458Y-6940293D01*
X4348458Y-6940293D02*
X4338934Y-6978388D01*
X4338934Y-6978388D02*
X4329410Y-6997436D01*
X4329410Y-6997436D02*
X4319886Y-7006960D01*
X4319886Y-7006960D02*
X4300839Y-7016484D01*
X4300839Y-7016484D02*
X4281791Y-7016484D01*
X4281791Y-7016484D02*
X4262743Y-7006960D01*
X4262743Y-7006960D02*
X4253220Y-6997436D01*
X4253220Y-6997436D02*
X4243696Y-6978388D01*
X4243696Y-6978388D02*
X4234172Y-6940293D01*
X4234172Y-6940293D02*
X4234172Y-6892674D01*
X4234172Y-6892674D02*
X4243696Y-6854579D01*
X4243696Y-6854579D02*
X4253220Y-6835531D01*
X4253220Y-6835531D02*
X4262743Y-6826008D01*
X4262743Y-6826008D02*
X4281791Y-6816484D01*
X4472267Y-6816484D02*
X4491315Y-6816484D01*
X4491315Y-6816484D02*
X4510363Y-6826008D01*
X4510363Y-6826008D02*
X4519886Y-6835531D01*
X4519886Y-6835531D02*
X4529410Y-6854579D01*
X4529410Y-6854579D02*
X4538934Y-6892674D01*
X4538934Y-6892674D02*
X4538934Y-6940293D01*
X4538934Y-6940293D02*
X4529410Y-6978388D01*
X4529410Y-6978388D02*
X4519886Y-6997436D01*
X4519886Y-6997436D02*
X4510363Y-7006960D01*
X4510363Y-7006960D02*
X4491315Y-7016484D01*
X4491315Y-7016484D02*
X4472267Y-7016484D01*
X4472267Y-7016484D02*
X4453220Y-7006960D01*
X4453220Y-7006960D02*
X4443696Y-6997436D01*
X4443696Y-6997436D02*
X4434172Y-6978388D01*
X4434172Y-6978388D02*
X4424648Y-6940293D01*
X4424648Y-6940293D02*
X4424648Y-6892674D01*
X4424648Y-6892674D02*
X4434172Y-6854579D01*
X4434172Y-6854579D02*
X4443696Y-6835531D01*
X4443696Y-6835531D02*
X4453220Y-6826008D01*
X4453220Y-6826008D02*
X4472267Y-6816484D01*
X4624648Y-7016484D02*
X4624648Y-6883150D01*
X4624648Y-6902198D02*
X4634172Y-6892674D01*
X4634172Y-6892674D02*
X4653220Y-6883150D01*
X4653220Y-6883150D02*
X4681791Y-6883150D01*
X4681791Y-6883150D02*
X4700839Y-6892674D01*
X4700839Y-6892674D02*
X4710363Y-6911722D01*
X4710363Y-6911722D02*
X4710363Y-7016484D01*
X4710363Y-6911722D02*
X4719886Y-6892674D01*
X4719886Y-6892674D02*
X4738934Y-6883150D01*
X4738934Y-6883150D02*
X4767505Y-6883150D01*
X4767505Y-6883150D02*
X4786553Y-6892674D01*
X4786553Y-6892674D02*
X4796077Y-6911722D01*
X4796077Y-6911722D02*
X4796077Y-7016484D01*
X4891315Y-7016484D02*
X4891315Y-6883150D01*
X4891315Y-6902198D02*
X4900839Y-6892674D01*
X4900839Y-6892674D02*
X4919886Y-6883150D01*
X4919886Y-6883150D02*
X4948458Y-6883150D01*
X4948458Y-6883150D02*
X4967505Y-6892674D01*
X4967505Y-6892674D02*
X4977029Y-6911722D01*
X4977029Y-6911722D02*
X4977029Y-7016484D01*
X4977029Y-6911722D02*
X4986553Y-6892674D01*
X4986553Y-6892674D02*
X5005601Y-6883150D01*
X5005601Y-6883150D02*
X5034172Y-6883150D01*
X5034172Y-6883150D02*
X5053220Y-6892674D01*
X5053220Y-6892674D02*
X5062744Y-6911722D01*
X5062744Y-6911722D02*
X5062744Y-7016484D01*
X5453220Y-6806960D02*
X5281791Y-7064103D01*
X5710363Y-6816484D02*
X5729410Y-6816484D01*
X5729410Y-6816484D02*
X5748458Y-6826008D01*
X5748458Y-6826008D02*
X5757982Y-6835531D01*
X5757982Y-6835531D02*
X5767505Y-6854579D01*
X5767505Y-6854579D02*
X5777029Y-6892674D01*
X5777029Y-6892674D02*
X5777029Y-6940293D01*
X5777029Y-6940293D02*
X5767505Y-6978388D01*
X5767505Y-6978388D02*
X5757982Y-6997436D01*
X5757982Y-6997436D02*
X5748458Y-7006960D01*
X5748458Y-7006960D02*
X5729410Y-7016484D01*
X5729410Y-7016484D02*
X5710363Y-7016484D01*
X5710363Y-7016484D02*
X5691315Y-7006960D01*
X5691315Y-7006960D02*
X5681791Y-6997436D01*
X5681791Y-6997436D02*
X5672267Y-6978388D01*
X5672267Y-6978388D02*
X5662744Y-6940293D01*
X5662744Y-6940293D02*
X5662744Y-6892674D01*
X5662744Y-6892674D02*
X5672267Y-6854579D01*
X5672267Y-6854579D02*
X5681791Y-6835531D01*
X5681791Y-6835531D02*
X5691315Y-6826008D01*
X5691315Y-6826008D02*
X5710363Y-6816484D01*
X5862744Y-6997436D02*
X5872267Y-7006960D01*
X5872267Y-7006960D02*
X5862744Y-7016484D01*
X5862744Y-7016484D02*
X5853220Y-7006960D01*
X5853220Y-7006960D02*
X5862744Y-6997436D01*
X5862744Y-6997436D02*
X5862744Y-7016484D01*
X5996077Y-6816484D02*
X6015125Y-6816484D01*
X6015125Y-6816484D02*
X6034172Y-6826008D01*
X6034172Y-6826008D02*
X6043696Y-6835531D01*
X6043696Y-6835531D02*
X6053220Y-6854579D01*
X6053220Y-6854579D02*
X6062744Y-6892674D01*
X6062744Y-6892674D02*
X6062744Y-6940293D01*
X6062744Y-6940293D02*
X6053220Y-6978388D01*
X6053220Y-6978388D02*
X6043696Y-6997436D01*
X6043696Y-6997436D02*
X6034172Y-7006960D01*
X6034172Y-7006960D02*
X6015125Y-7016484D01*
X6015125Y-7016484D02*
X5996077Y-7016484D01*
X5996077Y-7016484D02*
X5977029Y-7006960D01*
X5977029Y-7006960D02*
X5967505Y-6997436D01*
X5967505Y-6997436D02*
X5957982Y-6978388D01*
X5957982Y-6978388D02*
X5948458Y-6940293D01*
X5948458Y-6940293D02*
X5948458Y-6892674D01*
X5948458Y-6892674D02*
X5957982Y-6854579D01*
X5957982Y-6854579D02*
X5967505Y-6835531D01*
X5967505Y-6835531D02*
X5977029Y-6826008D01*
X5977029Y-6826008D02*
X5996077Y-6816484D01*
X6253220Y-7016484D02*
X6138934Y-7016484D01*
X6196077Y-7016484D02*
X6196077Y-6816484D01*
X6196077Y-6816484D02*
X6177029Y-6845055D01*
X6177029Y-6845055D02*
X6157982Y-6864103D01*
X6157982Y-6864103D02*
X6138934Y-6873627D01*
X6434172Y-6816484D02*
X6338934Y-6816484D01*
X6338934Y-6816484D02*
X6329410Y-6911722D01*
X6329410Y-6911722D02*
X6338934Y-6902198D01*
X6338934Y-6902198D02*
X6357982Y-6892674D01*
X6357982Y-6892674D02*
X6405601Y-6892674D01*
X6405601Y-6892674D02*
X6424648Y-6902198D01*
X6424648Y-6902198D02*
X6434172Y-6911722D01*
X6434172Y-6911722D02*
X6443696Y-6930769D01*
X6443696Y-6930769D02*
X6443696Y-6978388D01*
X6443696Y-6978388D02*
X6434172Y-6997436D01*
X6434172Y-6997436D02*
X6424648Y-7006960D01*
X6424648Y-7006960D02*
X6405601Y-7016484D01*
X6405601Y-7016484D02*
X6357982Y-7016484D01*
X6357982Y-7016484D02*
X6338934Y-7006960D01*
X6338934Y-7006960D02*
X6329410Y-6997436D01*
X6510363Y-6816484D02*
X6643696Y-6816484D01*
X6643696Y-6816484D02*
X6557982Y-7016484D01*
X6710363Y-6816484D02*
X6710363Y-6854579D01*
X6786553Y-6816484D02*
X6786553Y-6854579D01*
X7081791Y-7092674D02*
X7072267Y-7083150D01*
X7072267Y-7083150D02*
X7053220Y-7054579D01*
X7053220Y-7054579D02*
X7043696Y-7035531D01*
X7043696Y-7035531D02*
X7034172Y-7006960D01*
X7034172Y-7006960D02*
X7024648Y-6959341D01*
X7024648Y-6959341D02*
X7024648Y-6921246D01*
X7024648Y-6921246D02*
X7034172Y-6873627D01*
X7034172Y-6873627D02*
X7043696Y-6845055D01*
X7043696Y-6845055D02*
X7053220Y-6826008D01*
X7053220Y-6826008D02*
X7072267Y-6797436D01*
X7072267Y-6797436D02*
X7081791Y-6787912D01*
X7262744Y-7016484D02*
X7148458Y-7016484D01*
X7205601Y-7016484D02*
X7205601Y-6816484D01*
X7205601Y-6816484D02*
X7186553Y-6845055D01*
X7186553Y-6845055D02*
X7167506Y-6864103D01*
X7167506Y-6864103D02*
X7148458Y-6873627D01*
X7434172Y-6816484D02*
X7396077Y-6816484D01*
X7396077Y-6816484D02*
X7377029Y-6826008D01*
X7377029Y-6826008D02*
X7367506Y-6835531D01*
X7367506Y-6835531D02*
X7348458Y-6864103D01*
X7348458Y-6864103D02*
X7338934Y-6902198D01*
X7338934Y-6902198D02*
X7338934Y-6978388D01*
X7338934Y-6978388D02*
X7348458Y-6997436D01*
X7348458Y-6997436D02*
X7357982Y-7006960D01*
X7357982Y-7006960D02*
X7377029Y-7016484D01*
X7377029Y-7016484D02*
X7415125Y-7016484D01*
X7415125Y-7016484D02*
X7434172Y-7006960D01*
X7434172Y-7006960D02*
X7443696Y-6997436D01*
X7443696Y-6997436D02*
X7453220Y-6978388D01*
X7453220Y-6978388D02*
X7453220Y-6930769D01*
X7453220Y-6930769D02*
X7443696Y-6911722D01*
X7443696Y-6911722D02*
X7434172Y-6902198D01*
X7434172Y-6902198D02*
X7415125Y-6892674D01*
X7415125Y-6892674D02*
X7377029Y-6892674D01*
X7377029Y-6892674D02*
X7357982Y-6902198D01*
X7357982Y-6902198D02*
X7348458Y-6911722D01*
X7348458Y-6911722D02*
X7338934Y-6930769D01*
X7691315Y-7016484D02*
X7691315Y-6816484D01*
X7777029Y-7016484D02*
X7777029Y-6911722D01*
X7777029Y-6911722D02*
X7767506Y-6892674D01*
X7767506Y-6892674D02*
X7748458Y-6883150D01*
X7748458Y-6883150D02*
X7719887Y-6883150D01*
X7719887Y-6883150D02*
X7700839Y-6892674D01*
X7700839Y-6892674D02*
X7691315Y-6902198D01*
X7900839Y-7016484D02*
X7881791Y-7006960D01*
X7881791Y-7006960D02*
X7872268Y-6997436D01*
X7872268Y-6997436D02*
X7862744Y-6978388D01*
X7862744Y-6978388D02*
X7862744Y-6921246D01*
X7862744Y-6921246D02*
X7872268Y-6902198D01*
X7872268Y-6902198D02*
X7881791Y-6892674D01*
X7881791Y-6892674D02*
X7900839Y-6883150D01*
X7900839Y-6883150D02*
X7929410Y-6883150D01*
X7929410Y-6883150D02*
X7948458Y-6892674D01*
X7948458Y-6892674D02*
X7957982Y-6902198D01*
X7957982Y-6902198D02*
X7967506Y-6921246D01*
X7967506Y-6921246D02*
X7967506Y-6978388D01*
X7967506Y-6978388D02*
X7957982Y-6997436D01*
X7957982Y-6997436D02*
X7948458Y-7006960D01*
X7948458Y-7006960D02*
X7929410Y-7016484D01*
X7929410Y-7016484D02*
X7900839Y-7016484D01*
X8081791Y-7016484D02*
X8062744Y-7006960D01*
X8062744Y-7006960D02*
X8053220Y-6987912D01*
X8053220Y-6987912D02*
X8053220Y-6816484D01*
X8234172Y-7006960D02*
X8215125Y-7016484D01*
X8215125Y-7016484D02*
X8177029Y-7016484D01*
X8177029Y-7016484D02*
X8157982Y-7006960D01*
X8157982Y-7006960D02*
X8148458Y-6987912D01*
X8148458Y-6987912D02*
X8148458Y-6911722D01*
X8148458Y-6911722D02*
X8157982Y-6892674D01*
X8157982Y-6892674D02*
X8177029Y-6883150D01*
X8177029Y-6883150D02*
X8215125Y-6883150D01*
X8215125Y-6883150D02*
X8234172Y-6892674D01*
X8234172Y-6892674D02*
X8243696Y-6911722D01*
X8243696Y-6911722D02*
X8243696Y-6930769D01*
X8243696Y-6930769D02*
X8148458Y-6949817D01*
X8319887Y-7006960D02*
X8338934Y-7016484D01*
X8338934Y-7016484D02*
X8377029Y-7016484D01*
X8377029Y-7016484D02*
X8396077Y-7006960D01*
X8396077Y-7006960D02*
X8405601Y-6987912D01*
X8405601Y-6987912D02*
X8405601Y-6978388D01*
X8405601Y-6978388D02*
X8396077Y-6959341D01*
X8396077Y-6959341D02*
X8377029Y-6949817D01*
X8377029Y-6949817D02*
X8348458Y-6949817D01*
X8348458Y-6949817D02*
X8329410Y-6940293D01*
X8329410Y-6940293D02*
X8319887Y-6921246D01*
X8319887Y-6921246D02*
X8319887Y-6911722D01*
X8319887Y-6911722D02*
X8329410Y-6892674D01*
X8329410Y-6892674D02*
X8348458Y-6883150D01*
X8348458Y-6883150D02*
X8377029Y-6883150D01*
X8377029Y-6883150D02*
X8396077Y-6892674D01*
X8472268Y-7092674D02*
X8481792Y-7083150D01*
X8481792Y-7083150D02*
X8500839Y-7054579D01*
X8500839Y-7054579D02*
X8510363Y-7035531D01*
X8510363Y-7035531D02*
X8519887Y-7006960D01*
X8519887Y-7006960D02*
X8529411Y-6959341D01*
X8529411Y-6959341D02*
X8529411Y-6921246D01*
X8529411Y-6921246D02*
X8519887Y-6873627D01*
X8519887Y-6873627D02*
X8510363Y-6845055D01*
X8510363Y-6845055D02*
X8500839Y-6826008D01*
X8500839Y-6826008D02*
X8481792Y-6797436D01*
X8481792Y-6797436D02*
X8472268Y-6787912D01*
D10*
X3506728Y-7189000D02*
G75*
G03*
X3446728Y-7189000I-30000J0D01*
G01*
X3446728Y-7189000D02*
G75*
G03*
X3506728Y-7189000I30000J0D01*
G01*
D12*
X3805600Y-7080484D02*
X3824648Y-7080484D01*
X3824648Y-7080484D02*
X3843696Y-7090008D01*
X3843696Y-7090008D02*
X3853220Y-7099531D01*
X3853220Y-7099531D02*
X3862743Y-7118579D01*
X3862743Y-7118579D02*
X3872267Y-7156674D01*
X3872267Y-7156674D02*
X3872267Y-7204293D01*
X3872267Y-7204293D02*
X3862743Y-7242388D01*
X3862743Y-7242388D02*
X3853220Y-7261436D01*
X3853220Y-7261436D02*
X3843696Y-7270960D01*
X3843696Y-7270960D02*
X3824648Y-7280484D01*
X3824648Y-7280484D02*
X3805600Y-7280484D01*
X3805600Y-7280484D02*
X3786553Y-7270960D01*
X3786553Y-7270960D02*
X3777029Y-7261436D01*
X3777029Y-7261436D02*
X3767505Y-7242388D01*
X3767505Y-7242388D02*
X3757981Y-7204293D01*
X3757981Y-7204293D02*
X3757981Y-7156674D01*
X3757981Y-7156674D02*
X3767505Y-7118579D01*
X3767505Y-7118579D02*
X3777029Y-7099531D01*
X3777029Y-7099531D02*
X3786553Y-7090008D01*
X3786553Y-7090008D02*
X3805600Y-7080484D01*
X3957981Y-7261436D02*
X3967505Y-7270960D01*
X3967505Y-7270960D02*
X3957981Y-7280484D01*
X3957981Y-7280484D02*
X3948458Y-7270960D01*
X3948458Y-7270960D02*
X3957981Y-7261436D01*
X3957981Y-7261436D02*
X3957981Y-7280484D01*
X4138934Y-7080484D02*
X4100839Y-7080484D01*
X4100839Y-7080484D02*
X4081791Y-7090008D01*
X4081791Y-7090008D02*
X4072267Y-7099531D01*
X4072267Y-7099531D02*
X4053220Y-7128103D01*
X4053220Y-7128103D02*
X4043696Y-7166198D01*
X4043696Y-7166198D02*
X4043696Y-7242388D01*
X4043696Y-7242388D02*
X4053220Y-7261436D01*
X4053220Y-7261436D02*
X4062743Y-7270960D01*
X4062743Y-7270960D02*
X4081791Y-7280484D01*
X4081791Y-7280484D02*
X4119886Y-7280484D01*
X4119886Y-7280484D02*
X4138934Y-7270960D01*
X4138934Y-7270960D02*
X4148458Y-7261436D01*
X4148458Y-7261436D02*
X4157981Y-7242388D01*
X4157981Y-7242388D02*
X4157981Y-7194769D01*
X4157981Y-7194769D02*
X4148458Y-7175722D01*
X4148458Y-7175722D02*
X4138934Y-7166198D01*
X4138934Y-7166198D02*
X4119886Y-7156674D01*
X4119886Y-7156674D02*
X4081791Y-7156674D01*
X4081791Y-7156674D02*
X4062743Y-7166198D01*
X4062743Y-7166198D02*
X4053220Y-7175722D01*
X4053220Y-7175722D02*
X4043696Y-7194769D01*
X4281791Y-7080484D02*
X4300839Y-7080484D01*
X4300839Y-7080484D02*
X4319886Y-7090008D01*
X4319886Y-7090008D02*
X4329410Y-7099531D01*
X4329410Y-7099531D02*
X4338934Y-7118579D01*
X4338934Y-7118579D02*
X4348458Y-7156674D01*
X4348458Y-7156674D02*
X4348458Y-7204293D01*
X4348458Y-7204293D02*
X4338934Y-7242388D01*
X4338934Y-7242388D02*
X4329410Y-7261436D01*
X4329410Y-7261436D02*
X4319886Y-7270960D01*
X4319886Y-7270960D02*
X4300839Y-7280484D01*
X4300839Y-7280484D02*
X4281791Y-7280484D01*
X4281791Y-7280484D02*
X4262743Y-7270960D01*
X4262743Y-7270960D02*
X4253220Y-7261436D01*
X4253220Y-7261436D02*
X4243696Y-7242388D01*
X4243696Y-7242388D02*
X4234172Y-7204293D01*
X4234172Y-7204293D02*
X4234172Y-7156674D01*
X4234172Y-7156674D02*
X4243696Y-7118579D01*
X4243696Y-7118579D02*
X4253220Y-7099531D01*
X4253220Y-7099531D02*
X4262743Y-7090008D01*
X4262743Y-7090008D02*
X4281791Y-7080484D01*
X4472267Y-7080484D02*
X4491315Y-7080484D01*
X4491315Y-7080484D02*
X4510363Y-7090008D01*
X4510363Y-7090008D02*
X4519886Y-7099531D01*
X4519886Y-7099531D02*
X4529410Y-7118579D01*
X4529410Y-7118579D02*
X4538934Y-7156674D01*
X4538934Y-7156674D02*
X4538934Y-7204293D01*
X4538934Y-7204293D02*
X4529410Y-7242388D01*
X4529410Y-7242388D02*
X4519886Y-7261436D01*
X4519886Y-7261436D02*
X4510363Y-7270960D01*
X4510363Y-7270960D02*
X4491315Y-7280484D01*
X4491315Y-7280484D02*
X4472267Y-7280484D01*
X4472267Y-7280484D02*
X4453220Y-7270960D01*
X4453220Y-7270960D02*
X4443696Y-7261436D01*
X4443696Y-7261436D02*
X4434172Y-7242388D01*
X4434172Y-7242388D02*
X4424648Y-7204293D01*
X4424648Y-7204293D02*
X4424648Y-7156674D01*
X4424648Y-7156674D02*
X4434172Y-7118579D01*
X4434172Y-7118579D02*
X4443696Y-7099531D01*
X4443696Y-7099531D02*
X4453220Y-7090008D01*
X4453220Y-7090008D02*
X4472267Y-7080484D01*
X4624648Y-7280484D02*
X4624648Y-7147150D01*
X4624648Y-7166198D02*
X4634172Y-7156674D01*
X4634172Y-7156674D02*
X4653220Y-7147150D01*
X4653220Y-7147150D02*
X4681791Y-7147150D01*
X4681791Y-7147150D02*
X4700839Y-7156674D01*
X4700839Y-7156674D02*
X4710363Y-7175722D01*
X4710363Y-7175722D02*
X4710363Y-7280484D01*
X4710363Y-7175722D02*
X4719886Y-7156674D01*
X4719886Y-7156674D02*
X4738934Y-7147150D01*
X4738934Y-7147150D02*
X4767505Y-7147150D01*
X4767505Y-7147150D02*
X4786553Y-7156674D01*
X4786553Y-7156674D02*
X4796077Y-7175722D01*
X4796077Y-7175722D02*
X4796077Y-7280484D01*
X4891315Y-7280484D02*
X4891315Y-7147150D01*
X4891315Y-7166198D02*
X4900839Y-7156674D01*
X4900839Y-7156674D02*
X4919886Y-7147150D01*
X4919886Y-7147150D02*
X4948458Y-7147150D01*
X4948458Y-7147150D02*
X4967505Y-7156674D01*
X4967505Y-7156674D02*
X4977029Y-7175722D01*
X4977029Y-7175722D02*
X4977029Y-7280484D01*
X4977029Y-7175722D02*
X4986553Y-7156674D01*
X4986553Y-7156674D02*
X5005601Y-7147150D01*
X5005601Y-7147150D02*
X5034172Y-7147150D01*
X5034172Y-7147150D02*
X5053220Y-7156674D01*
X5053220Y-7156674D02*
X5062744Y-7175722D01*
X5062744Y-7175722D02*
X5062744Y-7280484D01*
X5453220Y-7070960D02*
X5281791Y-7328103D01*
X5710363Y-7080484D02*
X5729410Y-7080484D01*
X5729410Y-7080484D02*
X5748458Y-7090008D01*
X5748458Y-7090008D02*
X5757982Y-7099531D01*
X5757982Y-7099531D02*
X5767505Y-7118579D01*
X5767505Y-7118579D02*
X5777029Y-7156674D01*
X5777029Y-7156674D02*
X5777029Y-7204293D01*
X5777029Y-7204293D02*
X5767505Y-7242388D01*
X5767505Y-7242388D02*
X5757982Y-7261436D01*
X5757982Y-7261436D02*
X5748458Y-7270960D01*
X5748458Y-7270960D02*
X5729410Y-7280484D01*
X5729410Y-7280484D02*
X5710363Y-7280484D01*
X5710363Y-7280484D02*
X5691315Y-7270960D01*
X5691315Y-7270960D02*
X5681791Y-7261436D01*
X5681791Y-7261436D02*
X5672267Y-7242388D01*
X5672267Y-7242388D02*
X5662744Y-7204293D01*
X5662744Y-7204293D02*
X5662744Y-7156674D01*
X5662744Y-7156674D02*
X5672267Y-7118579D01*
X5672267Y-7118579D02*
X5681791Y-7099531D01*
X5681791Y-7099531D02*
X5691315Y-7090008D01*
X5691315Y-7090008D02*
X5710363Y-7080484D01*
X5862744Y-7261436D02*
X5872267Y-7270960D01*
X5872267Y-7270960D02*
X5862744Y-7280484D01*
X5862744Y-7280484D02*
X5853220Y-7270960D01*
X5853220Y-7270960D02*
X5862744Y-7261436D01*
X5862744Y-7261436D02*
X5862744Y-7280484D01*
X5996077Y-7080484D02*
X6015125Y-7080484D01*
X6015125Y-7080484D02*
X6034172Y-7090008D01*
X6034172Y-7090008D02*
X6043696Y-7099531D01*
X6043696Y-7099531D02*
X6053220Y-7118579D01*
X6053220Y-7118579D02*
X6062744Y-7156674D01*
X6062744Y-7156674D02*
X6062744Y-7204293D01*
X6062744Y-7204293D02*
X6053220Y-7242388D01*
X6053220Y-7242388D02*
X6043696Y-7261436D01*
X6043696Y-7261436D02*
X6034172Y-7270960D01*
X6034172Y-7270960D02*
X6015125Y-7280484D01*
X6015125Y-7280484D02*
X5996077Y-7280484D01*
X5996077Y-7280484D02*
X5977029Y-7270960D01*
X5977029Y-7270960D02*
X5967505Y-7261436D01*
X5967505Y-7261436D02*
X5957982Y-7242388D01*
X5957982Y-7242388D02*
X5948458Y-7204293D01*
X5948458Y-7204293D02*
X5948458Y-7156674D01*
X5948458Y-7156674D02*
X5957982Y-7118579D01*
X5957982Y-7118579D02*
X5967505Y-7099531D01*
X5967505Y-7099531D02*
X5977029Y-7090008D01*
X5977029Y-7090008D02*
X5996077Y-7080484D01*
X6138934Y-7099531D02*
X6148458Y-7090008D01*
X6148458Y-7090008D02*
X6167505Y-7080484D01*
X6167505Y-7080484D02*
X6215125Y-7080484D01*
X6215125Y-7080484D02*
X6234172Y-7090008D01*
X6234172Y-7090008D02*
X6243696Y-7099531D01*
X6243696Y-7099531D02*
X6253220Y-7118579D01*
X6253220Y-7118579D02*
X6253220Y-7137627D01*
X6253220Y-7137627D02*
X6243696Y-7166198D01*
X6243696Y-7166198D02*
X6129410Y-7280484D01*
X6129410Y-7280484D02*
X6253220Y-7280484D01*
X6319886Y-7080484D02*
X6443696Y-7080484D01*
X6443696Y-7080484D02*
X6377029Y-7156674D01*
X6377029Y-7156674D02*
X6405601Y-7156674D01*
X6405601Y-7156674D02*
X6424648Y-7166198D01*
X6424648Y-7166198D02*
X6434172Y-7175722D01*
X6434172Y-7175722D02*
X6443696Y-7194769D01*
X6443696Y-7194769D02*
X6443696Y-7242388D01*
X6443696Y-7242388D02*
X6434172Y-7261436D01*
X6434172Y-7261436D02*
X6424648Y-7270960D01*
X6424648Y-7270960D02*
X6405601Y-7280484D01*
X6405601Y-7280484D02*
X6348458Y-7280484D01*
X6348458Y-7280484D02*
X6329410Y-7270960D01*
X6329410Y-7270960D02*
X6319886Y-7261436D01*
X6615125Y-7080484D02*
X6577029Y-7080484D01*
X6577029Y-7080484D02*
X6557982Y-7090008D01*
X6557982Y-7090008D02*
X6548458Y-7099531D01*
X6548458Y-7099531D02*
X6529410Y-7128103D01*
X6529410Y-7128103D02*
X6519886Y-7166198D01*
X6519886Y-7166198D02*
X6519886Y-7242388D01*
X6519886Y-7242388D02*
X6529410Y-7261436D01*
X6529410Y-7261436D02*
X6538934Y-7270960D01*
X6538934Y-7270960D02*
X6557982Y-7280484D01*
X6557982Y-7280484D02*
X6596077Y-7280484D01*
X6596077Y-7280484D02*
X6615125Y-7270960D01*
X6615125Y-7270960D02*
X6624648Y-7261436D01*
X6624648Y-7261436D02*
X6634172Y-7242388D01*
X6634172Y-7242388D02*
X6634172Y-7194769D01*
X6634172Y-7194769D02*
X6624648Y-7175722D01*
X6624648Y-7175722D02*
X6615125Y-7166198D01*
X6615125Y-7166198D02*
X6596077Y-7156674D01*
X6596077Y-7156674D02*
X6557982Y-7156674D01*
X6557982Y-7156674D02*
X6538934Y-7166198D01*
X6538934Y-7166198D02*
X6529410Y-7175722D01*
X6529410Y-7175722D02*
X6519886Y-7194769D01*
X6710363Y-7080484D02*
X6710363Y-7118579D01*
X6786553Y-7080484D02*
X6786553Y-7118579D01*
X7081791Y-7356674D02*
X7072267Y-7347150D01*
X7072267Y-7347150D02*
X7053220Y-7318579D01*
X7053220Y-7318579D02*
X7043696Y-7299531D01*
X7043696Y-7299531D02*
X7034172Y-7270960D01*
X7034172Y-7270960D02*
X7024648Y-7223341D01*
X7024648Y-7223341D02*
X7024648Y-7185246D01*
X7024648Y-7185246D02*
X7034172Y-7137627D01*
X7034172Y-7137627D02*
X7043696Y-7109055D01*
X7043696Y-7109055D02*
X7053220Y-7090008D01*
X7053220Y-7090008D02*
X7072267Y-7061436D01*
X7072267Y-7061436D02*
X7081791Y-7051912D01*
X7196077Y-7080484D02*
X7215125Y-7080484D01*
X7215125Y-7080484D02*
X7234172Y-7090008D01*
X7234172Y-7090008D02*
X7243696Y-7099531D01*
X7243696Y-7099531D02*
X7253220Y-7118579D01*
X7253220Y-7118579D02*
X7262744Y-7156674D01*
X7262744Y-7156674D02*
X7262744Y-7204293D01*
X7262744Y-7204293D02*
X7253220Y-7242388D01*
X7253220Y-7242388D02*
X7243696Y-7261436D01*
X7243696Y-7261436D02*
X7234172Y-7270960D01*
X7234172Y-7270960D02*
X7215125Y-7280484D01*
X7215125Y-7280484D02*
X7196077Y-7280484D01*
X7196077Y-7280484D02*
X7177029Y-7270960D01*
X7177029Y-7270960D02*
X7167506Y-7261436D01*
X7167506Y-7261436D02*
X7157982Y-7242388D01*
X7157982Y-7242388D02*
X7148458Y-7204293D01*
X7148458Y-7204293D02*
X7148458Y-7156674D01*
X7148458Y-7156674D02*
X7157982Y-7118579D01*
X7157982Y-7118579D02*
X7167506Y-7099531D01*
X7167506Y-7099531D02*
X7177029Y-7090008D01*
X7177029Y-7090008D02*
X7196077Y-7080484D01*
X7500839Y-7280484D02*
X7500839Y-7080484D01*
X7586553Y-7280484D02*
X7586553Y-7175722D01*
X7586553Y-7175722D02*
X7577029Y-7156674D01*
X7577029Y-7156674D02*
X7557982Y-7147150D01*
X7557982Y-7147150D02*
X7529410Y-7147150D01*
X7529410Y-7147150D02*
X7510363Y-7156674D01*
X7510363Y-7156674D02*
X7500839Y-7166198D01*
X7710363Y-7280484D02*
X7691315Y-7270960D01*
X7691315Y-7270960D02*
X7681791Y-7261436D01*
X7681791Y-7261436D02*
X7672268Y-7242388D01*
X7672268Y-7242388D02*
X7672268Y-7185246D01*
X7672268Y-7185246D02*
X7681791Y-7166198D01*
X7681791Y-7166198D02*
X7691315Y-7156674D01*
X7691315Y-7156674D02*
X7710363Y-7147150D01*
X7710363Y-7147150D02*
X7738934Y-7147150D01*
X7738934Y-7147150D02*
X7757982Y-7156674D01*
X7757982Y-7156674D02*
X7767506Y-7166198D01*
X7767506Y-7166198D02*
X7777029Y-7185246D01*
X7777029Y-7185246D02*
X7777029Y-7242388D01*
X7777029Y-7242388D02*
X7767506Y-7261436D01*
X7767506Y-7261436D02*
X7757982Y-7270960D01*
X7757982Y-7270960D02*
X7738934Y-7280484D01*
X7738934Y-7280484D02*
X7710363Y-7280484D01*
X7891315Y-7280484D02*
X7872268Y-7270960D01*
X7872268Y-7270960D02*
X7862744Y-7251912D01*
X7862744Y-7251912D02*
X7862744Y-7080484D01*
X8043696Y-7270960D02*
X8024649Y-7280484D01*
X8024649Y-7280484D02*
X7986553Y-7280484D01*
X7986553Y-7280484D02*
X7967506Y-7270960D01*
X7967506Y-7270960D02*
X7957982Y-7251912D01*
X7957982Y-7251912D02*
X7957982Y-7175722D01*
X7957982Y-7175722D02*
X7967506Y-7156674D01*
X7967506Y-7156674D02*
X7986553Y-7147150D01*
X7986553Y-7147150D02*
X8024649Y-7147150D01*
X8024649Y-7147150D02*
X8043696Y-7156674D01*
X8043696Y-7156674D02*
X8053220Y-7175722D01*
X8053220Y-7175722D02*
X8053220Y-7194769D01*
X8053220Y-7194769D02*
X7957982Y-7213817D01*
X8129410Y-7270960D02*
X8148458Y-7280484D01*
X8148458Y-7280484D02*
X8186553Y-7280484D01*
X8186553Y-7280484D02*
X8205601Y-7270960D01*
X8205601Y-7270960D02*
X8215125Y-7251912D01*
X8215125Y-7251912D02*
X8215125Y-7242388D01*
X8215125Y-7242388D02*
X8205601Y-7223341D01*
X8205601Y-7223341D02*
X8186553Y-7213817D01*
X8186553Y-7213817D02*
X8157982Y-7213817D01*
X8157982Y-7213817D02*
X8138934Y-7204293D01*
X8138934Y-7204293D02*
X8129410Y-7185246D01*
X8129410Y-7185246D02*
X8129410Y-7175722D01*
X8129410Y-7175722D02*
X8138934Y-7156674D01*
X8138934Y-7156674D02*
X8157982Y-7147150D01*
X8157982Y-7147150D02*
X8186553Y-7147150D01*
X8186553Y-7147150D02*
X8205601Y-7156674D01*
X8453220Y-7204293D02*
X8605601Y-7204293D01*
X8529411Y-7280484D02*
X8529411Y-7128103D01*
X8938934Y-7147150D02*
X8938934Y-7280484D01*
X8891315Y-7070960D02*
X8843696Y-7213817D01*
X8843696Y-7213817D02*
X8967506Y-7213817D01*
X9186554Y-7270960D02*
X9205601Y-7280484D01*
X9205601Y-7280484D02*
X9243696Y-7280484D01*
X9243696Y-7280484D02*
X9262744Y-7270960D01*
X9262744Y-7270960D02*
X9272268Y-7251912D01*
X9272268Y-7251912D02*
X9272268Y-7242388D01*
X9272268Y-7242388D02*
X9262744Y-7223341D01*
X9262744Y-7223341D02*
X9243696Y-7213817D01*
X9243696Y-7213817D02*
X9215125Y-7213817D01*
X9215125Y-7213817D02*
X9196077Y-7204293D01*
X9196077Y-7204293D02*
X9186554Y-7185246D01*
X9186554Y-7185246D02*
X9186554Y-7175722D01*
X9186554Y-7175722D02*
X9196077Y-7156674D01*
X9196077Y-7156674D02*
X9215125Y-7147150D01*
X9215125Y-7147150D02*
X9243696Y-7147150D01*
X9243696Y-7147150D02*
X9262744Y-7156674D01*
X9386554Y-7280484D02*
X9367506Y-7270960D01*
X9367506Y-7270960D02*
X9357982Y-7251912D01*
X9357982Y-7251912D02*
X9357982Y-7080484D01*
X9491315Y-7280484D02*
X9472268Y-7270960D01*
X9472268Y-7270960D02*
X9462744Y-7261436D01*
X9462744Y-7261436D02*
X9453220Y-7242388D01*
X9453220Y-7242388D02*
X9453220Y-7185246D01*
X9453220Y-7185246D02*
X9462744Y-7166198D01*
X9462744Y-7166198D02*
X9472268Y-7156674D01*
X9472268Y-7156674D02*
X9491315Y-7147150D01*
X9491315Y-7147150D02*
X9519887Y-7147150D01*
X9519887Y-7147150D02*
X9538935Y-7156674D01*
X9538935Y-7156674D02*
X9548458Y-7166198D01*
X9548458Y-7166198D02*
X9557982Y-7185246D01*
X9557982Y-7185246D02*
X9557982Y-7242388D01*
X9557982Y-7242388D02*
X9548458Y-7261436D01*
X9548458Y-7261436D02*
X9538935Y-7270960D01*
X9538935Y-7270960D02*
X9519887Y-7280484D01*
X9519887Y-7280484D02*
X9491315Y-7280484D01*
X9615125Y-7147150D02*
X9691315Y-7147150D01*
X9643696Y-7080484D02*
X9643696Y-7251912D01*
X9643696Y-7251912D02*
X9653220Y-7270960D01*
X9653220Y-7270960D02*
X9672268Y-7280484D01*
X9672268Y-7280484D02*
X9691315Y-7280484D01*
X9748458Y-7270960D02*
X9767506Y-7280484D01*
X9767506Y-7280484D02*
X9805601Y-7280484D01*
X9805601Y-7280484D02*
X9824649Y-7270960D01*
X9824649Y-7270960D02*
X9834173Y-7251912D01*
X9834173Y-7251912D02*
X9834173Y-7242388D01*
X9834173Y-7242388D02*
X9824649Y-7223341D01*
X9824649Y-7223341D02*
X9805601Y-7213817D01*
X9805601Y-7213817D02*
X9777030Y-7213817D01*
X9777030Y-7213817D02*
X9757982Y-7204293D01*
X9757982Y-7204293D02*
X9748458Y-7185246D01*
X9748458Y-7185246D02*
X9748458Y-7175722D01*
X9748458Y-7175722D02*
X9757982Y-7156674D01*
X9757982Y-7156674D02*
X9777030Y-7147150D01*
X9777030Y-7147150D02*
X9805601Y-7147150D01*
X9805601Y-7147150D02*
X9824649Y-7156674D01*
X9900839Y-7356674D02*
X9910363Y-7347150D01*
X9910363Y-7347150D02*
X9929411Y-7318579D01*
X9929411Y-7318579D02*
X9938935Y-7299531D01*
X9938935Y-7299531D02*
X9948458Y-7270960D01*
X9948458Y-7270960D02*
X9957982Y-7223341D01*
X9957982Y-7223341D02*
X9957982Y-7185246D01*
X9957982Y-7185246D02*
X9948458Y-7137627D01*
X9948458Y-7137627D02*
X9938935Y-7109055D01*
X9938935Y-7109055D02*
X9929411Y-7090008D01*
X9929411Y-7090008D02*
X9910363Y-7061436D01*
X9910363Y-7061436D02*
X9900839Y-7051912D01*
D10*
X3456728Y-7403000D02*
X3456728Y-7503000D01*
X3406728Y-7453000D02*
X3506728Y-7453000D01*
D12*
X3872267Y-7544484D02*
X3757981Y-7544484D01*
X3815124Y-7544484D02*
X3815124Y-7344484D01*
X3815124Y-7344484D02*
X3796077Y-7373055D01*
X3796077Y-7373055D02*
X3777029Y-7392103D01*
X3777029Y-7392103D02*
X3757981Y-7401627D01*
X3957981Y-7525436D02*
X3967505Y-7534960D01*
X3967505Y-7534960D02*
X3957981Y-7544484D01*
X3957981Y-7544484D02*
X3948458Y-7534960D01*
X3948458Y-7534960D02*
X3957981Y-7525436D01*
X3957981Y-7525436D02*
X3957981Y-7544484D01*
X4091315Y-7344484D02*
X4110362Y-7344484D01*
X4110362Y-7344484D02*
X4129410Y-7354008D01*
X4129410Y-7354008D02*
X4138934Y-7363531D01*
X4138934Y-7363531D02*
X4148458Y-7382579D01*
X4148458Y-7382579D02*
X4157981Y-7420674D01*
X4157981Y-7420674D02*
X4157981Y-7468293D01*
X4157981Y-7468293D02*
X4148458Y-7506388D01*
X4148458Y-7506388D02*
X4138934Y-7525436D01*
X4138934Y-7525436D02*
X4129410Y-7534960D01*
X4129410Y-7534960D02*
X4110362Y-7544484D01*
X4110362Y-7544484D02*
X4091315Y-7544484D01*
X4091315Y-7544484D02*
X4072267Y-7534960D01*
X4072267Y-7534960D02*
X4062743Y-7525436D01*
X4062743Y-7525436D02*
X4053220Y-7506388D01*
X4053220Y-7506388D02*
X4043696Y-7468293D01*
X4043696Y-7468293D02*
X4043696Y-7420674D01*
X4043696Y-7420674D02*
X4053220Y-7382579D01*
X4053220Y-7382579D02*
X4062743Y-7363531D01*
X4062743Y-7363531D02*
X4072267Y-7354008D01*
X4072267Y-7354008D02*
X4091315Y-7344484D01*
X4281791Y-7344484D02*
X4300839Y-7344484D01*
X4300839Y-7344484D02*
X4319886Y-7354008D01*
X4319886Y-7354008D02*
X4329410Y-7363531D01*
X4329410Y-7363531D02*
X4338934Y-7382579D01*
X4338934Y-7382579D02*
X4348458Y-7420674D01*
X4348458Y-7420674D02*
X4348458Y-7468293D01*
X4348458Y-7468293D02*
X4338934Y-7506388D01*
X4338934Y-7506388D02*
X4329410Y-7525436D01*
X4329410Y-7525436D02*
X4319886Y-7534960D01*
X4319886Y-7534960D02*
X4300839Y-7544484D01*
X4300839Y-7544484D02*
X4281791Y-7544484D01*
X4281791Y-7544484D02*
X4262743Y-7534960D01*
X4262743Y-7534960D02*
X4253220Y-7525436D01*
X4253220Y-7525436D02*
X4243696Y-7506388D01*
X4243696Y-7506388D02*
X4234172Y-7468293D01*
X4234172Y-7468293D02*
X4234172Y-7420674D01*
X4234172Y-7420674D02*
X4243696Y-7382579D01*
X4243696Y-7382579D02*
X4253220Y-7363531D01*
X4253220Y-7363531D02*
X4262743Y-7354008D01*
X4262743Y-7354008D02*
X4281791Y-7344484D01*
X4472267Y-7344484D02*
X4491315Y-7344484D01*
X4491315Y-7344484D02*
X4510363Y-7354008D01*
X4510363Y-7354008D02*
X4519886Y-7363531D01*
X4519886Y-7363531D02*
X4529410Y-7382579D01*
X4529410Y-7382579D02*
X4538934Y-7420674D01*
X4538934Y-7420674D02*
X4538934Y-7468293D01*
X4538934Y-7468293D02*
X4529410Y-7506388D01*
X4529410Y-7506388D02*
X4519886Y-7525436D01*
X4519886Y-7525436D02*
X4510363Y-7534960D01*
X4510363Y-7534960D02*
X4491315Y-7544484D01*
X4491315Y-7544484D02*
X4472267Y-7544484D01*
X4472267Y-7544484D02*
X4453220Y-7534960D01*
X4453220Y-7534960D02*
X4443696Y-7525436D01*
X4443696Y-7525436D02*
X4434172Y-7506388D01*
X4434172Y-7506388D02*
X4424648Y-7468293D01*
X4424648Y-7468293D02*
X4424648Y-7420674D01*
X4424648Y-7420674D02*
X4434172Y-7382579D01*
X4434172Y-7382579D02*
X4443696Y-7363531D01*
X4443696Y-7363531D02*
X4453220Y-7354008D01*
X4453220Y-7354008D02*
X4472267Y-7344484D01*
X4624648Y-7544484D02*
X4624648Y-7411150D01*
X4624648Y-7430198D02*
X4634172Y-7420674D01*
X4634172Y-7420674D02*
X4653220Y-7411150D01*
X4653220Y-7411150D02*
X4681791Y-7411150D01*
X4681791Y-7411150D02*
X4700839Y-7420674D01*
X4700839Y-7420674D02*
X4710363Y-7439722D01*
X4710363Y-7439722D02*
X4710363Y-7544484D01*
X4710363Y-7439722D02*
X4719886Y-7420674D01*
X4719886Y-7420674D02*
X4738934Y-7411150D01*
X4738934Y-7411150D02*
X4767505Y-7411150D01*
X4767505Y-7411150D02*
X4786553Y-7420674D01*
X4786553Y-7420674D02*
X4796077Y-7439722D01*
X4796077Y-7439722D02*
X4796077Y-7544484D01*
X4891315Y-7544484D02*
X4891315Y-7411150D01*
X4891315Y-7430198D02*
X4900839Y-7420674D01*
X4900839Y-7420674D02*
X4919886Y-7411150D01*
X4919886Y-7411150D02*
X4948458Y-7411150D01*
X4948458Y-7411150D02*
X4967505Y-7420674D01*
X4967505Y-7420674D02*
X4977029Y-7439722D01*
X4977029Y-7439722D02*
X4977029Y-7544484D01*
X4977029Y-7439722D02*
X4986553Y-7420674D01*
X4986553Y-7420674D02*
X5005601Y-7411150D01*
X5005601Y-7411150D02*
X5034172Y-7411150D01*
X5034172Y-7411150D02*
X5053220Y-7420674D01*
X5053220Y-7420674D02*
X5062744Y-7439722D01*
X5062744Y-7439722D02*
X5062744Y-7544484D01*
X5453220Y-7334960D02*
X5281791Y-7592103D01*
X5710363Y-7344484D02*
X5729410Y-7344484D01*
X5729410Y-7344484D02*
X5748458Y-7354008D01*
X5748458Y-7354008D02*
X5757982Y-7363531D01*
X5757982Y-7363531D02*
X5767505Y-7382579D01*
X5767505Y-7382579D02*
X5777029Y-7420674D01*
X5777029Y-7420674D02*
X5777029Y-7468293D01*
X5777029Y-7468293D02*
X5767505Y-7506388D01*
X5767505Y-7506388D02*
X5757982Y-7525436D01*
X5757982Y-7525436D02*
X5748458Y-7534960D01*
X5748458Y-7534960D02*
X5729410Y-7544484D01*
X5729410Y-7544484D02*
X5710363Y-7544484D01*
X5710363Y-7544484D02*
X5691315Y-7534960D01*
X5691315Y-7534960D02*
X5681791Y-7525436D01*
X5681791Y-7525436D02*
X5672267Y-7506388D01*
X5672267Y-7506388D02*
X5662744Y-7468293D01*
X5662744Y-7468293D02*
X5662744Y-7420674D01*
X5662744Y-7420674D02*
X5672267Y-7382579D01*
X5672267Y-7382579D02*
X5681791Y-7363531D01*
X5681791Y-7363531D02*
X5691315Y-7354008D01*
X5691315Y-7354008D02*
X5710363Y-7344484D01*
X5862744Y-7525436D02*
X5872267Y-7534960D01*
X5872267Y-7534960D02*
X5862744Y-7544484D01*
X5862744Y-7544484D02*
X5853220Y-7534960D01*
X5853220Y-7534960D02*
X5862744Y-7525436D01*
X5862744Y-7525436D02*
X5862744Y-7544484D01*
X5996077Y-7344484D02*
X6015125Y-7344484D01*
X6015125Y-7344484D02*
X6034172Y-7354008D01*
X6034172Y-7354008D02*
X6043696Y-7363531D01*
X6043696Y-7363531D02*
X6053220Y-7382579D01*
X6053220Y-7382579D02*
X6062744Y-7420674D01*
X6062744Y-7420674D02*
X6062744Y-7468293D01*
X6062744Y-7468293D02*
X6053220Y-7506388D01*
X6053220Y-7506388D02*
X6043696Y-7525436D01*
X6043696Y-7525436D02*
X6034172Y-7534960D01*
X6034172Y-7534960D02*
X6015125Y-7544484D01*
X6015125Y-7544484D02*
X5996077Y-7544484D01*
X5996077Y-7544484D02*
X5977029Y-7534960D01*
X5977029Y-7534960D02*
X5967505Y-7525436D01*
X5967505Y-7525436D02*
X5957982Y-7506388D01*
X5957982Y-7506388D02*
X5948458Y-7468293D01*
X5948458Y-7468293D02*
X5948458Y-7420674D01*
X5948458Y-7420674D02*
X5957982Y-7382579D01*
X5957982Y-7382579D02*
X5967505Y-7363531D01*
X5967505Y-7363531D02*
X5977029Y-7354008D01*
X5977029Y-7354008D02*
X5996077Y-7344484D01*
X6129410Y-7344484D02*
X6253220Y-7344484D01*
X6253220Y-7344484D02*
X6186553Y-7420674D01*
X6186553Y-7420674D02*
X6215125Y-7420674D01*
X6215125Y-7420674D02*
X6234172Y-7430198D01*
X6234172Y-7430198D02*
X6243696Y-7439722D01*
X6243696Y-7439722D02*
X6253220Y-7458769D01*
X6253220Y-7458769D02*
X6253220Y-7506388D01*
X6253220Y-7506388D02*
X6243696Y-7525436D01*
X6243696Y-7525436D02*
X6234172Y-7534960D01*
X6234172Y-7534960D02*
X6215125Y-7544484D01*
X6215125Y-7544484D02*
X6157982Y-7544484D01*
X6157982Y-7544484D02*
X6138934Y-7534960D01*
X6138934Y-7534960D02*
X6129410Y-7525436D01*
X6348458Y-7544484D02*
X6386553Y-7544484D01*
X6386553Y-7544484D02*
X6405601Y-7534960D01*
X6405601Y-7534960D02*
X6415125Y-7525436D01*
X6415125Y-7525436D02*
X6434172Y-7496865D01*
X6434172Y-7496865D02*
X6443696Y-7458769D01*
X6443696Y-7458769D02*
X6443696Y-7382579D01*
X6443696Y-7382579D02*
X6434172Y-7363531D01*
X6434172Y-7363531D02*
X6424648Y-7354008D01*
X6424648Y-7354008D02*
X6405601Y-7344484D01*
X6405601Y-7344484D02*
X6367505Y-7344484D01*
X6367505Y-7344484D02*
X6348458Y-7354008D01*
X6348458Y-7354008D02*
X6338934Y-7363531D01*
X6338934Y-7363531D02*
X6329410Y-7382579D01*
X6329410Y-7382579D02*
X6329410Y-7430198D01*
X6329410Y-7430198D02*
X6338934Y-7449246D01*
X6338934Y-7449246D02*
X6348458Y-7458769D01*
X6348458Y-7458769D02*
X6367505Y-7468293D01*
X6367505Y-7468293D02*
X6405601Y-7468293D01*
X6405601Y-7468293D02*
X6424648Y-7458769D01*
X6424648Y-7458769D02*
X6434172Y-7449246D01*
X6434172Y-7449246D02*
X6443696Y-7430198D01*
X6615125Y-7411150D02*
X6615125Y-7544484D01*
X6567505Y-7334960D02*
X6519886Y-7477817D01*
X6519886Y-7477817D02*
X6643696Y-7477817D01*
X6710363Y-7344484D02*
X6710363Y-7382579D01*
X6786553Y-7344484D02*
X6786553Y-7382579D01*
X7081791Y-7620674D02*
X7072267Y-7611150D01*
X7072267Y-7611150D02*
X7053220Y-7582579D01*
X7053220Y-7582579D02*
X7043696Y-7563531D01*
X7043696Y-7563531D02*
X7034172Y-7534960D01*
X7034172Y-7534960D02*
X7024648Y-7487341D01*
X7024648Y-7487341D02*
X7024648Y-7449246D01*
X7024648Y-7449246D02*
X7034172Y-7401627D01*
X7034172Y-7401627D02*
X7043696Y-7373055D01*
X7043696Y-7373055D02*
X7053220Y-7354008D01*
X7053220Y-7354008D02*
X7072267Y-7325436D01*
X7072267Y-7325436D02*
X7081791Y-7315912D01*
X7138934Y-7344484D02*
X7262744Y-7344484D01*
X7262744Y-7344484D02*
X7196077Y-7420674D01*
X7196077Y-7420674D02*
X7224648Y-7420674D01*
X7224648Y-7420674D02*
X7243696Y-7430198D01*
X7243696Y-7430198D02*
X7253220Y-7439722D01*
X7253220Y-7439722D02*
X7262744Y-7458769D01*
X7262744Y-7458769D02*
X7262744Y-7506388D01*
X7262744Y-7506388D02*
X7253220Y-7525436D01*
X7253220Y-7525436D02*
X7243696Y-7534960D01*
X7243696Y-7534960D02*
X7224648Y-7544484D01*
X7224648Y-7544484D02*
X7167506Y-7544484D01*
X7167506Y-7544484D02*
X7148458Y-7534960D01*
X7148458Y-7534960D02*
X7138934Y-7525436D01*
X7500839Y-7544484D02*
X7500839Y-7344484D01*
X7586553Y-7544484D02*
X7586553Y-7439722D01*
X7586553Y-7439722D02*
X7577029Y-7420674D01*
X7577029Y-7420674D02*
X7557982Y-7411150D01*
X7557982Y-7411150D02*
X7529410Y-7411150D01*
X7529410Y-7411150D02*
X7510363Y-7420674D01*
X7510363Y-7420674D02*
X7500839Y-7430198D01*
X7710363Y-7544484D02*
X7691315Y-7534960D01*
X7691315Y-7534960D02*
X7681791Y-7525436D01*
X7681791Y-7525436D02*
X7672268Y-7506388D01*
X7672268Y-7506388D02*
X7672268Y-7449246D01*
X7672268Y-7449246D02*
X7681791Y-7430198D01*
X7681791Y-7430198D02*
X7691315Y-7420674D01*
X7691315Y-7420674D02*
X7710363Y-7411150D01*
X7710363Y-7411150D02*
X7738934Y-7411150D01*
X7738934Y-7411150D02*
X7757982Y-7420674D01*
X7757982Y-7420674D02*
X7767506Y-7430198D01*
X7767506Y-7430198D02*
X7777029Y-7449246D01*
X7777029Y-7449246D02*
X7777029Y-7506388D01*
X7777029Y-7506388D02*
X7767506Y-7525436D01*
X7767506Y-7525436D02*
X7757982Y-7534960D01*
X7757982Y-7534960D02*
X7738934Y-7544484D01*
X7738934Y-7544484D02*
X7710363Y-7544484D01*
X7891315Y-7544484D02*
X7872268Y-7534960D01*
X7872268Y-7534960D02*
X7862744Y-7515912D01*
X7862744Y-7515912D02*
X7862744Y-7344484D01*
X8043696Y-7534960D02*
X8024649Y-7544484D01*
X8024649Y-7544484D02*
X7986553Y-7544484D01*
X7986553Y-7544484D02*
X7967506Y-7534960D01*
X7967506Y-7534960D02*
X7957982Y-7515912D01*
X7957982Y-7515912D02*
X7957982Y-7439722D01*
X7957982Y-7439722D02*
X7967506Y-7420674D01*
X7967506Y-7420674D02*
X7986553Y-7411150D01*
X7986553Y-7411150D02*
X8024649Y-7411150D01*
X8024649Y-7411150D02*
X8043696Y-7420674D01*
X8043696Y-7420674D02*
X8053220Y-7439722D01*
X8053220Y-7439722D02*
X8053220Y-7458769D01*
X8053220Y-7458769D02*
X7957982Y-7477817D01*
X8129410Y-7534960D02*
X8148458Y-7544484D01*
X8148458Y-7544484D02*
X8186553Y-7544484D01*
X8186553Y-7544484D02*
X8205601Y-7534960D01*
X8205601Y-7534960D02*
X8215125Y-7515912D01*
X8215125Y-7515912D02*
X8215125Y-7506388D01*
X8215125Y-7506388D02*
X8205601Y-7487341D01*
X8205601Y-7487341D02*
X8186553Y-7477817D01*
X8186553Y-7477817D02*
X8157982Y-7477817D01*
X8157982Y-7477817D02*
X8138934Y-7468293D01*
X8138934Y-7468293D02*
X8129410Y-7449246D01*
X8129410Y-7449246D02*
X8129410Y-7439722D01*
X8129410Y-7439722D02*
X8138934Y-7420674D01*
X8138934Y-7420674D02*
X8157982Y-7411150D01*
X8157982Y-7411150D02*
X8186553Y-7411150D01*
X8186553Y-7411150D02*
X8205601Y-7420674D01*
X8281791Y-7620674D02*
X8291315Y-7611150D01*
X8291315Y-7611150D02*
X8310363Y-7582579D01*
X8310363Y-7582579D02*
X8319887Y-7563531D01*
X8319887Y-7563531D02*
X8329410Y-7534960D01*
X8329410Y-7534960D02*
X8338934Y-7487341D01*
X8338934Y-7487341D02*
X8338934Y-7449246D01*
X8338934Y-7449246D02*
X8329410Y-7401627D01*
X8329410Y-7401627D02*
X8319887Y-7373055D01*
X8319887Y-7373055D02*
X8310363Y-7354008D01*
X8310363Y-7354008D02*
X8291315Y-7325436D01*
X8291315Y-7325436D02*
X8281791Y-7315912D01*
M02*
