%TF.GenerationSoftware,KiCad,Pcbnew,7.0.10*%
%TF.CreationDate,2024-04-29T22:25:33+02:00*%
%TF.ProjectId,GhostControllerLED,47686f73-7443-46f6-9e74-726f6c6c6572,rev?*%
%TF.SameCoordinates,Original*%
%TF.FileFunction,Drillmap*%
%TF.FilePolarity,Positive*%
%FSLAX45Y45*%
G04 Gerber Fmt 4.5, Leading zero omitted, Abs format (unit mm)*
G04 Created by KiCad (PCBNEW 7.0.10) date 2024-04-29 22:25:33*
%MOMM*%
%LPD*%
G01*
G04 APERTURE LIST*
%ADD10C,0.100000*%
%ADD11C,0.050000*%
%ADD12C,0.200000*%
G04 APERTURE END LIST*
D10*
X3786728Y-4865000D02*
G75*
G03*
X3586728Y-4865000I-100000J0D01*
G01*
X3586728Y-4865000D02*
G75*
G03*
X3786728Y-4865000I100000J0D01*
G01*
X6266728Y-4865000D02*
G75*
G03*
X6066728Y-4865000I-100000J0D01*
G01*
X6066728Y-4865000D02*
G75*
G03*
X6266728Y-4865000I100000J0D01*
G01*
X6341728Y-4865000D02*
G75*
G03*
X3511728Y-4865000I-1415000J0D01*
G01*
X3511728Y-4865000D02*
G75*
G03*
X6341728Y-4865000I1415000J0D01*
G01*
D11*
X5511729Y-4865000D02*
G75*
G03*
X5421729Y-4865000I-45000J0D01*
G01*
X5421729Y-4865000D02*
G75*
G03*
X5511729Y-4865000I45000J0D01*
G01*
X4431729Y-4865000D02*
G75*
G03*
X4341729Y-4865000I-45000J0D01*
G01*
X4341729Y-4865000D02*
G75*
G03*
X4431729Y-4865000I45000J0D01*
G01*
D12*
X3767505Y-6596484D02*
X3767505Y-6396484D01*
X3767505Y-6396484D02*
X3815124Y-6396484D01*
X3815124Y-6396484D02*
X3843696Y-6406008D01*
X3843696Y-6406008D02*
X3862743Y-6425055D01*
X3862743Y-6425055D02*
X3872267Y-6444103D01*
X3872267Y-6444103D02*
X3881791Y-6482198D01*
X3881791Y-6482198D02*
X3881791Y-6510769D01*
X3881791Y-6510769D02*
X3872267Y-6548865D01*
X3872267Y-6548865D02*
X3862743Y-6567912D01*
X3862743Y-6567912D02*
X3843696Y-6586960D01*
X3843696Y-6586960D02*
X3815124Y-6596484D01*
X3815124Y-6596484D02*
X3767505Y-6596484D01*
X3967505Y-6596484D02*
X3967505Y-6463150D01*
X3967505Y-6501246D02*
X3977029Y-6482198D01*
X3977029Y-6482198D02*
X3986553Y-6472674D01*
X3986553Y-6472674D02*
X4005600Y-6463150D01*
X4005600Y-6463150D02*
X4024648Y-6463150D01*
X4091315Y-6596484D02*
X4091315Y-6463150D01*
X4091315Y-6396484D02*
X4081791Y-6406008D01*
X4081791Y-6406008D02*
X4091315Y-6415531D01*
X4091315Y-6415531D02*
X4100839Y-6406008D01*
X4100839Y-6406008D02*
X4091315Y-6396484D01*
X4091315Y-6396484D02*
X4091315Y-6415531D01*
X4215124Y-6596484D02*
X4196077Y-6586960D01*
X4196077Y-6586960D02*
X4186553Y-6567912D01*
X4186553Y-6567912D02*
X4186553Y-6396484D01*
X4319886Y-6596484D02*
X4300839Y-6586960D01*
X4300839Y-6586960D02*
X4291315Y-6567912D01*
X4291315Y-6567912D02*
X4291315Y-6396484D01*
X4548458Y-6596484D02*
X4548458Y-6396484D01*
X4548458Y-6396484D02*
X4615124Y-6539341D01*
X4615124Y-6539341D02*
X4681791Y-6396484D01*
X4681791Y-6396484D02*
X4681791Y-6596484D01*
X4862743Y-6596484D02*
X4862743Y-6491722D01*
X4862743Y-6491722D02*
X4853220Y-6472674D01*
X4853220Y-6472674D02*
X4834172Y-6463150D01*
X4834172Y-6463150D02*
X4796077Y-6463150D01*
X4796077Y-6463150D02*
X4777029Y-6472674D01*
X4862743Y-6586960D02*
X4843696Y-6596484D01*
X4843696Y-6596484D02*
X4796077Y-6596484D01*
X4796077Y-6596484D02*
X4777029Y-6586960D01*
X4777029Y-6586960D02*
X4767505Y-6567912D01*
X4767505Y-6567912D02*
X4767505Y-6548865D01*
X4767505Y-6548865D02*
X4777029Y-6529817D01*
X4777029Y-6529817D02*
X4796077Y-6520293D01*
X4796077Y-6520293D02*
X4843696Y-6520293D01*
X4843696Y-6520293D02*
X4862743Y-6510769D01*
X4957982Y-6463150D02*
X4957982Y-6663150D01*
X4957982Y-6472674D02*
X4977029Y-6463150D01*
X4977029Y-6463150D02*
X5015124Y-6463150D01*
X5015124Y-6463150D02*
X5034172Y-6472674D01*
X5034172Y-6472674D02*
X5043696Y-6482198D01*
X5043696Y-6482198D02*
X5053220Y-6501246D01*
X5053220Y-6501246D02*
X5053220Y-6558388D01*
X5053220Y-6558388D02*
X5043696Y-6577436D01*
X5043696Y-6577436D02*
X5034172Y-6586960D01*
X5034172Y-6586960D02*
X5015124Y-6596484D01*
X5015124Y-6596484D02*
X4977029Y-6596484D01*
X4977029Y-6596484D02*
X4957982Y-6586960D01*
X5138934Y-6577436D02*
X5148458Y-6586960D01*
X5148458Y-6586960D02*
X5138934Y-6596484D01*
X5138934Y-6596484D02*
X5129410Y-6586960D01*
X5129410Y-6586960D02*
X5138934Y-6577436D01*
X5138934Y-6577436D02*
X5138934Y-6596484D01*
X5138934Y-6472674D02*
X5148458Y-6482198D01*
X5148458Y-6482198D02*
X5138934Y-6491722D01*
X5138934Y-6491722D02*
X5129410Y-6482198D01*
X5129410Y-6482198D02*
X5138934Y-6472674D01*
X5138934Y-6472674D02*
X5138934Y-6491722D01*
M02*
