%TF.GenerationSoftware,KiCad,Pcbnew,7.0.10*%
%TF.CreationDate,2024-04-29T22:23:39+02:00*%
%TF.ProjectId,GhostControllerLED,47686f73-7443-46f6-9e74-726f6c6c6572,rev?*%
%TF.SameCoordinates,Original*%
%TF.FileFunction,Legend,Top*%
%TF.FilePolarity,Positive*%
%FSLAX46Y46*%
G04 Gerber Fmt 4.6, Leading zero omitted, Abs format (unit mm)*
G04 Created by KiCad (PCBNEW 7.0.10) date 2024-04-29 22:23:39*
%MOMM*%
%LPD*%
G01*
G04 APERTURE LIST*
G04 Aperture macros list*
%AMRoundRect*
0 Rectangle with rounded corners*
0 $1 Rounding radius*
0 $2 $3 $4 $5 $6 $7 $8 $9 X,Y pos of 4 corners*
0 Add a 4 corners polygon primitive as box body*
4,1,4,$2,$3,$4,$5,$6,$7,$8,$9,$2,$3,0*
0 Add four circle primitives for the rounded corners*
1,1,$1+$1,$2,$3*
1,1,$1+$1,$4,$5*
1,1,$1+$1,$6,$7*
1,1,$1+$1,$8,$9*
0 Add four rect primitives between the rounded corners*
20,1,$1+$1,$2,$3,$4,$5,0*
20,1,$1+$1,$4,$5,$6,$7,0*
20,1,$1+$1,$6,$7,$8,$9,0*
20,1,$1+$1,$8,$9,$2,$3,0*%
%AMRotRect*
0 Rectangle, with rotation*
0 The origin of the aperture is its center*
0 $1 length*
0 $2 width*
0 $3 Rotation angle, in degrees counterclockwise*
0 Add horizontal line*
21,1,$1,$2,0,0,$3*%
G04 Aperture macros list end*
%ADD10C,0.150000*%
%ADD11C,0.100000*%
%ADD12C,0.250000*%
%ADD13C,0.175000*%
%ADD14C,0.200000*%
%ADD15C,0.120000*%
%ADD16RotRect,1.500000X1.000000X112.500000*%
%ADD17RotRect,1.500000X1.000000X22.500000*%
%ADD18RoundRect,0.200000X-0.200000X-0.275000X0.200000X-0.275000X0.200000X0.275000X-0.200000X0.275000X0*%
%ADD19RotRect,1.500000X1.000000X157.500000*%
%ADD20RoundRect,0.225000X-0.017678X0.335876X-0.335876X0.017678X0.017678X-0.335876X0.335876X-0.017678X0*%
%ADD21RoundRect,0.225000X-0.335876X-0.017678X-0.017678X-0.335876X0.335876X0.017678X0.017678X0.335876X0*%
%ADD22RoundRect,0.225000X0.335876X0.017678X0.017678X0.335876X-0.335876X-0.017678X-0.017678X-0.335876X0*%
%ADD23RotRect,1.500000X1.000000X292.500000*%
%ADD24RoundRect,0.225000X0.250000X-0.225000X0.250000X0.225000X-0.250000X0.225000X-0.250000X-0.225000X0*%
%ADD25RoundRect,0.225000X-0.250000X0.225000X-0.250000X-0.225000X0.250000X-0.225000X0.250000X0.225000X0*%
%ADD26RotRect,1.500000X1.000000X247.500000*%
%ADD27RotRect,1.500000X1.000000X337.500000*%
%ADD28RotRect,1.500000X1.000000X67.500000*%
%ADD29RotRect,1.500000X1.000000X202.500000*%
%ADD30RoundRect,0.225000X0.017678X-0.335876X0.335876X-0.017678X-0.017678X0.335876X-0.335876X0.017678X0*%
%ADD31R,1.700000X1.700000*%
%ADD32O,1.700000X1.700000*%
%ADD33RoundRect,0.500000X0.425000X0.000000X-0.425000X0.000000X-0.425000X0.000000X0.425000X0.000000X0*%
G04 APERTURE END LIST*
D10*
X41657600Y-42212998D02*
X41963747Y-41473894D01*
X41963747Y-41473894D02*
X42139724Y-41546786D01*
X42139724Y-41546786D02*
X42230732Y-41625717D01*
X42230732Y-41625717D02*
X42271966Y-41725265D01*
X42271966Y-41725265D02*
X42278004Y-41810234D01*
X42278004Y-41810234D02*
X42254886Y-41965594D01*
X42254886Y-41965594D02*
X42211151Y-42071180D01*
X42211151Y-42071180D02*
X42117642Y-42197383D01*
X42117642Y-42197383D02*
X42053289Y-42253196D01*
X42053289Y-42253196D02*
X41953742Y-42294430D01*
X41953742Y-42294430D02*
X41833577Y-42285890D01*
X41833577Y-42285890D02*
X41657600Y-42212998D01*
X42677231Y-42140535D02*
X42621419Y-42076183D01*
X42621419Y-42076183D02*
X42600802Y-42026409D01*
X42600802Y-42026409D02*
X42594763Y-41941440D01*
X42594763Y-41941440D02*
X42609341Y-41906244D01*
X42609341Y-41906244D02*
X42673694Y-41850432D01*
X42673694Y-41850432D02*
X42723468Y-41829815D01*
X42723468Y-41829815D02*
X42808437Y-41823776D01*
X42808437Y-41823776D02*
X42949218Y-41882090D01*
X42949218Y-41882090D02*
X43005031Y-41946442D01*
X43005031Y-41946442D02*
X43025648Y-41996216D01*
X43025648Y-41996216D02*
X43031686Y-42081185D01*
X43031686Y-42081185D02*
X43017108Y-42116381D01*
X43017108Y-42116381D02*
X42952756Y-42172193D01*
X42952756Y-42172193D02*
X42902982Y-42192810D01*
X42902982Y-42192810D02*
X42818013Y-42198849D01*
X42818013Y-42198849D02*
X42677231Y-42140535D01*
X42677231Y-42140535D02*
X42592262Y-42146573D01*
X42592262Y-42146573D02*
X42542488Y-42167190D01*
X42542488Y-42167190D02*
X42478136Y-42223003D01*
X42478136Y-42223003D02*
X42419822Y-42363785D01*
X42419822Y-42363785D02*
X42425861Y-42448754D01*
X42425861Y-42448754D02*
X42446478Y-42498528D01*
X42446478Y-42498528D02*
X42502290Y-42562880D01*
X42502290Y-42562880D02*
X42643072Y-42621194D01*
X42643072Y-42621194D02*
X42728041Y-42615155D01*
X42728041Y-42615155D02*
X42777815Y-42594538D01*
X42777815Y-42594538D02*
X42842167Y-42538726D01*
X42842167Y-42538726D02*
X42900481Y-42397944D01*
X42900481Y-42397944D02*
X42894442Y-42312975D01*
X42894442Y-42312975D02*
X42873825Y-42263201D01*
X42873825Y-42263201D02*
X42818013Y-42198849D01*
X48508315Y-38876697D02*
X49247418Y-38570550D01*
X49247418Y-38570550D02*
X49320310Y-38746528D01*
X49320310Y-38746528D02*
X49328850Y-38866692D01*
X49328850Y-38866692D02*
X49287616Y-38966240D01*
X49287616Y-38966240D02*
X49231804Y-39030592D01*
X49231804Y-39030592D02*
X49105601Y-39124101D01*
X49105601Y-39124101D02*
X49000014Y-39167836D01*
X49000014Y-39167836D02*
X48844654Y-39190955D01*
X48844654Y-39190955D02*
X48759685Y-39184916D01*
X48759685Y-39184916D02*
X48660138Y-39143682D01*
X48660138Y-39143682D02*
X48581207Y-39052674D01*
X48581207Y-39052674D02*
X48508315Y-38876697D01*
X49524408Y-39239263D02*
X49728506Y-39731999D01*
X49728506Y-39731999D02*
X48858197Y-39721387D01*
X56162998Y-42142399D02*
X55423894Y-41836252D01*
X55423894Y-41836252D02*
X55496786Y-41660275D01*
X55496786Y-41660275D02*
X55575717Y-41569267D01*
X55575717Y-41569267D02*
X55675265Y-41528033D01*
X55675265Y-41528033D02*
X55760234Y-41521995D01*
X55760234Y-41521995D02*
X55915594Y-41545113D01*
X55915594Y-41545113D02*
X56021180Y-41588848D01*
X56021180Y-41588848D02*
X56147383Y-41682357D01*
X56147383Y-41682357D02*
X56203196Y-41746710D01*
X56203196Y-41746710D02*
X56244430Y-41846257D01*
X56244430Y-41846257D02*
X56235890Y-41966422D01*
X56235890Y-41966422D02*
X56162998Y-42142399D01*
X55861247Y-40780390D02*
X55802933Y-40921171D01*
X55802933Y-40921171D02*
X55808972Y-41006141D01*
X55808972Y-41006141D02*
X55829589Y-41055914D01*
X55829589Y-41055914D02*
X55906018Y-41170041D01*
X55906018Y-41170041D02*
X56032221Y-41263550D01*
X56032221Y-41263550D02*
X56313785Y-41380177D01*
X56313785Y-41380177D02*
X56398754Y-41374138D01*
X56398754Y-41374138D02*
X56448528Y-41353521D01*
X56448528Y-41353521D02*
X56512880Y-41297709D01*
X56512880Y-41297709D02*
X56571194Y-41156927D01*
X56571194Y-41156927D02*
X56565155Y-41071958D01*
X56565155Y-41071958D02*
X56544538Y-41022184D01*
X56544538Y-41022184D02*
X56488726Y-40957832D01*
X56488726Y-40957832D02*
X56312748Y-40884940D01*
X56312748Y-40884940D02*
X56227779Y-40890979D01*
X56227779Y-40890979D02*
X56178005Y-40911596D01*
X56178005Y-40911596D02*
X56113653Y-40967408D01*
X56113653Y-40967408D02*
X56055340Y-41108190D01*
X56055340Y-41108190D02*
X56061378Y-41193159D01*
X56061378Y-41193159D02*
X56081995Y-41242933D01*
X56081995Y-41242933D02*
X56137807Y-41307285D01*
X58676697Y-48991684D02*
X58370550Y-48252581D01*
X58370550Y-48252581D02*
X58546528Y-48179689D01*
X58546528Y-48179689D02*
X58666692Y-48171149D01*
X58666692Y-48171149D02*
X58766240Y-48212383D01*
X58766240Y-48212383D02*
X58830592Y-48268195D01*
X58830592Y-48268195D02*
X58924101Y-48394398D01*
X58924101Y-48394398D02*
X58967836Y-48499985D01*
X58967836Y-48499985D02*
X58990955Y-48655345D01*
X58990955Y-48655345D02*
X58984916Y-48740314D01*
X58984916Y-48740314D02*
X58943682Y-48839861D01*
X58943682Y-48839861D02*
X58852674Y-48918792D01*
X58852674Y-48918792D02*
X58676697Y-48991684D01*
X59461608Y-47800650D02*
X59109654Y-47946434D01*
X59109654Y-47946434D02*
X59220243Y-48312966D01*
X59220243Y-48312966D02*
X59240860Y-48263193D01*
X59240860Y-48263193D02*
X59296672Y-48198840D01*
X59296672Y-48198840D02*
X59472649Y-48125948D01*
X59472649Y-48125948D02*
X59557619Y-48131987D01*
X59557619Y-48131987D02*
X59607392Y-48152604D01*
X59607392Y-48152604D02*
X59671745Y-48208416D01*
X59671745Y-48208416D02*
X59744637Y-48384393D01*
X59744637Y-48384393D02*
X59738598Y-48469362D01*
X59738598Y-48469362D02*
X59717981Y-48519136D01*
X59717981Y-48519136D02*
X59662169Y-48583489D01*
X59662169Y-48583489D02*
X59486192Y-48656381D01*
X59486192Y-48656381D02*
X59401222Y-48650342D01*
X59401222Y-48650342D02*
X59351449Y-48629725D01*
X55657600Y-55462998D02*
X55963747Y-54723894D01*
X55963747Y-54723894D02*
X56139724Y-54796786D01*
X56139724Y-54796786D02*
X56230732Y-54875717D01*
X56230732Y-54875717D02*
X56271966Y-54975265D01*
X56271966Y-54975265D02*
X56278004Y-55060234D01*
X56278004Y-55060234D02*
X56254886Y-55215594D01*
X56254886Y-55215594D02*
X56211151Y-55321180D01*
X56211151Y-55321180D02*
X56117642Y-55447383D01*
X56117642Y-55447383D02*
X56053289Y-55503196D01*
X56053289Y-55503196D02*
X55953742Y-55544430D01*
X55953742Y-55544430D02*
X55833577Y-55535890D01*
X55833577Y-55535890D02*
X55657600Y-55462998D01*
X56917560Y-55407615D02*
X56713462Y-55900350D01*
X56858211Y-55053159D02*
X56463557Y-55508198D01*
X56463557Y-55508198D02*
X56921098Y-55697718D01*
X48858315Y-57676697D02*
X49597418Y-57370550D01*
X49597418Y-57370550D02*
X49670310Y-57546528D01*
X49670310Y-57546528D02*
X49678850Y-57666692D01*
X49678850Y-57666692D02*
X49637616Y-57766240D01*
X49637616Y-57766240D02*
X49581804Y-57830592D01*
X49581804Y-57830592D02*
X49455601Y-57924101D01*
X49455601Y-57924101D02*
X49350014Y-57967836D01*
X49350014Y-57967836D02*
X49194654Y-57990955D01*
X49194654Y-57990955D02*
X49109685Y-57984916D01*
X49109685Y-57984916D02*
X49010138Y-57943682D01*
X49010138Y-57943682D02*
X48931207Y-57852674D01*
X48931207Y-57852674D02*
X48858315Y-57676697D01*
X49874408Y-58039263D02*
X50063928Y-58496804D01*
X50063928Y-58496804D02*
X49680316Y-58367063D01*
X49680316Y-58367063D02*
X49724051Y-58472649D01*
X49724051Y-58472649D02*
X49718012Y-58557619D01*
X49718012Y-58557619D02*
X49697395Y-58607392D01*
X49697395Y-58607392D02*
X49641583Y-58671745D01*
X49641583Y-58671745D02*
X49465606Y-58744637D01*
X49465606Y-58744637D02*
X49380637Y-58738598D01*
X49380637Y-58738598D02*
X49330863Y-58717981D01*
X49330863Y-58717981D02*
X49266510Y-58662169D01*
X49266510Y-58662169D02*
X49179040Y-58450996D01*
X49179040Y-58450996D02*
X49185079Y-58366027D01*
X49185079Y-58366027D02*
X49205696Y-58316253D01*
D11*
X42950000Y-49800000D02*
X43150000Y-49300000D01*
X42950000Y-49800000D02*
X42450000Y-49550000D01*
X42500000Y-48700000D02*
X42950000Y-49800000D01*
D10*
X42812998Y-56292399D02*
X42073894Y-55986252D01*
X42073894Y-55986252D02*
X42146786Y-55810275D01*
X42146786Y-55810275D02*
X42225717Y-55719267D01*
X42225717Y-55719267D02*
X42325265Y-55678033D01*
X42325265Y-55678033D02*
X42410234Y-55671995D01*
X42410234Y-55671995D02*
X42565594Y-55695113D01*
X42565594Y-55695113D02*
X42671180Y-55738848D01*
X42671180Y-55738848D02*
X42797383Y-55832357D01*
X42797383Y-55832357D02*
X42853196Y-55896710D01*
X42853196Y-55896710D02*
X42894430Y-55996257D01*
X42894430Y-55996257D02*
X42885890Y-56116422D01*
X42885890Y-56116422D02*
X42812998Y-56292399D01*
X42435853Y-55311501D02*
X42415236Y-55261727D01*
X42415236Y-55261727D02*
X42409198Y-55176758D01*
X42409198Y-55176758D02*
X42482090Y-55000781D01*
X42482090Y-55000781D02*
X42546442Y-54944968D01*
X42546442Y-54944968D02*
X42596216Y-54924351D01*
X42596216Y-54924351D02*
X42681185Y-54918313D01*
X42681185Y-54918313D02*
X42751576Y-54947469D01*
X42751576Y-54947469D02*
X42842584Y-55026400D01*
X42842584Y-55026400D02*
X43089988Y-55623686D01*
X43089988Y-55623686D02*
X43279507Y-55166146D01*
X39076697Y-49591684D02*
X38770550Y-48852581D01*
X38770550Y-48852581D02*
X38946528Y-48779689D01*
X38946528Y-48779689D02*
X39066692Y-48771149D01*
X39066692Y-48771149D02*
X39166240Y-48812383D01*
X39166240Y-48812383D02*
X39230592Y-48868195D01*
X39230592Y-48868195D02*
X39324101Y-48994398D01*
X39324101Y-48994398D02*
X39367836Y-49099985D01*
X39367836Y-49099985D02*
X39390955Y-49255345D01*
X39390955Y-49255345D02*
X39384916Y-49340314D01*
X39384916Y-49340314D02*
X39343682Y-49439861D01*
X39343682Y-49439861D02*
X39252674Y-49518792D01*
X39252674Y-49518792D02*
X39076697Y-49591684D01*
X40202950Y-49125175D02*
X39780605Y-49300116D01*
X39991778Y-49212645D02*
X39685631Y-48473542D01*
X39685631Y-48473542D02*
X39658976Y-48608285D01*
X39658976Y-48608285D02*
X39617742Y-48707832D01*
X39617742Y-48707832D02*
X39561929Y-48772185D01*
D12*
X51750000Y-47462500D02*
X51750000Y-46137500D01*
X46700000Y-47462500D02*
X46700000Y-46137500D01*
X49250000Y-47412500D02*
X49250000Y-46087500D01*
D13*
X51640476Y-48281090D02*
X51564286Y-48242995D01*
X51564286Y-48242995D02*
X51450000Y-48242995D01*
X51450000Y-48242995D02*
X51335714Y-48281090D01*
X51335714Y-48281090D02*
X51259524Y-48357280D01*
X51259524Y-48357280D02*
X51221429Y-48433471D01*
X51221429Y-48433471D02*
X51183333Y-48585852D01*
X51183333Y-48585852D02*
X51183333Y-48700138D01*
X51183333Y-48700138D02*
X51221429Y-48852519D01*
X51221429Y-48852519D02*
X51259524Y-48928709D01*
X51259524Y-48928709D02*
X51335714Y-49004900D01*
X51335714Y-49004900D02*
X51450000Y-49042995D01*
X51450000Y-49042995D02*
X51526191Y-49042995D01*
X51526191Y-49042995D02*
X51640476Y-49004900D01*
X51640476Y-49004900D02*
X51678572Y-48966804D01*
X51678572Y-48966804D02*
X51678572Y-48700138D01*
X51678572Y-48700138D02*
X51526191Y-48700138D01*
X52021429Y-49042995D02*
X52021429Y-48242995D01*
X52021429Y-48242995D02*
X52478572Y-49042995D01*
X52478572Y-49042995D02*
X52478572Y-48242995D01*
X52859524Y-49042995D02*
X52859524Y-48242995D01*
X52859524Y-48242995D02*
X53050000Y-48242995D01*
X53050000Y-48242995D02*
X53164286Y-48281090D01*
X53164286Y-48281090D02*
X53240476Y-48357280D01*
X53240476Y-48357280D02*
X53278571Y-48433471D01*
X53278571Y-48433471D02*
X53316667Y-48585852D01*
X53316667Y-48585852D02*
X53316667Y-48700138D01*
X53316667Y-48700138D02*
X53278571Y-48852519D01*
X53278571Y-48852519D02*
X53240476Y-48928709D01*
X53240476Y-48928709D02*
X53164286Y-49004900D01*
X53164286Y-49004900D02*
X53050000Y-49042995D01*
X53050000Y-49042995D02*
X52859524Y-49042995D01*
X48530953Y-49042995D02*
X48530953Y-48242995D01*
X48530953Y-48242995D02*
X48721429Y-48242995D01*
X48721429Y-48242995D02*
X48835715Y-48281090D01*
X48835715Y-48281090D02*
X48911905Y-48357280D01*
X48911905Y-48357280D02*
X48950000Y-48433471D01*
X48950000Y-48433471D02*
X48988096Y-48585852D01*
X48988096Y-48585852D02*
X48988096Y-48700138D01*
X48988096Y-48700138D02*
X48950000Y-48852519D01*
X48950000Y-48852519D02*
X48911905Y-48928709D01*
X48911905Y-48928709D02*
X48835715Y-49004900D01*
X48835715Y-49004900D02*
X48721429Y-49042995D01*
X48721429Y-49042995D02*
X48530953Y-49042995D01*
X49330953Y-49042995D02*
X49330953Y-48242995D01*
X49711905Y-49042995D02*
X49711905Y-48242995D01*
X49711905Y-48242995D02*
X50169048Y-49042995D01*
X50169048Y-49042995D02*
X50169048Y-48242995D01*
X45087250Y-48738233D02*
X45696774Y-48738233D01*
X45392012Y-49042995D02*
X45392012Y-48433471D01*
X46458678Y-48242995D02*
X46077726Y-48242995D01*
X46077726Y-48242995D02*
X46039630Y-48623947D01*
X46039630Y-48623947D02*
X46077726Y-48585852D01*
X46077726Y-48585852D02*
X46153916Y-48547757D01*
X46153916Y-48547757D02*
X46344392Y-48547757D01*
X46344392Y-48547757D02*
X46420583Y-48585852D01*
X46420583Y-48585852D02*
X46458678Y-48623947D01*
X46458678Y-48623947D02*
X46496773Y-48700138D01*
X46496773Y-48700138D02*
X46496773Y-48890614D01*
X46496773Y-48890614D02*
X46458678Y-48966804D01*
X46458678Y-48966804D02*
X46420583Y-49004900D01*
X46420583Y-49004900D02*
X46344392Y-49042995D01*
X46344392Y-49042995D02*
X46153916Y-49042995D01*
X46153916Y-49042995D02*
X46077726Y-49004900D01*
X46077726Y-49004900D02*
X46039630Y-48966804D01*
X46725345Y-48242995D02*
X46992012Y-49042995D01*
X46992012Y-49042995D02*
X47258678Y-48242995D01*
D14*
X49083333Y-52252219D02*
X48750000Y-51776028D01*
X48511905Y-52252219D02*
X48511905Y-51252219D01*
X48511905Y-51252219D02*
X48892857Y-51252219D01*
X48892857Y-51252219D02*
X48988095Y-51299838D01*
X48988095Y-51299838D02*
X49035714Y-51347457D01*
X49035714Y-51347457D02*
X49083333Y-51442695D01*
X49083333Y-51442695D02*
X49083333Y-51585552D01*
X49083333Y-51585552D02*
X49035714Y-51680790D01*
X49035714Y-51680790D02*
X48988095Y-51728409D01*
X48988095Y-51728409D02*
X48892857Y-51776028D01*
X48892857Y-51776028D02*
X48511905Y-51776028D01*
X50035714Y-52252219D02*
X49464286Y-52252219D01*
X49750000Y-52252219D02*
X49750000Y-51252219D01*
X49750000Y-51252219D02*
X49654762Y-51395076D01*
X49654762Y-51395076D02*
X49559524Y-51490314D01*
X49559524Y-51490314D02*
X49464286Y-51537933D01*
D10*
X41600929Y-58477706D02*
X41600929Y-58528213D01*
X41600929Y-58528213D02*
X41550421Y-58629229D01*
X41550421Y-58629229D02*
X41499914Y-58679736D01*
X41499914Y-58679736D02*
X41398898Y-58730244D01*
X41398898Y-58730244D02*
X41297883Y-58730244D01*
X41297883Y-58730244D02*
X41222122Y-58704990D01*
X41222122Y-58704990D02*
X41095853Y-58629229D01*
X41095853Y-58629229D02*
X41020091Y-58553467D01*
X41020091Y-58553467D02*
X40944330Y-58427198D01*
X40944330Y-58427198D02*
X40919076Y-58351437D01*
X40919076Y-58351437D02*
X40919076Y-58250421D01*
X40919076Y-58250421D02*
X40969583Y-58149406D01*
X40969583Y-58149406D02*
X41020091Y-58098898D01*
X41020091Y-58098898D02*
X41121106Y-58048391D01*
X41121106Y-58048391D02*
X41171614Y-58048391D01*
X42156513Y-58023137D02*
X41853467Y-58326183D01*
X42004990Y-58174660D02*
X41474660Y-57644330D01*
X41474660Y-57644330D02*
X41499914Y-57770599D01*
X41499914Y-57770599D02*
X41499914Y-57871614D01*
X41499914Y-57871614D02*
X41474660Y-57947376D01*
X58522294Y-56550929D02*
X58471787Y-56550929D01*
X58471787Y-56550929D02*
X58370771Y-56500421D01*
X58370771Y-56500421D02*
X58320264Y-56449914D01*
X58320264Y-56449914D02*
X58269756Y-56348898D01*
X58269756Y-56348898D02*
X58269756Y-56247883D01*
X58269756Y-56247883D02*
X58295010Y-56172122D01*
X58295010Y-56172122D02*
X58370771Y-56045853D01*
X58370771Y-56045853D02*
X58446533Y-55970091D01*
X58446533Y-55970091D02*
X58572802Y-55894330D01*
X58572802Y-55894330D02*
X58648563Y-55869076D01*
X58648563Y-55869076D02*
X58749579Y-55869076D01*
X58749579Y-55869076D02*
X58850594Y-55919583D01*
X58850594Y-55919583D02*
X58901102Y-55970091D01*
X58901102Y-55970091D02*
X58951609Y-56071106D01*
X58951609Y-56071106D02*
X58951609Y-56121614D01*
X59178893Y-56247883D02*
X59507193Y-56576183D01*
X59507193Y-56576183D02*
X59128386Y-56601436D01*
X59128386Y-56601436D02*
X59204147Y-56677198D01*
X59204147Y-56677198D02*
X59229401Y-56752959D01*
X59229401Y-56752959D02*
X59229401Y-56803467D01*
X59229401Y-56803467D02*
X59204147Y-56879228D01*
X59204147Y-56879228D02*
X59077878Y-57005497D01*
X59077878Y-57005497D02*
X59002117Y-57030751D01*
X59002117Y-57030751D02*
X58951609Y-57030751D01*
X58951609Y-57030751D02*
X58875848Y-57005497D01*
X58875848Y-57005497D02*
X58724325Y-56853975D01*
X58724325Y-56853975D02*
X58699071Y-56778213D01*
X58699071Y-56778213D02*
X58699071Y-56727705D01*
X39172293Y-40750930D02*
X39121786Y-40750930D01*
X39121786Y-40750930D02*
X39020770Y-40700422D01*
X39020770Y-40700422D02*
X38970263Y-40649915D01*
X38970263Y-40649915D02*
X38919755Y-40548899D01*
X38919755Y-40548899D02*
X38919755Y-40447884D01*
X38919755Y-40447884D02*
X38945009Y-40372123D01*
X38945009Y-40372123D02*
X39020770Y-40245854D01*
X39020770Y-40245854D02*
X39096532Y-40170092D01*
X39096532Y-40170092D02*
X39222801Y-40094331D01*
X39222801Y-40094331D02*
X39298562Y-40069077D01*
X39298562Y-40069077D02*
X39399578Y-40069077D01*
X39399578Y-40069077D02*
X39500593Y-40119584D01*
X39500593Y-40119584D02*
X39551101Y-40170092D01*
X39551101Y-40170092D02*
X39601608Y-40271107D01*
X39601608Y-40271107D02*
X39601608Y-40321615D01*
X40106684Y-40725676D02*
X40005669Y-40624661D01*
X40005669Y-40624661D02*
X39929908Y-40599407D01*
X39929908Y-40599407D02*
X39879400Y-40599407D01*
X39879400Y-40599407D02*
X39753131Y-40624661D01*
X39753131Y-40624661D02*
X39626862Y-40700422D01*
X39626862Y-40700422D02*
X39424831Y-40902453D01*
X39424831Y-40902453D02*
X39399578Y-40978214D01*
X39399578Y-40978214D02*
X39399578Y-41028722D01*
X39399578Y-41028722D02*
X39424831Y-41104483D01*
X39424831Y-41104483D02*
X39525847Y-41205498D01*
X39525847Y-41205498D02*
X39601608Y-41230752D01*
X39601608Y-41230752D02*
X39652116Y-41230752D01*
X39652116Y-41230752D02*
X39727877Y-41205498D01*
X39727877Y-41205498D02*
X39854146Y-41079229D01*
X39854146Y-41079229D02*
X39879400Y-41003468D01*
X39879400Y-41003468D02*
X39879400Y-40952960D01*
X39879400Y-40952960D02*
X39854146Y-40877199D01*
X39854146Y-40877199D02*
X39753131Y-40776184D01*
X39753131Y-40776184D02*
X39677370Y-40750930D01*
X39677370Y-40750930D02*
X39626862Y-40750930D01*
X39626862Y-40750930D02*
X39551101Y-40776184D01*
X48267735Y-36275000D02*
X48303450Y-36310714D01*
X48303450Y-36310714D02*
X48339164Y-36417857D01*
X48339164Y-36417857D02*
X48339164Y-36489285D01*
X48339164Y-36489285D02*
X48303450Y-36596428D01*
X48303450Y-36596428D02*
X48232021Y-36667857D01*
X48232021Y-36667857D02*
X48160592Y-36703571D01*
X48160592Y-36703571D02*
X48017735Y-36739285D01*
X48017735Y-36739285D02*
X47910592Y-36739285D01*
X47910592Y-36739285D02*
X47767735Y-36703571D01*
X47767735Y-36703571D02*
X47696307Y-36667857D01*
X47696307Y-36667857D02*
X47624878Y-36596428D01*
X47624878Y-36596428D02*
X47589164Y-36489285D01*
X47589164Y-36489285D02*
X47589164Y-36417857D01*
X47589164Y-36417857D02*
X47624878Y-36310714D01*
X47624878Y-36310714D02*
X47660592Y-36275000D01*
X47589164Y-35596428D02*
X47589164Y-35953571D01*
X47589164Y-35953571D02*
X47946307Y-35989285D01*
X47946307Y-35989285D02*
X47910592Y-35953571D01*
X47910592Y-35953571D02*
X47874878Y-35882143D01*
X47874878Y-35882143D02*
X47874878Y-35703571D01*
X47874878Y-35703571D02*
X47910592Y-35632143D01*
X47910592Y-35632143D02*
X47946307Y-35596428D01*
X47946307Y-35596428D02*
X48017735Y-35560714D01*
X48017735Y-35560714D02*
X48196307Y-35560714D01*
X48196307Y-35560714D02*
X48267735Y-35596428D01*
X48267735Y-35596428D02*
X48303450Y-35632143D01*
X48303450Y-35632143D02*
X48339164Y-35703571D01*
X48339164Y-35703571D02*
X48339164Y-35882143D01*
X48339164Y-35882143D02*
X48303450Y-35953571D01*
X48303450Y-35953571D02*
X48267735Y-35989285D01*
X50817735Y-61025000D02*
X50853450Y-61060714D01*
X50853450Y-61060714D02*
X50889164Y-61167857D01*
X50889164Y-61167857D02*
X50889164Y-61239285D01*
X50889164Y-61239285D02*
X50853450Y-61346428D01*
X50853450Y-61346428D02*
X50782021Y-61417857D01*
X50782021Y-61417857D02*
X50710592Y-61453571D01*
X50710592Y-61453571D02*
X50567735Y-61489285D01*
X50567735Y-61489285D02*
X50460592Y-61489285D01*
X50460592Y-61489285D02*
X50317735Y-61453571D01*
X50317735Y-61453571D02*
X50246307Y-61417857D01*
X50246307Y-61417857D02*
X50174878Y-61346428D01*
X50174878Y-61346428D02*
X50139164Y-61239285D01*
X50139164Y-61239285D02*
X50139164Y-61167857D01*
X50139164Y-61167857D02*
X50174878Y-61060714D01*
X50174878Y-61060714D02*
X50210592Y-61025000D01*
X50210592Y-60739285D02*
X50174878Y-60703571D01*
X50174878Y-60703571D02*
X50139164Y-60632143D01*
X50139164Y-60632143D02*
X50139164Y-60453571D01*
X50139164Y-60453571D02*
X50174878Y-60382143D01*
X50174878Y-60382143D02*
X50210592Y-60346428D01*
X50210592Y-60346428D02*
X50282021Y-60310714D01*
X50282021Y-60310714D02*
X50353450Y-60310714D01*
X50353450Y-60310714D02*
X50460592Y-60346428D01*
X50460592Y-60346428D02*
X50889164Y-60775000D01*
X50889164Y-60775000D02*
X50889164Y-60310714D01*
X57150929Y-39377706D02*
X57150929Y-39428213D01*
X57150929Y-39428213D02*
X57100421Y-39529229D01*
X57100421Y-39529229D02*
X57049914Y-39579736D01*
X57049914Y-39579736D02*
X56948898Y-39630244D01*
X56948898Y-39630244D02*
X56847883Y-39630244D01*
X56847883Y-39630244D02*
X56772122Y-39604990D01*
X56772122Y-39604990D02*
X56645853Y-39529229D01*
X56645853Y-39529229D02*
X56570091Y-39453467D01*
X56570091Y-39453467D02*
X56494330Y-39327198D01*
X56494330Y-39327198D02*
X56469076Y-39251437D01*
X56469076Y-39251437D02*
X56469076Y-39150421D01*
X56469076Y-39150421D02*
X56519583Y-39049406D01*
X56519583Y-39049406D02*
X56570091Y-38998898D01*
X56570091Y-38998898D02*
X56671106Y-38948391D01*
X56671106Y-38948391D02*
X56721614Y-38948391D01*
X57302452Y-38620091D02*
X57656005Y-38973645D01*
X56974152Y-38544330D02*
X57226690Y-39049406D01*
X57226690Y-39049406D02*
X57554990Y-38721107D01*
D11*
%TO.C,D3*%
X49654148Y-56770061D02*
X51567565Y-61389458D01*
X53771414Y-54036360D02*
X54371936Y-53787616D01*
X54371936Y-53787616D02*
X56658469Y-59307796D01*
%TO.C,1*%
X41147224Y-49036863D02*
X36527827Y-50950280D01*
X43880925Y-53154129D02*
X44129669Y-53754651D01*
X44129669Y-53754651D02*
X38609489Y-56041184D01*
D15*
%TO.C,R1*%
X48962742Y-53283566D02*
X49437258Y-53283566D01*
X48962742Y-54328566D02*
X49437258Y-54328566D01*
D11*
%TO.C,D4*%
X55282587Y-54118200D02*
X59901984Y-56031617D01*
X56260916Y-49273835D02*
X56509660Y-48673313D01*
X56509660Y-48673313D02*
X62029840Y-50959847D01*
D15*
%TO.C,C1*%
X41065255Y-57573279D02*
X40866444Y-57772090D01*
X40344006Y-56852030D02*
X40145195Y-57050841D01*
%TO.C,C3*%
X58190564Y-56852030D02*
X58389375Y-57050841D01*
X57469315Y-57573279D02*
X57668126Y-57772090D01*
%TO.C,C6*%
X40344006Y-40447970D02*
X40145195Y-40249159D01*
X41065255Y-39726721D02*
X40866444Y-39527910D01*
D11*
%TO.C,D7*%
X48880422Y-40529939D02*
X46967005Y-35910542D01*
X44763156Y-43263640D02*
X44162634Y-43512384D01*
X44162634Y-43512384D02*
X41876101Y-37992204D01*
D15*
%TO.C,C5*%
X48757285Y-36540580D02*
X48757285Y-36259420D01*
X49777285Y-36540580D02*
X49777285Y-36259420D01*
%TO.C,C2*%
X49777285Y-60759420D02*
X49777285Y-61040580D01*
X48757285Y-60759420D02*
X48757285Y-61040580D01*
D11*
%TO.C,D6*%
X54735485Y-42634698D02*
X56648902Y-38015301D01*
X49891120Y-41656369D02*
X49290598Y-41407625D01*
X49290598Y-41407625D02*
X51577132Y-35887445D01*
%TO.C,D8*%
X43251983Y-43181800D02*
X38632586Y-41268383D01*
X42273654Y-48026165D02*
X42024910Y-48626687D01*
X42024910Y-48626687D02*
X36504730Y-46340153D01*
%TO.C,D2*%
X43799085Y-54665302D02*
X41885668Y-59284699D01*
X48643450Y-55643631D02*
X49243972Y-55892375D01*
X49243972Y-55892375D02*
X46957438Y-61412555D01*
%TO.C,D5*%
X57387346Y-48263137D02*
X62006743Y-46349720D01*
X54653645Y-44145871D02*
X54404901Y-43545349D01*
X54404901Y-43545349D02*
X59925081Y-41258816D01*
D15*
%TO.C,C4*%
X57469315Y-39726721D02*
X57668126Y-39527910D01*
X58190564Y-40447970D02*
X58389375Y-40249159D01*
%TD*%
%LPC*%
D16*
%TO.C,D3*%
X53692158Y-55151582D03*
X50735743Y-56376169D03*
X52610892Y-60903178D03*
X55567307Y-59678591D03*
%TD*%
D17*
%TO.C,1*%
X42765703Y-53074873D03*
X41541116Y-50118458D03*
X37014107Y-51993607D03*
X38238694Y-54950022D03*
%TD*%
D18*
%TO.C,R1*%
X48375000Y-53806066D03*
X50025000Y-53806066D03*
%TD*%
D19*
%TO.C,D4*%
X56993454Y-50118458D03*
X55768867Y-53074873D03*
X60295876Y-54950022D03*
X61520463Y-51993607D03*
%TD*%
D20*
%TO.C,C1*%
X41153233Y-56764052D03*
X40057217Y-57860068D03*
%TD*%
D21*
%TO.C,C3*%
X57381337Y-56764052D03*
X58477353Y-57860068D03*
%TD*%
D22*
%TO.C,C6*%
X41153233Y-40535948D03*
X40057217Y-39439932D03*
%TD*%
D23*
%TO.C,D7*%
X44842412Y-42148418D03*
X47798827Y-40923831D03*
X45923678Y-36396822D03*
X42967263Y-37621409D03*
%TD*%
D24*
%TO.C,C5*%
X49267285Y-37175000D03*
X49267285Y-35625000D03*
%TD*%
D25*
%TO.C,C2*%
X49267285Y-60125000D03*
X49267285Y-61675000D03*
%TD*%
D26*
%TO.C,D6*%
X50735743Y-40923831D03*
X53692158Y-42148418D03*
X55567307Y-37621409D03*
X52610892Y-36396822D03*
%TD*%
D27*
%TO.C,D8*%
X41541116Y-47181542D03*
X42765703Y-44225127D03*
X38238694Y-42349978D03*
X37014107Y-45306393D03*
%TD*%
D28*
%TO.C,D2*%
X47798827Y-56376169D03*
X44842412Y-55151582D03*
X42967263Y-59678591D03*
X45923678Y-60903178D03*
%TD*%
D29*
%TO.C,D5*%
X55768867Y-44225127D03*
X56993454Y-47181542D03*
X61520463Y-45306393D03*
X60295876Y-42349978D03*
%TD*%
D30*
%TO.C,C4*%
X57381337Y-40535948D03*
X58477353Y-39439932D03*
%TD*%
D31*
%TO.C,REF\u002A\u002A*%
X46700000Y-44400000D03*
D32*
X49240000Y-44400000D03*
X51780000Y-44400000D03*
%TD*%
D33*
%TO.C,NoUSB*%
X53417285Y-46630000D03*
X53417285Y-50670000D03*
X45117285Y-50670000D03*
X45117285Y-46630000D03*
%TD*%
%LPD*%
M02*
